<ttFont>
    <TTGlyph name="A" xMin="10" yMin="0" xMax="1239" yMax="1436">
      <contour>
        <pt x="678" y="1436" on="1"/>
        <pt x="696" y="1436" on="0"/>
        <pt x="722" y="1427" on="0"/>
        <pt x="743" y="1405" on="0"/>
        <pt x="761" y="1369" on="0"/>
        <pt x="771" y="1343" on="1"/>
        <pt x="1230" y="117" on="1"/>
        <pt x="1235" y="103" on="0"/>
        <pt x="1239" y="81" on="0"/>
        <pt x="1239" y="70" on="1"/>
        <pt x="1239" y="34" on="0"/>
        <pt x="1196" y="0" on="0"/>
        <pt x="1172" y="0" on="1"/>
        <pt x="605" y="0" on="1"/>
        <pt x="579" y="0" on="0"/>
        <pt x="544" y="13" on="0"/>
        <pt x="520" y="31" on="0"/>
        <pt x="507" y="51" on="0"/>
        <pt x="505" y="59" on="1"/>
        <pt x="494" y="94" on="1"/>
        <pt x="213" y="94" on="1"/>
        <pt x="206" y="64" on="1"/>
        <pt x="203" y="49" on="0"/>
        <pt x="195" y="26" on="0"/>
        <pt x="183" y="9" on="0"/>
        <pt x="162" y="0" on="0"/>
        <pt x="145" y="0" on="1"/>
        <pt x="42" y="0" on="1"/>
        <pt x="10" y="0" on="0"/>
        <pt x="10" y="25" on="1"/>
        <pt x="10" y="34" on="0"/>
        <pt x="17" y="59" on="0"/>
        <pt x="23" y="76" on="1"/>
        <pt x="441" y="1341" on="1"/>
        <pt x="456" y="1388" on="0"/>
        <pt x="494" y="1434" on="0"/>
        <pt x="529" y="1436" on="1"/>
      </contour>
      <contour>
        <pt x="244" y="217" on="1"/>
        <pt x="460" y="217" on="1"/>
        <pt x="349" y="608" on="1"/>
      </contour>
      <contour>
        <pt x="689" y="1320" on="1"/>
        <pt x="681" y="1341" on="0"/>
        <pt x="658" y="1352" on="0"/>
        <pt x="630" y="1352" on="1"/>
        <pt x="595" y="1352" on="1"/>
        <pt x="1068" y="84" on="1"/>
        <pt x="1116" y="84" on="1"/>
        <pt x="1134" y="84" on="0"/>
        <pt x="1147" y="99" on="0"/>
        <pt x="1139" y="119" on="1"/>
      </contour>
    </TTGlyph>
    <TTGlyph name="AE" xMin="-71" yMin="0" xMax="1661" yMax="1436">
      <contour>
        <pt x="1231" y="123" on="1"/>
        <pt x="1231" y="122" on="0"/>
        <pt x="1281" y="129" on="0"/>
        <pt x="1358" y="141" on="0"/>
        <pt x="1452" y="154" on="0"/>
        <pt x="1539" y="166" on="0"/>
        <pt x="1610" y="174" on="0"/>
        <pt x="1626" y="174" on="1"/>
        <pt x="1641" y="174" on="0"/>
        <pt x="1661" y="159" on="0"/>
        <pt x="1661" y="141" on="1"/>
        <pt x="1661" y="49" on="1"/>
        <pt x="1661" y="31" on="0"/>
        <pt x="1640" y="0" on="0"/>
        <pt x="1606" y="0" on="1"/>
        <pt x="637" y="0" on="1"/>
        <pt x="590" y="0" on="0"/>
        <pt x="531" y="18" on="0"/>
        <pt x="497" y="52" on="0"/>
        <pt x="485" y="104" on="0"/>
        <pt x="485" y="139" on="1"/>
        <pt x="485" y="186" on="1"/>
        <pt x="176" y="186" on="1"/>
        <pt x="133" y="82" on="1"/>
        <pt x="126" y="65" on="0"/>
        <pt x="113" y="35" on="0"/>
        <pt x="96" y="13" on="0"/>
        <pt x="70" y="0" on="0"/>
        <pt x="50" y="0" on="1"/>
        <pt x="-25" y="0" on="1"/>
        <pt x="-48" y="0" on="0"/>
        <pt x="-71" y="6" on="0"/>
        <pt x="-71" y="19" on="1"/>
        <pt x="-71" y="30" on="0"/>
        <pt x="-57" y="63" on="1"/>
        <pt x="500" y="1341" on="1"/>
        <pt x="520" y="1388" on="0"/>
        <pt x="571" y="1436" on="0"/>
        <pt x="616" y="1436" on="1"/>
        <pt x="1571" y="1436" on="1"/>
        <pt x="1600" y="1436" on="0"/>
        <pt x="1624" y="1405" on="0"/>
        <pt x="1624" y="1386" on="1"/>
        <pt x="1624" y="1315" on="1"/>
        <pt x="1624" y="1296" on="0"/>
        <pt x="1601" y="1282" on="0"/>
        <pt x="1590" y="1282" on="1"/>
        <pt x="1573" y="1282" on="0"/>
        <pt x="1507" y="1290" on="0"/>
        <pt x="1427" y="1301" on="0"/>
        <pt x="1343" y="1314" on="0"/>
        <pt x="1275" y="1325" on="0"/>
        <pt x="1231" y="1331" on="0"/>
        <pt x="1231" y="1331" on="1"/>
        <pt x="1231" y="1077" on="1"/>
        <pt x="1603" y="1077" on="1"/>
        <pt x="1624" y="1077" on="0"/>
        <pt x="1624" y="1056" on="1"/>
        <pt x="1624" y="956" on="1"/>
        <pt x="1624" y="934" on="0"/>
        <pt x="1603" y="934" on="1"/>
        <pt x="1231" y="934" on="1"/>
      </contour>
      <contour>
        <pt x="485" y="309" on="1"/>
        <pt x="485" y="938" on="1"/>
        <pt x="221" y="309" on="1"/>
      </contour>
      <contour>
        <pt x="1146" y="1345" on="1"/>
        <pt x="1068" y="1356" on="1"/>
        <pt x="1068" y="101" on="1"/>
        <pt x="1146" y="111" on="1"/>
      </contour>
    </TTGlyph>
    <TTGlyph name="AEacute" xMin="-71" yMin="0" xMax="1661" yMax="1939">
      <component glyphName="AE" x="0" y="0" flags="0x204"/>
      <component glyphName="acute" x="610" y="369" flags="0x4"/>
    </TTGlyph>
    <TTGlyph name="Aacute" xMin="10" yMin="0" xMax="1239" yMax="1939">
      <component glyphName="A" x="0" y="0" flags="0x204"/>
      <component glyphName="acute" x="193" y="369" flags="0x4"/>
    </TTGlyph>
    <TTGlyph name="Abreve" xMin="10" yMin="0" xMax="1239" yMax="1861">
      <component glyphName="A" x="0" y="0" flags="0x204"/>
      <component glyphName="breve" x="193" y="369" flags="0x4"/>
    </TTGlyph>
    <TTGlyph name="Acircumflex" xMin="10" yMin="0" xMax="1239" yMax="1919">
      <component glyphName="A" x="0" y="0" flags="0x204"/>
      <component glyphName="circumflex" x="193" y="369" flags="0x4"/>
    </TTGlyph>
    <TTGlyph name="Adieresis" xMin="10" yMin="0" xMax="1239" yMax="1830">
      <component glyphName="A" x="0" y="0" flags="0x204"/>
      <component glyphName="dieresis" x="193" y="369" flags="0x4"/>
    </TTGlyph>
    <TTGlyph name="Agrave" xMin="10" yMin="0" xMax="1239" yMax="1939">
      <component glyphName="A" x="0" y="0" flags="0x204"/>
      <component glyphName="grave" x="193" y="369" flags="0x4"/>
    </TTGlyph>
    <TTGlyph name="Amacron" xMin="10" yMin="0" xMax="1239" yMax="1799">
      <component glyphName="A" x="0" y="0" flags="0x204"/>
      <component glyphName="macron" x="193" y="369" flags="0x4"/>
    </TTGlyph>
    <TTGlyph name="Aogonek" xMin="10" yMin="-508" xMax="1239" yMax="1436">
      <contour>
        <pt x="678" y="1436" on="1"/>
        <pt x="696" y="1436" on="0"/>
        <pt x="722" y="1427" on="0"/>
        <pt x="743" y="1405" on="0"/>
        <pt x="761" y="1369" on="0"/>
        <pt x="771" y="1343" on="1"/>
        <pt x="1230" y="117" on="1"/>
        <pt x="1235" y="103" on="0"/>
        <pt x="1239" y="81" on="0"/>
        <pt x="1239" y="70" on="1"/>
        <pt x="1239" y="37" on="0"/>
        <pt x="1201" y="7" on="0"/>
        <pt x="1181" y="-1" on="1"/>
        <pt x="1129" y="-23" on="0"/>
        <pt x="1021" y="-86" on="0"/>
        <pt x="933" y="-156" on="0"/>
        <pt x="877" y="-228" on="0"/>
        <pt x="877" y="-260" on="1"/>
        <pt x="877" y="-281" on="0"/>
        <pt x="892" y="-316" on="0"/>
        <pt x="927" y="-342" on="0"/>
        <pt x="985" y="-356" on="0"/>
        <pt x="1029" y="-356" on="1"/>
        <pt x="1077" y="-356" on="0"/>
        <pt x="1142" y="-346" on="0"/>
        <pt x="1185" y="-334" on="0"/>
        <pt x="1213" y="-324" on="0"/>
        <pt x="1224" y="-324" on="1"/>
        <pt x="1229" y="-324" on="0"/>
        <pt x="1239" y="-331" on="0"/>
        <pt x="1239" y="-341" on="1"/>
        <pt x="1239" y="-437" on="1"/>
        <pt x="1239" y="-455" on="0"/>
        <pt x="1217" y="-470" on="0"/>
        <pt x="1198" y="-478" on="1"/>
        <pt x="1178" y="-486" on="0"/>
        <pt x="1126" y="-498" on="0"/>
        <pt x="1070" y="-505" on="0"/>
        <pt x="1016" y="-508" on="0"/>
        <pt x="994" y="-508" on="1"/>
        <pt x="939" y="-508" on="0"/>
        <pt x="832" y="-486" on="0"/>
        <pt x="748" y="-434" on="0"/>
        <pt x="696" y="-348" on="0"/>
        <pt x="696" y="-284" on="1"/>
        <pt x="696" y="-246" on="0"/>
        <pt x="731" y="-167" on="0"/>
        <pt x="795" y="-93" on="0"/>
        <pt x="886" y="-27" on="0"/>
        <pt x="942" y="0" on="1"/>
        <pt x="605" y="0" on="1"/>
        <pt x="579" y="0" on="0"/>
        <pt x="544" y="13" on="0"/>
        <pt x="520" y="31" on="0"/>
        <pt x="507" y="51" on="0"/>
        <pt x="505" y="59" on="1"/>
        <pt x="494" y="94" on="1"/>
        <pt x="213" y="94" on="1"/>
        <pt x="206" y="64" on="1"/>
        <pt x="203" y="49" on="0"/>
        <pt x="195" y="26" on="0"/>
        <pt x="183" y="9" on="0"/>
        <pt x="162" y="0" on="0"/>
        <pt x="145" y="0" on="1"/>
        <pt x="42" y="0" on="1"/>
        <pt x="10" y="0" on="0"/>
        <pt x="10" y="25" on="1"/>
        <pt x="10" y="34" on="0"/>
        <pt x="17" y="59" on="0"/>
        <pt x="23" y="76" on="1"/>
        <pt x="441" y="1341" on="1"/>
        <pt x="456" y="1388" on="0"/>
        <pt x="494" y="1434" on="0"/>
        <pt x="529" y="1436" on="1"/>
      </contour>
      <contour>
        <pt x="244" y="217" on="1"/>
        <pt x="460" y="217" on="1"/>
        <pt x="349" y="608" on="1"/>
      </contour>
      <contour>
        <pt x="689" y="1320" on="1"/>
        <pt x="681" y="1341" on="0"/>
        <pt x="658" y="1352" on="0"/>
        <pt x="630" y="1352" on="1"/>
        <pt x="595" y="1352" on="1"/>
        <pt x="1068" y="84" on="1"/>
        <pt x="1116" y="84" on="1"/>
        <pt x="1134" y="84" on="0"/>
        <pt x="1147" y="99" on="0"/>
        <pt x="1139" y="119" on="1"/>
      </contour>
    </TTGlyph>
    <TTGlyph name="Aring" xMin="10" yMin="0" xMax="1239" yMax="1898">
      <contour>
        <pt x="346" y="1640" on="1"/>
        <pt x="346" y="1693" on="0"/>
        <pt x="386" y="1787" on="0"/>
        <pt x="456" y="1857" on="0"/>
        <pt x="550" y="1898" on="0"/>
        <pt x="603" y="1898" on="1"/>
        <pt x="656" y="1898" on="0"/>
        <pt x="749" y="1857" on="0"/>
        <pt x="818" y="1787" on="0"/>
        <pt x="858" y="1693" on="0"/>
        <pt x="858" y="1640" on="1"/>
        <pt x="858" y="1568" on="0"/>
        <pt x="787" y="1451" on="0"/>
        <pt x="730" y="1418" on="1"/>
        <pt x="741" y="1407" on="0"/>
        <pt x="760" y="1371" on="0"/>
        <pt x="771" y="1343" on="1"/>
        <pt x="1230" y="117" on="1"/>
        <pt x="1235" y="103" on="0"/>
        <pt x="1239" y="81" on="0"/>
        <pt x="1239" y="70" on="1"/>
        <pt x="1239" y="34" on="0"/>
        <pt x="1196" y="0" on="0"/>
        <pt x="1172" y="0" on="1"/>
        <pt x="605" y="0" on="1"/>
        <pt x="579" y="0" on="0"/>
        <pt x="544" y="13" on="0"/>
        <pt x="520" y="31" on="0"/>
        <pt x="507" y="51" on="0"/>
        <pt x="505" y="59" on="1"/>
        <pt x="494" y="94" on="1"/>
        <pt x="213" y="94" on="1"/>
        <pt x="206" y="64" on="1"/>
        <pt x="203" y="49" on="0"/>
        <pt x="195" y="26" on="0"/>
        <pt x="183" y="9" on="0"/>
        <pt x="162" y="0" on="0"/>
        <pt x="145" y="0" on="1"/>
        <pt x="42" y="0" on="1"/>
        <pt x="10" y="0" on="0"/>
        <pt x="10" y="25" on="1"/>
        <pt x="10" y="34" on="0"/>
        <pt x="17" y="59" on="0"/>
        <pt x="23" y="76" on="1"/>
        <pt x="441" y="1341" on="1"/>
        <pt x="449" y="1367" on="0"/>
        <pt x="467" y="1404" on="0"/>
        <pt x="479" y="1416" on="1"/>
        <pt x="419" y="1448" on="0"/>
        <pt x="346" y="1567" on="0"/>
      </contour>
      <contour>
        <pt x="244" y="217" on="1"/>
        <pt x="460" y="217" on="1"/>
        <pt x="349" y="608" on="1"/>
      </contour>
      <contour>
        <pt x="493" y="1642" on="1"/>
        <pt x="493" y="1619" on="0"/>
        <pt x="510" y="1579" on="0"/>
        <pt x="540" y="1549" on="0"/>
        <pt x="580" y="1532" on="0"/>
        <pt x="603" y="1532" on="1"/>
        <pt x="626" y="1532" on="0"/>
        <pt x="665" y="1549" on="0"/>
        <pt x="694" y="1579" on="0"/>
        <pt x="711" y="1619" on="0"/>
        <pt x="711" y="1642" on="1"/>
        <pt x="711" y="1665" on="0"/>
        <pt x="694" y="1705" on="0"/>
        <pt x="665" y="1734" on="0"/>
        <pt x="626" y="1751" on="0"/>
        <pt x="603" y="1751" on="1"/>
        <pt x="580" y="1751" on="0"/>
        <pt x="540" y="1734" on="0"/>
        <pt x="510" y="1705" on="0"/>
        <pt x="493" y="1665" on="0"/>
      </contour>
      <contour>
        <pt x="689" y="1320" on="1"/>
        <pt x="681" y="1341" on="0"/>
        <pt x="658" y="1352" on="0"/>
        <pt x="630" y="1352" on="1"/>
        <pt x="595" y="1352" on="1"/>
        <pt x="1068" y="84" on="1"/>
        <pt x="1116" y="84" on="1"/>
        <pt x="1134" y="84" on="0"/>
        <pt x="1147" y="99" on="0"/>
        <pt x="1139" y="119" on="1"/>
      </contour>
    </TTGlyph>
    <TTGlyph name="Atilde" xMin="10" yMin="0" xMax="1239" yMax="1852">
      <component glyphName="A" x="0" y="0" flags="0x204"/>
      <component glyphName="tilde" x="193" y="369" flags="0x4"/>
    </TTGlyph>
    <TTGlyph name="B" xMin="92" yMin="0" xMax="1253" yMax="1436">
      <contour>
        <pt x="92" y="1296" on="1"/>
        <pt x="92" y="1331" on="0"/>
        <pt x="104" y="1383" on="0"/>
        <pt x="138" y="1418" on="0"/>
        <pt x="198" y="1436" on="0"/>
        <pt x="246" y="1436" on="1"/>
        <pt x="692" y="1436" on="1"/>
        <pt x="801" y="1436" on="0"/>
        <pt x="1003" y="1384" on="0"/>
        <pt x="1159" y="1268" on="0"/>
        <pt x="1253" y="1083" on="0"/>
        <pt x="1253" y="950" on="1"/>
        <pt x="1253" y="764" on="0"/>
        <pt x="1134" y="532" on="0"/>
        <pt x="1028" y="484" on="1"/>
        <pt x="1102" y="460" on="0"/>
        <pt x="1176" y="357" on="0"/>
        <pt x="1176" y="285" on="1"/>
        <pt x="1176" y="192" on="0"/>
        <pt x="1091" y="80" on="0"/>
        <pt x="955" y="19" on="0"/>
        <pt x="786" y="0" on="0"/>
        <pt x="702" y="0" on="1"/>
        <pt x="246" y="0" on="1"/>
        <pt x="198" y="0" on="0"/>
        <pt x="138" y="18" on="0"/>
        <pt x="104" y="52" on="0"/>
        <pt x="92" y="104" on="0"/>
        <pt x="92" y="139" on="1"/>
      </contour>
      <contour>
        <pt x="1112" y="934" on="1"/>
        <pt x="1112" y="1006" on="0"/>
        <pt x="1080" y="1127" on="0"/>
        <pt x="1014" y="1219" on="0"/>
        <pt x="910" y="1279" on="0"/>
        <pt x="838" y="1290" on="1"/>
        <pt x="838" y="546" on="1"/>
        <pt x="910" y="556" on="0"/>
        <pt x="1014" y="625" on="0"/>
        <pt x="1080" y="729" on="0"/>
        <pt x="1112" y="861" on="0"/>
      </contour>
      <contour>
        <pt x="838" y="139" on="1"/>
        <pt x="942" y="143" on="0"/>
        <pt x="1034" y="219" on="0"/>
        <pt x="1034" y="272" on="1"/>
        <pt x="1034" y="297" on="0"/>
        <pt x="1013" y="347" on="0"/>
        <pt x="966" y="386" on="0"/>
        <pt x="891" y="412" on="0"/>
        <pt x="838" y="415" on="1"/>
      </contour>
      <contour>
        <pt x="753" y="1305" on="1"/>
        <pt x="738" y="1307" on="0"/>
        <pt x="700" y="1309" on="0"/>
        <pt x="675" y="1309" on="1"/>
        <pt x="675" y="132" on="1"/>
        <pt x="700" y="132" on="0"/>
        <pt x="744" y="133" on="0"/>
        <pt x="753" y="134" on="1"/>
      </contour>
    </TTGlyph>
    <TTGlyph name="C" xMin="61" yMin="-39" xMax="1218" yMax="1483">
      <contour>
        <pt x="817" y="722" on="1"/>
        <pt x="817" y="599" on="0"/>
        <pt x="837" y="420" on="0"/>
        <pt x="870" y="295" on="0"/>
        <pt x="915" y="218" on="0"/>
        <pt x="963" y="175" on="0"/>
        <pt x="1012" y="160" on="0"/>
        <pt x="1034" y="160" on="1"/>
        <pt x="1059" y="160" on="0"/>
        <pt x="1099" y="173" on="0"/>
        <pt x="1131" y="190" on="0"/>
        <pt x="1152" y="203" on="0"/>
        <pt x="1158" y="203" on="1"/>
        <pt x="1166" y="203" on="0"/>
        <pt x="1172" y="194" on="1"/>
        <pt x="1215" y="126" on="1"/>
        <pt x="1218" y="120" on="0"/>
        <pt x="1218" y="116" on="1"/>
        <pt x="1218" y="111" on="0"/>
        <pt x="1210" y="104" on="0"/>
        <pt x="1207" y="101" on="1"/>
        <pt x="1176" y="77" on="0"/>
        <pt x="1080" y="27" on="0"/>
        <pt x="957" y="-13" on="0"/>
        <pt x="809" y="-39" on="0"/>
        <pt x="727" y="-39" on="1"/>
        <pt x="652" y="-39" on="0"/>
        <pt x="495" y="-10" on="0"/>
        <pt x="347" y="59" on="0"/>
        <pt x="216" y="173" on="0"/>
        <pt x="118" y="342" on="0"/>
        <pt x="61" y="571" on="0"/>
        <pt x="61" y="722" on="1"/>
        <pt x="61" y="873" on="0"/>
        <pt x="118" y="1102" on="0"/>
        <pt x="216" y="1271" on="0"/>
        <pt x="347" y="1385" on="0"/>
        <pt x="495" y="1454" on="0"/>
        <pt x="652" y="1483" on="0"/>
        <pt x="727" y="1483" on="1"/>
        <pt x="809" y="1483" on="0"/>
        <pt x="957" y="1457" on="0"/>
        <pt x="1080" y="1417" on="0"/>
        <pt x="1176" y="1367" on="0"/>
        <pt x="1207" y="1343" on="1"/>
        <pt x="1210" y="1340" on="0"/>
        <pt x="1218" y="1333" on="0"/>
        <pt x="1218" y="1328" on="1"/>
        <pt x="1218" y="1324" on="0"/>
        <pt x="1215" y="1318" on="1"/>
        <pt x="1172" y="1250" on="1"/>
        <pt x="1166" y="1241" on="0"/>
        <pt x="1158" y="1241" on="1"/>
        <pt x="1152" y="1241" on="0"/>
        <pt x="1131" y="1254" on="0"/>
        <pt x="1099" y="1271" on="0"/>
        <pt x="1059" y="1284" on="0"/>
        <pt x="1034" y="1284" on="1"/>
        <pt x="1012" y="1284" on="0"/>
        <pt x="963" y="1269" on="0"/>
        <pt x="915" y="1226" on="0"/>
        <pt x="870" y="1149" on="0"/>
        <pt x="837" y="1024" on="0"/>
        <pt x="817" y="845" on="0"/>
      </contour>
      <contour>
        <pt x="648" y="722" on="1"/>
        <pt x="648" y="598" on="0"/>
        <pt x="671" y="416" on="0"/>
        <pt x="712" y="285" on="0"/>
        <pt x="767" y="199" on="0"/>
        <pt x="830" y="144" on="0"/>
        <pt x="897" y="115" on="0"/>
        <pt x="930" y="107" on="1"/>
        <pt x="919" y="114" on="0"/>
        <pt x="881" y="139" on="0"/>
        <pt x="836" y="190" on="0"/>
        <pt x="791" y="275" on="0"/>
        <pt x="754" y="407" on="0"/>
        <pt x="731" y="594" on="0"/>
        <pt x="731" y="722" on="1"/>
        <pt x="731" y="850" on="0"/>
        <pt x="754" y="1037" on="0"/>
        <pt x="791" y="1169" on="0"/>
        <pt x="836" y="1254" on="0"/>
        <pt x="881" y="1305" on="0"/>
        <pt x="919" y="1330" on="0"/>
        <pt x="930" y="1337" on="1"/>
        <pt x="897" y="1328" on="0"/>
        <pt x="830" y="1300" on="0"/>
        <pt x="767" y="1245" on="0"/>
        <pt x="712" y="1159" on="0"/>
        <pt x="671" y="1028" on="0"/>
        <pt x="648" y="846" on="0"/>
      </contour>
    </TTGlyph>
    <TTGlyph name="Cacute" xMin="61" yMin="-39" xMax="1218" yMax="1980">
      <component glyphName="C" x="0" y="0" flags="0x4"/>
      <component glyphName="acute" x="317" y="410" flags="0x4"/>
    </TTGlyph>
    <TTGlyph name="Ccaron" xMin="61" yMin="-39" xMax="1218" yMax="1960">
      <component glyphName="C" x="0" y="0" flags="0x4"/>
      <component glyphName="caron" x="317" y="410" flags="0x4"/>
    </TTGlyph>
    <TTGlyph name="Ccedilla" xMin="61" yMin="-591" xMax="1218" yMax="1483">
      <contour>
        <pt x="817" y="722" on="1"/>
        <pt x="817" y="599" on="0"/>
        <pt x="837" y="420" on="0"/>
        <pt x="870" y="295" on="0"/>
        <pt x="915" y="218" on="0"/>
        <pt x="963" y="175" on="0"/>
        <pt x="1012" y="160" on="0"/>
        <pt x="1034" y="160" on="1"/>
        <pt x="1059" y="160" on="0"/>
        <pt x="1099" y="173" on="0"/>
        <pt x="1131" y="190" on="0"/>
        <pt x="1152" y="203" on="0"/>
        <pt x="1158" y="203" on="1"/>
        <pt x="1166" y="203" on="0"/>
        <pt x="1172" y="194" on="1"/>
        <pt x="1215" y="126" on="1"/>
        <pt x="1218" y="120" on="0"/>
        <pt x="1218" y="116" on="1"/>
        <pt x="1218" y="111" on="0"/>
        <pt x="1210" y="104" on="0"/>
        <pt x="1207" y="101" on="1"/>
        <pt x="1178" y="78" on="0"/>
        <pt x="1089" y="31" on="0"/>
        <pt x="976" y="-8" on="0"/>
        <pt x="840" y="-35" on="0"/>
        <pt x="764" y="-38" on="1"/>
        <pt x="750" y="-107" on="1"/>
        <pt x="821" y="-118" on="0"/>
        <pt x="914" y="-163" on="0"/>
        <pt x="970" y="-225" on="0"/>
        <pt x="992" y="-298" on="0"/>
        <pt x="992" y="-337" on="1"/>
        <pt x="992" y="-408" on="0"/>
        <pt x="933" y="-505" on="0"/>
        <pt x="835" y="-565" on="0"/>
        <pt x="710" y="-591" on="0"/>
        <pt x="644" y="-591" on="1"/>
        <pt x="623" y="-591" on="0"/>
        <pt x="557" y="-586" on="0"/>
        <pt x="494" y="-570" on="0"/>
        <pt x="449" y="-543" on="0"/>
        <pt x="449" y="-520" on="1"/>
        <pt x="449" y="-424" on="1"/>
        <pt x="449" y="-414" on="0"/>
        <pt x="459" y="-407" on="0"/>
        <pt x="464" y="-407" on="1"/>
        <pt x="476" y="-407" on="0"/>
        <pt x="506" y="-417" on="0"/>
        <pt x="550" y="-429" on="0"/>
        <pt x="610" y="-439" on="0"/>
        <pt x="654" y="-439" on="1"/>
        <pt x="697" y="-439" on="0"/>
        <pt x="757" y="-422" on="0"/>
        <pt x="795" y="-392" on="0"/>
        <pt x="811" y="-354" on="0"/>
        <pt x="811" y="-333" on="1"/>
        <pt x="811" y="-308" on="0"/>
        <pt x="790" y="-267" on="0"/>
        <pt x="744" y="-238" on="0"/>
        <pt x="671" y="-222" on="0"/>
        <pt x="619" y="-222" on="1"/>
        <pt x="614" y="-222" on="0"/>
        <pt x="597" y="-219" on="0"/>
        <pt x="597" y="-203" on="1"/>
        <pt x="597" y="-199" on="0"/>
        <pt x="603" y="-166" on="0"/>
        <pt x="613" y="-118" on="0"/>
        <pt x="624" y="-61" on="0"/>
        <pt x="630" y="-33" on="1"/>
        <pt x="561" y="-25" on="0"/>
        <pt x="423" y="18" on="0"/>
        <pt x="296" y="96" on="0"/>
        <pt x="187" y="213" on="0"/>
        <pt x="107" y="375" on="0"/>
        <pt x="61" y="587" on="0"/>
        <pt x="61" y="722" on="1"/>
        <pt x="61" y="873" on="0"/>
        <pt x="118" y="1102" on="0"/>
        <pt x="216" y="1271" on="0"/>
        <pt x="347" y="1385" on="0"/>
        <pt x="495" y="1454" on="0"/>
        <pt x="652" y="1483" on="0"/>
        <pt x="727" y="1483" on="1"/>
        <pt x="809" y="1483" on="0"/>
        <pt x="957" y="1457" on="0"/>
        <pt x="1080" y="1417" on="0"/>
        <pt x="1176" y="1367" on="0"/>
        <pt x="1207" y="1343" on="1"/>
        <pt x="1210" y="1340" on="0"/>
        <pt x="1218" y="1333" on="0"/>
        <pt x="1218" y="1328" on="1"/>
        <pt x="1218" y="1324" on="0"/>
        <pt x="1215" y="1318" on="1"/>
        <pt x="1172" y="1250" on="1"/>
        <pt x="1166" y="1241" on="0"/>
        <pt x="1158" y="1241" on="1"/>
        <pt x="1152" y="1241" on="0"/>
        <pt x="1131" y="1254" on="0"/>
        <pt x="1099" y="1271" on="0"/>
        <pt x="1059" y="1284" on="0"/>
        <pt x="1034" y="1284" on="1"/>
        <pt x="1012" y="1284" on="0"/>
        <pt x="963" y="1269" on="0"/>
        <pt x="915" y="1226" on="0"/>
        <pt x="870" y="1149" on="0"/>
        <pt x="837" y="1024" on="0"/>
        <pt x="817" y="845" on="0"/>
      </contour>
      <contour>
        <pt x="648" y="722" on="1"/>
        <pt x="648" y="598" on="0"/>
        <pt x="671" y="416" on="0"/>
        <pt x="712" y="285" on="0"/>
        <pt x="767" y="199" on="0"/>
        <pt x="830" y="144" on="0"/>
        <pt x="897" y="115" on="0"/>
        <pt x="930" y="107" on="1"/>
        <pt x="919" y="114" on="0"/>
        <pt x="881" y="139" on="0"/>
        <pt x="836" y="190" on="0"/>
        <pt x="791" y="275" on="0"/>
        <pt x="754" y="407" on="0"/>
        <pt x="731" y="594" on="0"/>
        <pt x="731" y="722" on="1"/>
        <pt x="731" y="850" on="0"/>
        <pt x="754" y="1037" on="0"/>
        <pt x="791" y="1169" on="0"/>
        <pt x="836" y="1254" on="0"/>
        <pt x="881" y="1305" on="0"/>
        <pt x="919" y="1330" on="0"/>
        <pt x="930" y="1337" on="1"/>
        <pt x="897" y="1328" on="0"/>
        <pt x="830" y="1300" on="0"/>
        <pt x="767" y="1245" on="0"/>
        <pt x="712" y="1159" on="0"/>
        <pt x="671" y="1028" on="0"/>
        <pt x="648" y="846" on="0"/>
      </contour>
    </TTGlyph>
    <TTGlyph name="Ccircumflex" xMin="61" yMin="-39" xMax="1218" yMax="1960">
      <component glyphName="C" x="0" y="0" flags="0x4"/>
      <component glyphName="circumflex" x="317" y="410" flags="0x4"/>
    </TTGlyph>
    <TTGlyph name="Cdotaccent" xMin="61" yMin="-39" xMax="1218" yMax="1888">
      <component glyphName="C" x="0" y="0" flags="0x4"/>
      <component glyphName="dotaccent" x="317" y="410" flags="0x4"/>
    </TTGlyph>
    <TTGlyph name="D" xMin="92" yMin="0" xMax="1331" yMax="1436">
      <contour>
        <pt x="92" y="1296" on="1"/>
        <pt x="92" y="1331" on="0"/>
        <pt x="104" y="1383" on="0"/>
        <pt x="138" y="1418" on="0"/>
        <pt x="198" y="1436" on="0"/>
        <pt x="246" y="1436" on="1"/>
        <pt x="727" y="1436" on="1"/>
        <pt x="802" y="1436" on="0"/>
        <pt x="950" y="1415" on="0"/>
        <pt x="1084" y="1361" on="0"/>
        <pt x="1199" y="1266" on="0"/>
        <pt x="1283" y="1116" on="0"/>
        <pt x="1331" y="906" on="0"/>
        <pt x="1331" y="764" on="1"/>
        <pt x="1331" y="597" on="0"/>
        <pt x="1280" y="354" on="0"/>
        <pt x="1193" y="184" on="0"/>
        <pt x="1074" y="79" on="0"/>
        <pt x="937" y="20" on="0"/>
        <pt x="790" y="0" on="0"/>
        <pt x="717" y="0" on="1"/>
        <pt x="246" y="0" on="1"/>
        <pt x="198" y="0" on="0"/>
        <pt x="138" y="18" on="0"/>
        <pt x="104" y="52" on="0"/>
        <pt x="92" y="104" on="0"/>
        <pt x="92" y="139" on="1"/>
      </contour>
      <contour>
        <pt x="1190" y="743" on="1"/>
        <pt x="1190" y="867" on="0"/>
        <pt x="1150" y="1071" on="0"/>
        <pt x="1064" y="1215" on="0"/>
        <pt x="931" y="1295" on="0"/>
        <pt x="838" y="1296" on="1"/>
        <pt x="838" y="139" on="1"/>
        <pt x="931" y="140" on="0"/>
        <pt x="1065" y="235" on="0"/>
        <pt x="1150" y="399" on="0"/>
        <pt x="1190" y="618" on="0"/>
      </contour>
      <contour>
        <pt x="753" y="1298" on="1"/>
        <pt x="675" y="1298" on="1"/>
        <pt x="675" y="138" on="1"/>
        <pt x="753" y="138" on="1"/>
      </contour>
    </TTGlyph>
    <TTGlyph name="Dcaron" xMin="92" yMin="0" xMax="1331" yMax="1919">
      <component glyphName="D" x="0" y="0" flags="0x204"/>
      <component glyphName="caron" x="175" y="369" flags="0x4"/>
    </TTGlyph>
    <TTGlyph name="Dcroat" xMin="0" yMin="0" xMax="1361" yMax="1436">
      <contour>
        <pt x="21" y="524" on="1"/>
        <pt x="0" y="524" on="0"/>
        <pt x="0" y="546" on="1"/>
        <pt x="0" y="647" on="1"/>
        <pt x="0" y="668" on="0"/>
        <pt x="21" y="668" on="1"/>
        <pt x="122" y="668" on="1"/>
        <pt x="122" y="1296" on="1"/>
        <pt x="122" y="1331" on="0"/>
        <pt x="134" y="1383" on="0"/>
        <pt x="168" y="1418" on="0"/>
        <pt x="228" y="1436" on="0"/>
        <pt x="276" y="1436" on="1"/>
        <pt x="757" y="1436" on="1"/>
        <pt x="832" y="1436" on="0"/>
        <pt x="980" y="1415" on="0"/>
        <pt x="1114" y="1361" on="0"/>
        <pt x="1229" y="1266" on="0"/>
        <pt x="1313" y="1116" on="0"/>
        <pt x="1361" y="906" on="0"/>
        <pt x="1361" y="764" on="1"/>
        <pt x="1361" y="597" on="0"/>
        <pt x="1310" y="354" on="0"/>
        <pt x="1223" y="184" on="0"/>
        <pt x="1104" y="79" on="0"/>
        <pt x="967" y="20" on="0"/>
        <pt x="820" y="0" on="0"/>
        <pt x="747" y="0" on="1"/>
        <pt x="276" y="0" on="1"/>
        <pt x="228" y="0" on="0"/>
        <pt x="168" y="18" on="0"/>
        <pt x="134" y="52" on="0"/>
        <pt x="122" y="104" on="0"/>
        <pt x="122" y="139" on="1"/>
        <pt x="122" y="524" on="1"/>
      </contour>
      <contour>
        <pt x="868" y="139" on="1"/>
        <pt x="961" y="140" on="0"/>
        <pt x="1095" y="235" on="0"/>
        <pt x="1180" y="399" on="0"/>
        <pt x="1220" y="618" on="0"/>
        <pt x="1220" y="743" on="1"/>
        <pt x="1220" y="867" on="0"/>
        <pt x="1180" y="1071" on="0"/>
        <pt x="1094" y="1215" on="0"/>
        <pt x="961" y="1295" on="0"/>
        <pt x="868" y="1296" on="1"/>
        <pt x="868" y="668" on="1"/>
        <pt x="1027" y="668" on="1"/>
        <pt x="1048" y="668" on="0"/>
        <pt x="1048" y="647" on="1"/>
        <pt x="1048" y="546" on="1"/>
        <pt x="1048" y="524" on="0"/>
        <pt x="1027" y="524" on="1"/>
        <pt x="868" y="524" on="1"/>
      </contour>
      <contour>
        <pt x="753" y="1298" on="1"/>
        <pt x="675" y="1298" on="1"/>
        <pt x="675" y="138" on="1"/>
        <pt x="753" y="138" on="1"/>
      </contour>
    </TTGlyph>
    <TTGlyph name="E" xMin="92" yMin="0" xMax="1268" yMax="1436">
      <contour>
        <pt x="838" y="934" on="1"/>
        <pt x="838" y="123" on="1"/>
        <pt x="935" y="137" on="0"/>
        <pt x="1016" y="148" on="1"/>
        <pt x="1050" y="153" on="0"/>
        <pt x="1119" y="162" on="0"/>
        <pt x="1177" y="170" on="0"/>
        <pt x="1219" y="174" on="0"/>
        <pt x="1227" y="174" on="1"/>
        <pt x="1244" y="174" on="0"/>
        <pt x="1268" y="161" on="0"/>
        <pt x="1268" y="141" on="1"/>
        <pt x="1268" y="49" on="1"/>
        <pt x="1268" y="31" on="0"/>
        <pt x="1250" y="0" on="0"/>
        <pt x="1216" y="0" on="1"/>
        <pt x="244" y="0" on="1"/>
        <pt x="197" y="0" on="0"/>
        <pt x="138" y="18" on="0"/>
        <pt x="104" y="52" on="0"/>
        <pt x="92" y="104" on="0"/>
        <pt x="92" y="139" on="1"/>
        <pt x="92" y="1262" on="1"/>
        <pt x="92" y="1319" on="0"/>
        <pt x="118" y="1388" on="0"/>
        <pt x="166" y="1425" on="0"/>
        <pt x="233" y="1436" on="0"/>
        <pt x="274" y="1436" on="1"/>
        <pt x="1178" y="1436" on="1"/>
        <pt x="1212" y="1436" on="0"/>
        <pt x="1231" y="1405" on="0"/>
        <pt x="1231" y="1386" on="1"/>
        <pt x="1231" y="1315" on="1"/>
        <pt x="1231" y="1295" on="0"/>
        <pt x="1210" y="1282" on="0"/>
        <pt x="1193" y="1282" on="1"/>
        <pt x="1183" y="1282" on="0"/>
        <pt x="1142" y="1286" on="0"/>
        <pt x="1088" y="1293" on="0"/>
        <pt x="1026" y="1301" on="0"/>
        <pt x="995" y="1306" on="1"/>
        <pt x="923" y="1317" on="0"/>
        <pt x="838" y="1331" on="1"/>
        <pt x="838" y="1077" on="1"/>
        <pt x="1210" y="1077" on="1"/>
        <pt x="1231" y="1077" on="0"/>
        <pt x="1231" y="1056" on="1"/>
        <pt x="1231" y="956" on="1"/>
        <pt x="1231" y="934" on="0"/>
        <pt x="1210" y="934" on="1"/>
      </contour>
      <contour>
        <pt x="753" y="1345" on="1"/>
        <pt x="675" y="1356" on="1"/>
        <pt x="675" y="101" on="1"/>
        <pt x="753" y="111" on="1"/>
      </contour>
    </TTGlyph>
    <TTGlyph name="Eacute" xMin="92" yMin="0" xMax="1268" yMax="1939">
      <component glyphName="E" x="0" y="0" flags="0x204"/>
      <component glyphName="acute" x="254" y="369" flags="0x4"/>
    </TTGlyph>
    <TTGlyph name="Ebreve" xMin="92" yMin="0" xMax="1268" yMax="1861">
      <component glyphName="E" x="0" y="0" flags="0x204"/>
      <component glyphName="breve" x="254" y="369" flags="0x4"/>
    </TTGlyph>
    <TTGlyph name="Ecaron" xMin="92" yMin="0" xMax="1268" yMax="1919">
      <component glyphName="E" x="0" y="0" flags="0x204"/>
      <component glyphName="caron" x="254" y="369" flags="0x4"/>
    </TTGlyph>
    <TTGlyph name="Ecircumflex" xMin="92" yMin="0" xMax="1268" yMax="1919">
      <component glyphName="E" x="0" y="0" flags="0x204"/>
      <component glyphName="circumflex" x="254" y="369" flags="0x4"/>
    </TTGlyph>
    <TTGlyph name="Edieresis" xMin="92" yMin="0" xMax="1268" yMax="1830">
      <component glyphName="E" x="0" y="0" flags="0x204"/>
      <component glyphName="dieresis" x="254" y="369" flags="0x4"/>
    </TTGlyph>
    <TTGlyph name="Edotaccent" xMin="92" yMin="0" xMax="1268" yMax="1847">
      <component glyphName="E" x="0" y="0" flags="0x204"/>
      <component glyphName="dotaccent" x="254" y="369" flags="0x4"/>
    </TTGlyph>
    <TTGlyph name="Egrave" xMin="92" yMin="0" xMax="1268" yMax="1939">
      <component glyphName="E" x="0" y="0" flags="0x204"/>
      <component glyphName="grave" x="254" y="369" flags="0x4"/>
    </TTGlyph>
    <TTGlyph name="Emacron" xMin="92" yMin="0" xMax="1268" yMax="1799">
      <component glyphName="E" x="0" y="0" flags="0x204"/>
      <component glyphName="macron" x="254" y="369" flags="0x4"/>
    </TTGlyph>
    <TTGlyph name="Eng" xMin="92" yMin="-512" xMax="1288" yMax="1436">
      <contour>
        <pt x="690" y="-330" on="1"/>
        <pt x="690" y="-317" on="0"/>
        <pt x="698" y="-310" on="0"/>
        <pt x="704" y="-310" on="1"/>
        <pt x="710" y="-310" on="0"/>
        <pt x="745" y="-320" on="0"/>
        <pt x="796" y="-331" on="0"/>
        <pt x="861" y="-341" on="0"/>
        <pt x="896" y="-341" on="1"/>
        <pt x="935" y="-341" on="0"/>
        <pt x="999" y="-319" on="0"/>
        <pt x="1046" y="-269" on="0"/>
        <pt x="1071" y="-191" on="0"/>
        <pt x="1071" y="-134" on="1"/>
        <pt x="1071" y="-42" on="1"/>
        <pt x="257" y="691" on="1"/>
        <pt x="269" y="530" on="0"/>
        <pt x="280" y="396" on="1"/>
        <pt x="284" y="339" on="0"/>
        <pt x="293" y="226" on="0"/>
        <pt x="301" y="130" on="0"/>
        <pt x="306" y="60" on="0"/>
        <pt x="307" y="47" on="1"/>
        <pt x="309" y="30" on="0"/>
        <pt x="294" y="0" on="0"/>
        <pt x="267" y="0" on="1"/>
        <pt x="141" y="0" on="1"/>
        <pt x="123" y="0" on="0"/>
        <pt x="92" y="23" on="0"/>
        <pt x="92" y="57" on="1"/>
        <pt x="92" y="1362" on="1"/>
        <pt x="92" y="1436" on="0"/>
        <pt x="174" y="1436" on="1"/>
        <pt x="512" y="1436" on="1"/>
        <pt x="550" y="1436" on="0"/>
        <pt x="601" y="1404" on="0"/>
        <pt x="627" y="1378" on="1"/>
        <pt x="1114" y="895" on="1"/>
        <pt x="1104" y="1014" on="0"/>
        <pt x="1096" y="1115" on="1"/>
        <pt x="1092" y="1158" on="0"/>
        <pt x="1085" y="1244" on="0"/>
        <pt x="1079" y="1319" on="0"/>
        <pt x="1074" y="1375" on="0"/>
        <pt x="1073" y="1389" on="1"/>
        <pt x="1071" y="1405" on="0"/>
        <pt x="1088" y="1436" on="0"/>
        <pt x="1119" y="1436" on="1"/>
        <pt x="1239" y="1436" on="1"/>
        <pt x="1258" y="1436" on="0"/>
        <pt x="1288" y="1412" on="0"/>
        <pt x="1288" y="1378" on="1"/>
        <pt x="1288" y="-96" on="1"/>
        <pt x="1288" y="-187" on="0"/>
        <pt x="1256" y="-320" on="0"/>
        <pt x="1202" y="-413" on="0"/>
        <pt x="1132" y="-470" on="0"/>
        <pt x="1055" y="-501" on="0"/>
        <pt x="977" y="-512" on="0"/>
        <pt x="942" y="-512" on="1"/>
        <pt x="910" y="-512" on="0"/>
        <pt x="852" y="-505" on="0"/>
        <pt x="796" y="-490" on="0"/>
        <pt x="739" y="-467" on="0"/>
        <pt x="708" y="-451" on="1"/>
        <pt x="703" y="-449" on="0"/>
        <pt x="690" y="-434" on="0"/>
        <pt x="690" y="-417" on="1"/>
      </contour>
      <contour>
        <pt x="558" y="1325" on="1"/>
        <pt x="540" y="1343" on="0"/>
        <pt x="517" y="1352" on="0"/>
        <pt x="497" y="1352" on="1"/>
        <pt x="426" y="1352" on="1"/>
        <pt x="1114" y="668" on="1"/>
        <pt x="1114" y="774" on="1"/>
      </contour>
    </TTGlyph>
    <TTGlyph name="Eogonek" xMin="92" yMin="-501" xMax="1278" yMax="1436">
      <contour>
        <pt x="838" y="934" on="1"/>
        <pt x="838" y="123" on="1"/>
        <pt x="935" y="137" on="0"/>
        <pt x="1016" y="148" on="1"/>
        <pt x="1050" y="153" on="0"/>
        <pt x="1119" y="162" on="0"/>
        <pt x="1177" y="170" on="0"/>
        <pt x="1219" y="174" on="0"/>
        <pt x="1227" y="174" on="1"/>
        <pt x="1244" y="174" on="0"/>
        <pt x="1268" y="161" on="0"/>
        <pt x="1268" y="141" on="1"/>
        <pt x="1268" y="49" on="1"/>
        <pt x="1268" y="31" on="0"/>
        <pt x="1248" y="12" on="0"/>
        <pt x="1216" y="0" on="1"/>
        <pt x="1163" y="-20" on="0"/>
        <pt x="1056" y="-81" on="0"/>
        <pt x="970" y="-150" on="0"/>
        <pt x="916" y="-222" on="0"/>
        <pt x="916" y="-253" on="1"/>
        <pt x="916" y="-274" on="0"/>
        <pt x="931" y="-309" on="0"/>
        <pt x="966" y="-335" on="0"/>
        <pt x="1024" y="-349" on="0"/>
        <pt x="1068" y="-349" on="1"/>
        <pt x="1116" y="-349" on="0"/>
        <pt x="1181" y="-339" on="0"/>
        <pt x="1224" y="-327" on="0"/>
        <pt x="1252" y="-317" on="0"/>
        <pt x="1263" y="-317" on="1"/>
        <pt x="1268" y="-317" on="0"/>
        <pt x="1278" y="-324" on="0"/>
        <pt x="1278" y="-334" on="1"/>
        <pt x="1278" y="-430" on="1"/>
        <pt x="1278" y="-448" on="0"/>
        <pt x="1256" y="-463" on="0"/>
        <pt x="1237" y="-471" on="1"/>
        <pt x="1217" y="-479" on="0"/>
        <pt x="1165" y="-491" on="0"/>
        <pt x="1109" y="-498" on="0"/>
        <pt x="1055" y="-501" on="0"/>
        <pt x="1033" y="-501" on="1"/>
        <pt x="978" y="-501" on="0"/>
        <pt x="871" y="-479" on="0"/>
        <pt x="787" y="-427" on="0"/>
        <pt x="735" y="-341" on="0"/>
        <pt x="735" y="-277" on="1"/>
        <pt x="735" y="-240" on="0"/>
        <pt x="768" y="-164" on="0"/>
        <pt x="830" y="-92" on="0"/>
        <pt x="920" y="-27" on="0"/>
        <pt x="977" y="0" on="1"/>
        <pt x="244" y="0" on="1"/>
        <pt x="197" y="0" on="0"/>
        <pt x="138" y="18" on="0"/>
        <pt x="104" y="52" on="0"/>
        <pt x="92" y="104" on="0"/>
        <pt x="92" y="139" on="1"/>
        <pt x="92" y="1262" on="1"/>
        <pt x="92" y="1319" on="0"/>
        <pt x="118" y="1388" on="0"/>
        <pt x="166" y="1425" on="0"/>
        <pt x="233" y="1436" on="0"/>
        <pt x="274" y="1436" on="1"/>
        <pt x="1178" y="1436" on="1"/>
        <pt x="1212" y="1436" on="0"/>
        <pt x="1231" y="1405" on="0"/>
        <pt x="1231" y="1386" on="1"/>
        <pt x="1231" y="1315" on="1"/>
        <pt x="1231" y="1295" on="0"/>
        <pt x="1210" y="1282" on="0"/>
        <pt x="1193" y="1282" on="1"/>
        <pt x="1183" y="1282" on="0"/>
        <pt x="1142" y="1286" on="0"/>
        <pt x="1088" y="1293" on="0"/>
        <pt x="1026" y="1301" on="0"/>
        <pt x="995" y="1306" on="1"/>
        <pt x="923" y="1317" on="0"/>
        <pt x="838" y="1331" on="1"/>
        <pt x="838" y="1077" on="1"/>
        <pt x="1210" y="1077" on="1"/>
        <pt x="1231" y="1077" on="0"/>
        <pt x="1231" y="1056" on="1"/>
        <pt x="1231" y="956" on="1"/>
        <pt x="1231" y="934" on="0"/>
        <pt x="1210" y="934" on="1"/>
      </contour>
      <contour>
        <pt x="753" y="1345" on="1"/>
        <pt x="675" y="1356" on="1"/>
        <pt x="675" y="101" on="1"/>
        <pt x="753" y="111" on="1"/>
      </contour>
    </TTGlyph>
    <TTGlyph name="Eth" xMin="0" yMin="0" xMax="1361" yMax="1436">
      <contour>
        <pt x="21" y="524" on="1"/>
        <pt x="0" y="524" on="0"/>
        <pt x="0" y="546" on="1"/>
        <pt x="0" y="647" on="1"/>
        <pt x="0" y="668" on="0"/>
        <pt x="21" y="668" on="1"/>
        <pt x="122" y="668" on="1"/>
        <pt x="122" y="1296" on="1"/>
        <pt x="122" y="1331" on="0"/>
        <pt x="134" y="1383" on="0"/>
        <pt x="168" y="1418" on="0"/>
        <pt x="228" y="1436" on="0"/>
        <pt x="276" y="1436" on="1"/>
        <pt x="757" y="1436" on="1"/>
        <pt x="832" y="1436" on="0"/>
        <pt x="980" y="1415" on="0"/>
        <pt x="1114" y="1361" on="0"/>
        <pt x="1229" y="1266" on="0"/>
        <pt x="1313" y="1116" on="0"/>
        <pt x="1361" y="906" on="0"/>
        <pt x="1361" y="764" on="1"/>
        <pt x="1361" y="597" on="0"/>
        <pt x="1310" y="354" on="0"/>
        <pt x="1223" y="184" on="0"/>
        <pt x="1104" y="79" on="0"/>
        <pt x="967" y="20" on="0"/>
        <pt x="820" y="0" on="0"/>
        <pt x="747" y="0" on="1"/>
        <pt x="276" y="0" on="1"/>
        <pt x="228" y="0" on="0"/>
        <pt x="168" y="18" on="0"/>
        <pt x="134" y="52" on="0"/>
        <pt x="122" y="104" on="0"/>
        <pt x="122" y="139" on="1"/>
        <pt x="122" y="524" on="1"/>
      </contour>
      <contour>
        <pt x="868" y="139" on="1"/>
        <pt x="961" y="140" on="0"/>
        <pt x="1095" y="235" on="0"/>
        <pt x="1180" y="399" on="0"/>
        <pt x="1220" y="618" on="0"/>
        <pt x="1220" y="743" on="1"/>
        <pt x="1220" y="867" on="0"/>
        <pt x="1180" y="1071" on="0"/>
        <pt x="1094" y="1215" on="0"/>
        <pt x="961" y="1295" on="0"/>
        <pt x="868" y="1296" on="1"/>
        <pt x="868" y="668" on="1"/>
        <pt x="1027" y="668" on="1"/>
        <pt x="1048" y="668" on="0"/>
        <pt x="1048" y="647" on="1"/>
        <pt x="1048" y="546" on="1"/>
        <pt x="1048" y="524" on="0"/>
        <pt x="1027" y="524" on="1"/>
        <pt x="868" y="524" on="1"/>
      </contour>
      <contour>
        <pt x="753" y="1298" on="1"/>
        <pt x="675" y="1298" on="1"/>
        <pt x="675" y="138" on="1"/>
        <pt x="753" y="138" on="1"/>
      </contour>
    </TTGlyph>
    <TTGlyph name="Euro" xMin="31" yMin="-39" xMax="1233" yMax="1264">
      <contour>
        <pt x="58" y="460" on="1"/>
        <pt x="46" y="460" on="0"/>
        <pt x="31" y="473" on="0"/>
        <pt x="35" y="486" on="1"/>
        <pt x="55" y="559" on="1"/>
        <pt x="57" y="566" on="0"/>
        <pt x="69" y="582" on="0"/>
        <pt x="82" y="582" on="1"/>
        <pt x="139" y="582" on="1"/>
        <pt x="139" y="613" on="1"/>
        <pt x="139" y="626" on="0"/>
        <pt x="139" y="651" on="0"/>
        <pt x="140" y="664" on="1"/>
        <pt x="58" y="664" on="1"/>
        <pt x="46" y="664" on="0"/>
        <pt x="31" y="677" on="0"/>
        <pt x="35" y="690" on="1"/>
        <pt x="55" y="763" on="1"/>
        <pt x="57" y="770" on="0"/>
        <pt x="69" y="786" on="0"/>
        <pt x="82" y="786" on="1"/>
        <pt x="155" y="786" on="1"/>
        <pt x="182" y="921" on="0"/>
        <pt x="310" y="1104" on="0"/>
        <pt x="481" y="1216" on="0"/>
        <pt x="677" y="1264" on="0"/>
        <pt x="770" y="1264" on="1"/>
        <pt x="849" y="1264" on="0"/>
        <pt x="985" y="1239" on="0"/>
        <pt x="1099" y="1198" on="0"/>
        <pt x="1189" y="1149" on="0"/>
        <pt x="1221" y="1125" on="1"/>
        <pt x="1225" y="1122" on="0"/>
        <pt x="1233" y="1114" on="0"/>
        <pt x="1233" y="1107" on="1"/>
        <pt x="1233" y="1100" on="0"/>
        <pt x="1228" y="1093" on="1"/>
        <pt x="1193" y="1039" on="1"/>
        <pt x="1188" y="1031" on="0"/>
        <pt x="1181" y="1025" on="0"/>
        <pt x="1172" y="1025" on="1"/>
        <pt x="1166" y="1025" on="0"/>
        <pt x="1146" y="1037" on="0"/>
        <pt x="1116" y="1052" on="0"/>
        <pt x="1076" y="1065" on="0"/>
        <pt x="1051" y="1065" on="1"/>
        <pt x="1024" y="1065" on="0"/>
        <pt x="962" y="1042" on="0"/>
        <pt x="905" y="980" on="0"/>
        <pt x="858" y="871" on="0"/>
        <pt x="845" y="786" on="1"/>
        <pt x="1074" y="786" on="1"/>
        <pt x="1086" y="786" on="0"/>
        <pt x="1101" y="773" on="0"/>
        <pt x="1097" y="760" on="1"/>
        <pt x="1077" y="687" on="1"/>
        <pt x="1075" y="680" on="0"/>
        <pt x="1063" y="664" on="0"/>
        <pt x="1050" y="664" on="1"/>
        <pt x="835" y="664" on="1"/>
        <pt x="834" y="651" on="0"/>
        <pt x="834" y="626" on="0"/>
        <pt x="834" y="612" on="1"/>
        <pt x="834" y="582" on="1"/>
        <pt x="1017" y="582" on="1"/>
        <pt x="1029" y="582" on="0"/>
        <pt x="1044" y="569" on="0"/>
        <pt x="1040" y="556" on="1"/>
        <pt x="1020" y="483" on="1"/>
        <pt x="1018" y="476" on="0"/>
        <pt x="1006" y="460" on="0"/>
        <pt x="993" y="460" on="1"/>
        <pt x="842" y="460" on="1"/>
        <pt x="853" y="368" on="0"/>
        <pt x="900" y="251" on="0"/>
        <pt x="959" y="185" on="0"/>
        <pt x="1023" y="160" on="0"/>
        <pt x="1051" y="160" on="1"/>
        <pt x="1076" y="160" on="0"/>
        <pt x="1116" y="172" on="0"/>
        <pt x="1146" y="187" on="0"/>
        <pt x="1166" y="200" on="0"/>
        <pt x="1172" y="200" on="1"/>
        <pt x="1181" y="200" on="0"/>
        <pt x="1188" y="194" on="0"/>
        <pt x="1193" y="186" on="1"/>
        <pt x="1228" y="132" on="1"/>
        <pt x="1233" y="124" on="0"/>
        <pt x="1233" y="118" on="1"/>
        <pt x="1233" y="111" on="0"/>
        <pt x="1225" y="103" on="0"/>
        <pt x="1221" y="100" on="1"/>
        <pt x="1189" y="76" on="0"/>
        <pt x="1099" y="27" on="0"/>
        <pt x="985" y="-14" on="0"/>
        <pt x="849" y="-39" on="0"/>
        <pt x="770" y="-39" on="1"/>
        <pt x="675" y="-39" on="0"/>
        <pt x="476" y="11" on="0"/>
        <pt x="303" y="127" on="0"/>
        <pt x="175" y="319" on="0"/>
        <pt x="151" y="460" on="1"/>
      </contour>
      <contour>
        <pt x="966" y="120" on="1"/>
        <pt x="937" y="127" on="0"/>
        <pt x="862" y="177" on="0"/>
        <pt x="795" y="286" on="0"/>
        <pt x="749" y="470" on="0"/>
        <pt x="749" y="612" on="1"/>
        <pt x="749" y="706" on="0"/>
        <pt x="770" y="850" on="0"/>
        <pt x="806" y="956" on="0"/>
        <pt x="851" y="1029" on="0"/>
        <pt x="899" y="1075" on="0"/>
        <pt x="946" y="1100" on="0"/>
        <pt x="966" y="1105" on="1"/>
        <pt x="918" y="1105" on="0"/>
        <pt x="812" y="1059" on="0"/>
        <pt x="723" y="946" on="0"/>
        <pt x="665" y="756" on="0"/>
        <pt x="665" y="612" on="1"/>
        <pt x="665" y="467" on="0"/>
        <pt x="723" y="277" on="0"/>
        <pt x="812" y="165" on="0"/>
        <pt x="918" y="120" on="0"/>
      </contour>
    </TTGlyph>
    <TTGlyph name="F" xMin="92" yMin="0" xMax="1251" yMax="1436">
      <contour>
        <pt x="836" y="150" on="1"/>
        <pt x="836" y="127" on="0"/>
        <pt x="825" y="75" on="0"/>
        <pt x="792" y="30" on="0"/>
        <pt x="732" y="0" on="0"/>
        <pt x="684" y="0" on="1"/>
        <pt x="244" y="0" on="1"/>
        <pt x="197" y="0" on="0"/>
        <pt x="138" y="18" on="0"/>
        <pt x="104" y="52" on="0"/>
        <pt x="92" y="104" on="0"/>
        <pt x="92" y="139" on="1"/>
        <pt x="92" y="1262" on="1"/>
        <pt x="92" y="1319" on="0"/>
        <pt x="118" y="1388" on="0"/>
        <pt x="166" y="1425" on="0"/>
        <pt x="233" y="1436" on="0"/>
        <pt x="274" y="1436" on="1"/>
        <pt x="1203" y="1436" on="1"/>
        <pt x="1251" y="1436" on="0"/>
        <pt x="1251" y="1386" on="1"/>
        <pt x="1251" y="1294" on="1"/>
        <pt x="1251" y="1274" on="0"/>
        <pt x="1227" y="1262" on="0"/>
        <pt x="1210" y="1262" on="1"/>
        <pt x="1200" y="1262" on="0"/>
        <pt x="1158" y="1268" on="0"/>
        <pt x="1102" y="1277" on="0"/>
        <pt x="1037" y="1290" on="0"/>
        <pt x="1004" y="1296" on="1"/>
        <pt x="927" y="1311" on="0"/>
        <pt x="836" y="1331" on="1"/>
        <pt x="836" y="1077" on="1"/>
        <pt x="1208" y="1077" on="1"/>
        <pt x="1229" y="1077" on="0"/>
        <pt x="1229" y="1056" on="1"/>
        <pt x="1229" y="956" on="1"/>
        <pt x="1229" y="934" on="0"/>
        <pt x="1208" y="934" on="1"/>
        <pt x="836" y="934" on="1"/>
      </contour>
      <contour>
        <pt x="751" y="1346" on="1"/>
        <pt x="673" y="1362" on="1"/>
        <pt x="673" y="84" on="1"/>
        <pt x="697" y="84" on="0"/>
        <pt x="727" y="87" on="0"/>
        <pt x="745" y="100" on="0"/>
        <pt x="751" y="125" on="0"/>
        <pt x="751" y="148" on="1"/>
      </contour>
    </TTGlyph>
    <TTGlyph name="G" xMin="61" yMin="-39" xMax="1284" yMax="1483">
      <contour>
        <pt x="1034" y="1284" on="1"/>
        <pt x="1012" y="1284" on="0"/>
        <pt x="963" y="1270" on="0"/>
        <pt x="915" y="1230" on="0"/>
        <pt x="870" y="1159" on="0"/>
        <pt x="837" y="1043" on="0"/>
        <pt x="817" y="878" on="0"/>
        <pt x="817" y="764" on="1"/>
        <pt x="817" y="651" on="0"/>
        <pt x="837" y="483" on="0"/>
        <pt x="870" y="363" on="0"/>
        <pt x="915" y="286" on="0"/>
        <pt x="963" y="242" on="0"/>
        <pt x="1012" y="225" on="0"/>
        <pt x="1034" y="225" on="1"/>
        <pt x="1064" y="225" on="0"/>
        <pt x="1090" y="238" on="1"/>
        <pt x="1090" y="621" on="1"/>
        <pt x="1090" y="637" on="0"/>
        <pt x="1104" y="668" on="0"/>
        <pt x="1130" y="668" on="1"/>
        <pt x="1235" y="668" on="1"/>
        <pt x="1244" y="668" on="0"/>
        <pt x="1262" y="666" on="0"/>
        <pt x="1276" y="657" on="0"/>
        <pt x="1284" y="638" on="0"/>
        <pt x="1284" y="621" on="1"/>
        <pt x="1284" y="47" on="1"/>
        <pt x="1284" y="30" on="0"/>
        <pt x="1276" y="11" on="0"/>
        <pt x="1262" y="2" on="0"/>
        <pt x="1244" y="0" on="0"/>
        <pt x="1235" y="0" on="1"/>
        <pt x="1130" y="0" on="1"/>
        <pt x="1117" y="0" on="0"/>
        <pt x="1102" y="8" on="0"/>
        <pt x="1093" y="22" on="0"/>
        <pt x="1090" y="39" on="0"/>
        <pt x="1090" y="47" on="1"/>
        <pt x="1090" y="76" on="1"/>
        <pt x="1058" y="53" on="0"/>
        <pt x="980" y="11" on="0"/>
        <pt x="887" y="-21" on="0"/>
        <pt x="779" y="-39" on="0"/>
        <pt x="717" y="-39" on="1"/>
        <pt x="644" y="-39" on="0"/>
        <pt x="490" y="-13" on="0"/>
        <pt x="345" y="54" on="0"/>
        <pt x="215" y="170" on="0"/>
        <pt x="118" y="348" on="0"/>
        <pt x="61" y="597" on="0"/>
        <pt x="61" y="764" on="1"/>
        <pt x="61" y="906" on="0"/>
        <pt x="118" y="1123" on="0"/>
        <pt x="216" y="1283" on="0"/>
        <pt x="347" y="1391" on="0"/>
        <pt x="495" y="1456" on="0"/>
        <pt x="652" y="1483" on="0"/>
        <pt x="727" y="1483" on="1"/>
        <pt x="809" y="1483" on="0"/>
        <pt x="957" y="1457" on="0"/>
        <pt x="1080" y="1417" on="0"/>
        <pt x="1176" y="1367" on="0"/>
        <pt x="1207" y="1343" on="1"/>
        <pt x="1210" y="1340" on="0"/>
        <pt x="1218" y="1333" on="0"/>
        <pt x="1218" y="1328" on="1"/>
        <pt x="1218" y="1324" on="0"/>
        <pt x="1215" y="1318" on="1"/>
        <pt x="1172" y="1250" on="1"/>
        <pt x="1166" y="1241" on="0"/>
        <pt x="1158" y="1241" on="1"/>
        <pt x="1152" y="1241" on="0"/>
        <pt x="1131" y="1254" on="0"/>
        <pt x="1099" y="1271" on="0"/>
        <pt x="1059" y="1284" on="0"/>
      </contour>
      <contour>
        <pt x="648" y="764" on="1"/>
        <pt x="648" y="649" on="0"/>
        <pt x="671" y="476" on="0"/>
        <pt x="712" y="349" on="0"/>
        <pt x="767" y="264" on="0"/>
        <pt x="830" y="209" on="0"/>
        <pt x="897" y="179" on="0"/>
        <pt x="930" y="171" on="1"/>
        <pt x="919" y="177" on="0"/>
        <pt x="881" y="204" on="0"/>
        <pt x="836" y="256" on="0"/>
        <pt x="791" y="340" on="0"/>
        <pt x="754" y="467" on="0"/>
        <pt x="731" y="644" on="0"/>
        <pt x="731" y="764" on="1"/>
        <pt x="731" y="883" on="0"/>
        <pt x="754" y="1058" on="0"/>
        <pt x="791" y="1181" on="0"/>
        <pt x="836" y="1259" on="0"/>
        <pt x="881" y="1307" on="0"/>
        <pt x="919" y="1330" on="0"/>
        <pt x="930" y="1337" on="1"/>
        <pt x="897" y="1329" on="0"/>
        <pt x="830" y="1302" on="0"/>
        <pt x="767" y="1251" on="0"/>
        <pt x="712" y="1171" on="0"/>
        <pt x="671" y="1049" on="0"/>
        <pt x="648" y="879" on="0"/>
      </contour>
    </TTGlyph>
    <TTGlyph name="Gbreve" xMin="61" yMin="-39" xMax="1284" yMax="1902">
      <component glyphName="G" x="0" y="0" flags="0x204"/>
      <component glyphName="breve" x="301" y="410" flags="0x4"/>
    </TTGlyph>
    <TTGlyph name="Gcircumflex" xMin="61" yMin="-39" xMax="1284" yMax="1960">
      <component glyphName="G" x="0" y="0" flags="0x204"/>
      <component glyphName="circumflex" x="301" y="410" flags="0x4"/>
    </TTGlyph>
    <TTGlyph name="Gcommaaccent" xMin="61" yMin="-512" xMax="1284" yMax="1483">
      <component glyphName="G" x="0" y="0" flags="0x204"/>
      <component glyphName="commaaccent" x="278" y="0" flags="0x4"/>
    </TTGlyph>
    <TTGlyph name="Gdotaccent" xMin="61" yMin="-39" xMax="1284" yMax="1888">
      <component glyphName="G" x="0" y="0" flags="0x204"/>
      <component glyphName="dotaccent" x="301" y="410" flags="0x4"/>
    </TTGlyph>
    <TTGlyph name="H" xMin="92" yMin="0" xMax="1319" yMax="1436">
      <contour>
        <pt x="1008" y="524" on="1"/>
        <pt x="838" y="524" on="1"/>
        <pt x="838" y="162" on="1"/>
        <pt x="838" y="139" on="0"/>
        <pt x="830" y="83" on="0"/>
        <pt x="798" y="34" on="0"/>
        <pt x="732" y="0" on="0"/>
        <pt x="674" y="0" on="1"/>
        <pt x="246" y="0" on="1"/>
        <pt x="198" y="0" on="0"/>
        <pt x="138" y="18" on="0"/>
        <pt x="104" y="52" on="0"/>
        <pt x="92" y="104" on="0"/>
        <pt x="92" y="139" on="1"/>
        <pt x="92" y="1296" on="1"/>
        <pt x="92" y="1331" on="0"/>
        <pt x="104" y="1383" on="0"/>
        <pt x="138" y="1418" on="0"/>
        <pt x="198" y="1436" on="0"/>
        <pt x="246" y="1436" on="1"/>
        <pt x="692" y="1436" on="1"/>
        <pt x="750" y="1436" on="0"/>
        <pt x="811" y="1402" on="0"/>
        <pt x="836" y="1351" on="0"/>
        <pt x="838" y="1294" on="0"/>
        <pt x="838" y="1270" on="1"/>
        <pt x="838" y="668" on="1"/>
        <pt x="1008" y="668" on="1"/>
        <pt x="1008" y="1389" on="1"/>
        <pt x="1008" y="1406" on="0"/>
        <pt x="1026" y="1436" on="0"/>
        <pt x="1052" y="1436" on="1"/>
        <pt x="1156" y="1436" on="1"/>
        <pt x="1165" y="1436" on="0"/>
        <pt x="1182" y="1434" on="0"/>
        <pt x="1195" y="1425" on="0"/>
        <pt x="1202" y="1406" on="0"/>
        <pt x="1202" y="1389" on="1"/>
        <pt x="1202" y="668" on="1"/>
        <pt x="1298" y="668" on="1"/>
        <pt x="1319" y="668" on="0"/>
        <pt x="1319" y="647" on="1"/>
        <pt x="1319" y="546" on="1"/>
        <pt x="1319" y="524" on="0"/>
        <pt x="1298" y="524" on="1"/>
        <pt x="1202" y="524" on="1"/>
        <pt x="1202" y="47" on="1"/>
        <pt x="1202" y="30" on="0"/>
        <pt x="1195" y="11" on="0"/>
        <pt x="1182" y="2" on="0"/>
        <pt x="1165" y="0" on="0"/>
        <pt x="1156" y="0" on="1"/>
        <pt x="1049" y="0" on="1"/>
        <pt x="1023" y="0" on="0"/>
        <pt x="1008" y="30" on="0"/>
        <pt x="1008" y="47" on="1"/>
      </contour>
      <contour>
        <pt x="753" y="1288" on="1"/>
        <pt x="753" y="1310" on="0"/>
        <pt x="747" y="1336" on="0"/>
        <pt x="729" y="1349" on="0"/>
        <pt x="699" y="1352" on="0"/>
        <pt x="675" y="1352" on="1"/>
        <pt x="675" y="84" on="1"/>
        <pt x="699" y="84" on="0"/>
        <pt x="729" y="87" on="0"/>
        <pt x="747" y="100" on="0"/>
        <pt x="753" y="125" on="0"/>
        <pt x="753" y="148" on="1"/>
      </contour>
    </TTGlyph>
    <TTGlyph name="Hbar" xMin="-10" yMin="0" xMax="1324" yMax="1436">
      <contour>
        <pt x="1212" y="1013" on="1"/>
        <pt x="1303" y="1013" on="1"/>
        <pt x="1324" y="1013" on="0"/>
        <pt x="1324" y="992" on="1"/>
        <pt x="1324" y="891" on="1"/>
        <pt x="1324" y="869" on="0"/>
        <pt x="1303" y="869" on="1"/>
        <pt x="1212" y="869" on="1"/>
        <pt x="1212" y="47" on="1"/>
        <pt x="1212" y="30" on="0"/>
        <pt x="1205" y="11" on="0"/>
        <pt x="1192" y="2" on="0"/>
        <pt x="1175" y="0" on="0"/>
        <pt x="1166" y="0" on="1"/>
        <pt x="1059" y="0" on="1"/>
        <pt x="1033" y="0" on="0"/>
        <pt x="1018" y="30" on="0"/>
        <pt x="1018" y="47" on="1"/>
        <pt x="1018" y="524" on="1"/>
        <pt x="848" y="524" on="1"/>
        <pt x="848" y="162" on="1"/>
        <pt x="848" y="139" on="0"/>
        <pt x="840" y="83" on="0"/>
        <pt x="808" y="34" on="0"/>
        <pt x="742" y="0" on="0"/>
        <pt x="684" y="0" on="1"/>
        <pt x="256" y="0" on="1"/>
        <pt x="208" y="0" on="0"/>
        <pt x="148" y="18" on="0"/>
        <pt x="114" y="52" on="0"/>
        <pt x="102" y="104" on="0"/>
        <pt x="102" y="139" on="1"/>
        <pt x="102" y="869" on="1"/>
        <pt x="11" y="869" on="1"/>
        <pt x="-10" y="869" on="0"/>
        <pt x="-10" y="891" on="1"/>
        <pt x="-10" y="992" on="1"/>
        <pt x="-10" y="1013" on="0"/>
        <pt x="11" y="1013" on="1"/>
        <pt x="102" y="1013" on="1"/>
        <pt x="102" y="1296" on="1"/>
        <pt x="102" y="1331" on="0"/>
        <pt x="114" y="1383" on="0"/>
        <pt x="148" y="1418" on="0"/>
        <pt x="208" y="1436" on="0"/>
        <pt x="256" y="1436" on="1"/>
        <pt x="702" y="1436" on="1"/>
        <pt x="760" y="1436" on="0"/>
        <pt x="821" y="1402" on="0"/>
        <pt x="846" y="1351" on="0"/>
        <pt x="848" y="1294" on="0"/>
        <pt x="848" y="1270" on="1"/>
        <pt x="848" y="1013" on="1"/>
        <pt x="1018" y="1013" on="1"/>
        <pt x="1018" y="1389" on="1"/>
        <pt x="1018" y="1406" on="0"/>
        <pt x="1036" y="1436" on="0"/>
        <pt x="1062" y="1436" on="1"/>
        <pt x="1166" y="1436" on="1"/>
        <pt x="1175" y="1436" on="0"/>
        <pt x="1192" y="1434" on="0"/>
        <pt x="1205" y="1425" on="0"/>
        <pt x="1212" y="1406" on="0"/>
        <pt x="1212" y="1389" on="1"/>
      </contour>
      <contour>
        <pt x="1018" y="668" on="1"/>
        <pt x="1018" y="869" on="1"/>
        <pt x="848" y="869" on="1"/>
        <pt x="848" y="668" on="1"/>
      </contour>
      <contour>
        <pt x="763" y="1288" on="1"/>
        <pt x="763" y="1310" on="0"/>
        <pt x="757" y="1336" on="0"/>
        <pt x="739" y="1349" on="0"/>
        <pt x="709" y="1352" on="0"/>
        <pt x="685" y="1352" on="1"/>
        <pt x="685" y="84" on="1"/>
        <pt x="709" y="84" on="0"/>
        <pt x="739" y="87" on="0"/>
        <pt x="757" y="100" on="0"/>
        <pt x="763" y="125" on="0"/>
        <pt x="763" y="148" on="1"/>
      </contour>
    </TTGlyph>
    <TTGlyph name="Hcircumflex" xMin="92" yMin="0" xMax="1319" yMax="1919">
      <component glyphName="H" x="0" y="0" flags="0x204"/>
      <component glyphName="circumflex" x="276" y="369" flags="0x4"/>
    </TTGlyph>
    <TTGlyph name="I" xMin="92" yMin="0" xMax="838" yMax="1436">
      <contour>
        <pt x="92" y="1296" on="1"/>
        <pt x="92" y="1331" on="0"/>
        <pt x="104" y="1383" on="0"/>
        <pt x="138" y="1418" on="0"/>
        <pt x="198" y="1436" on="0"/>
        <pt x="246" y="1436" on="1"/>
        <pt x="692" y="1436" on="1"/>
        <pt x="750" y="1436" on="0"/>
        <pt x="811" y="1402" on="0"/>
        <pt x="836" y="1351" on="0"/>
        <pt x="838" y="1294" on="0"/>
        <pt x="838" y="1270" on="1"/>
        <pt x="838" y="162" on="1"/>
        <pt x="838" y="139" on="0"/>
        <pt x="830" y="83" on="0"/>
        <pt x="798" y="34" on="0"/>
        <pt x="732" y="0" on="0"/>
        <pt x="674" y="0" on="1"/>
        <pt x="246" y="0" on="1"/>
        <pt x="198" y="0" on="0"/>
        <pt x="138" y="18" on="0"/>
        <pt x="104" y="52" on="0"/>
        <pt x="92" y="104" on="0"/>
        <pt x="92" y="139" on="1"/>
      </contour>
      <contour>
        <pt x="753" y="1288" on="1"/>
        <pt x="753" y="1310" on="0"/>
        <pt x="747" y="1336" on="0"/>
        <pt x="729" y="1349" on="0"/>
        <pt x="699" y="1352" on="0"/>
        <pt x="675" y="1352" on="1"/>
        <pt x="675" y="84" on="1"/>
        <pt x="699" y="84" on="0"/>
        <pt x="729" y="87" on="0"/>
        <pt x="747" y="100" on="0"/>
        <pt x="753" y="125" on="0"/>
        <pt x="753" y="148" on="1"/>
      </contour>
    </TTGlyph>
    <TTGlyph name="IJ" xMin="92" yMin="-39" xMax="1946" yMax="1436">
      <component glyphName="I" x="0" y="0" flags="0x4"/>
      <component glyphName="J" x="932" y="0" flags="0x4"/>
    </TTGlyph>
    <TTGlyph name="Iacute" xMin="92" yMin="0" xMax="838" yMax="1939">
      <component glyphName="I" x="0" y="0" flags="0x204"/>
      <component glyphName="acute" x="59" y="369" flags="0x4"/>
    </TTGlyph>
    <TTGlyph name="Ibreve" xMin="92" yMin="0" xMax="838" yMax="1861">
      <component glyphName="I" x="0" y="0" flags="0x204"/>
      <component glyphName="breve" x="59" y="369" flags="0x4"/>
    </TTGlyph>
    <TTGlyph name="Icircumflex" xMin="92" yMin="0" xMax="838" yMax="1919">
      <component glyphName="I" x="0" y="0" flags="0x204"/>
      <component glyphName="circumflex" x="59" y="369" flags="0x4"/>
    </TTGlyph>
    <TTGlyph name="Idieresis" xMin="92" yMin="0" xMax="838" yMax="1830">
      <component glyphName="I" x="0" y="0" flags="0x204"/>
      <component glyphName="dieresis" x="59" y="369" flags="0x4"/>
    </TTGlyph>
    <TTGlyph name="Idotaccent" xMin="92" yMin="0" xMax="838" yMax="1847">
      <component glyphName="I" x="0" y="0" flags="0x204"/>
      <component glyphName="dotaccent" x="59" y="369" flags="0x4"/>
    </TTGlyph>
    <TTGlyph name="Igrave" xMin="92" yMin="0" xMax="838" yMax="1939">
      <component glyphName="I" x="0" y="0" flags="0x204"/>
      <component glyphName="grave" x="59" y="369" flags="0x4"/>
    </TTGlyph>
    <TTGlyph name="Imacron" xMin="92" yMin="0" xMax="838" yMax="1799">
      <component glyphName="I" x="0" y="0" flags="0x204"/>
      <component glyphName="macron" x="59" y="369" flags="0x4"/>
    </TTGlyph>
    <TTGlyph name="Iogonek" xMin="92" yMin="-501" xMax="838" yMax="1436">
      <contour>
        <pt x="92" y="1296" on="1"/>
        <pt x="92" y="1331" on="0"/>
        <pt x="104" y="1383" on="0"/>
        <pt x="138" y="1418" on="0"/>
        <pt x="198" y="1436" on="0"/>
        <pt x="246" y="1436" on="1"/>
        <pt x="692" y="1436" on="1"/>
        <pt x="750" y="1436" on="0"/>
        <pt x="811" y="1402" on="0"/>
        <pt x="836" y="1351" on="0"/>
        <pt x="838" y="1294" on="0"/>
        <pt x="838" y="1270" on="1"/>
        <pt x="838" y="162" on="1"/>
        <pt x="838" y="139" on="0"/>
        <pt x="830" y="83" on="0"/>
        <pt x="798" y="34" on="0"/>
        <pt x="732" y="0" on="0"/>
        <pt x="674" y="0" on="1"/>
        <pt x="654" y="0" on="1"/>
        <pt x="603" y="-23" on="0"/>
        <pt x="501" y="-85" on="0"/>
        <pt x="418" y="-153" on="0"/>
        <pt x="366" y="-222" on="0"/>
        <pt x="366" y="-253" on="1"/>
        <pt x="366" y="-274" on="0"/>
        <pt x="381" y="-309" on="0"/>
        <pt x="416" y="-335" on="0"/>
        <pt x="474" y="-349" on="0"/>
        <pt x="518" y="-349" on="1"/>
        <pt x="566" y="-349" on="0"/>
        <pt x="631" y="-339" on="0"/>
        <pt x="674" y="-327" on="0"/>
        <pt x="702" y="-317" on="0"/>
        <pt x="713" y="-317" on="1"/>
        <pt x="718" y="-317" on="0"/>
        <pt x="728" y="-324" on="0"/>
        <pt x="728" y="-334" on="1"/>
        <pt x="728" y="-430" on="1"/>
        <pt x="728" y="-448" on="0"/>
        <pt x="706" y="-463" on="0"/>
        <pt x="687" y="-471" on="1"/>
        <pt x="667" y="-479" on="0"/>
        <pt x="615" y="-491" on="0"/>
        <pt x="559" y="-498" on="0"/>
        <pt x="505" y="-501" on="0"/>
        <pt x="483" y="-501" on="1"/>
        <pt x="428" y="-501" on="0"/>
        <pt x="321" y="-479" on="0"/>
        <pt x="237" y="-427" on="0"/>
        <pt x="185" y="-341" on="0"/>
        <pt x="185" y="-277" on="1"/>
        <pt x="185" y="-240" on="0"/>
        <pt x="218" y="-164" on="0"/>
        <pt x="278" y="-92" on="0"/>
        <pt x="364" y="-27" on="0"/>
        <pt x="417" y="0" on="1"/>
        <pt x="246" y="0" on="1"/>
        <pt x="198" y="0" on="0"/>
        <pt x="138" y="18" on="0"/>
        <pt x="104" y="52" on="0"/>
        <pt x="92" y="104" on="0"/>
        <pt x="92" y="139" on="1"/>
      </contour>
      <contour>
        <pt x="753" y="1288" on="1"/>
        <pt x="753" y="1310" on="0"/>
        <pt x="747" y="1336" on="0"/>
        <pt x="729" y="1349" on="0"/>
        <pt x="699" y="1352" on="0"/>
        <pt x="675" y="1352" on="1"/>
        <pt x="675" y="84" on="1"/>
        <pt x="699" y="84" on="0"/>
        <pt x="729" y="87" on="0"/>
        <pt x="747" y="100" on="0"/>
        <pt x="753" y="125" on="0"/>
        <pt x="753" y="148" on="1"/>
      </contour>
    </TTGlyph>
    <TTGlyph name="Itilde" xMin="92" yMin="0" xMax="838" yMax="1852">
      <component glyphName="I" x="0" y="0" flags="0x204"/>
      <component glyphName="tilde" x="59" y="369" flags="0x4"/>
    </TTGlyph>
    <TTGlyph name="J" xMin="20" yMin="-39" xMax="1014" yMax="1436">
      <contour>
        <pt x="20" y="137" on="1"/>
        <pt x="20" y="150" on="0"/>
        <pt x="28" y="157" on="0"/>
        <pt x="34" y="157" on="1"/>
        <pt x="46" y="157" on="0"/>
        <pt x="99" y="139" on="0"/>
        <pt x="143" y="139" on="1"/>
        <pt x="268" y="139" on="0"/>
        <pt x="268" y="294" on="1"/>
        <pt x="268" y="1297" on="1"/>
        <pt x="268" y="1320" on="0"/>
        <pt x="275" y="1369" on="0"/>
        <pt x="304" y="1410" on="0"/>
        <pt x="362" y="1436" on="0"/>
        <pt x="414" y="1436" on="1"/>
        <pt x="860" y="1436" on="1"/>
        <pt x="908" y="1436" on="0"/>
        <pt x="968" y="1418" on="0"/>
        <pt x="1002" y="1383" on="0"/>
        <pt x="1014" y="1331" on="0"/>
        <pt x="1014" y="1296" on="1"/>
        <pt x="1014" y="503" on="1"/>
        <pt x="1014" y="383" on="0"/>
        <pt x="960" y="208" on="0"/>
        <pt x="869" y="88" on="0"/>
        <pt x="749" y="14" on="0"/>
        <pt x="619" y="-26" on="0"/>
        <pt x="486" y="-39" on="0"/>
        <pt x="427" y="-39" on="1"/>
        <pt x="294" y="-39" on="0"/>
        <pt x="101" y="-4" on="0"/>
        <pt x="38" y="28" on="1"/>
        <pt x="33" y="30" on="0"/>
        <pt x="20" y="43" on="0"/>
        <pt x="20" y="60" on="1"/>
      </contour>
      <contour>
        <pt x="929" y="1288" on="1"/>
        <pt x="929" y="1310" on="0"/>
        <pt x="923" y="1336" on="0"/>
        <pt x="905" y="1349" on="0"/>
        <pt x="875" y="1352" on="0"/>
        <pt x="851" y="1352" on="1"/>
        <pt x="851" y="490" on="1"/>
        <pt x="851" y="443" on="0"/>
        <pt x="848" y="357" on="0"/>
        <pt x="837" y="272" on="0"/>
        <pt x="813" y="187" on="0"/>
        <pt x="792" y="142" on="1"/>
        <pt x="830" y="174" on="0"/>
        <pt x="882" y="249" on="0"/>
        <pt x="915" y="340" on="0"/>
        <pt x="929" y="453" on="0"/>
        <pt x="929" y="523" on="1"/>
      </contour>
    </TTGlyph>
    <TTGlyph name="Jcircumflex" xMin="20" yMin="-39" xMax="1014" yMax="1919">
      <component glyphName="J" x="0" y="0" flags="0x204"/>
      <component glyphName="circumflex" x="231" y="369" flags="0x4"/>
    </TTGlyph>
    <TTGlyph name="K" xMin="92" yMin="0" xMax="1240" yMax="1447">
      <contour>
        <pt x="92" y="1296" on="1"/>
        <pt x="92" y="1331" on="0"/>
        <pt x="104" y="1383" on="0"/>
        <pt x="138" y="1418" on="0"/>
        <pt x="198" y="1436" on="0"/>
        <pt x="246" y="1436" on="1"/>
        <pt x="692" y="1436" on="1"/>
        <pt x="744" y="1436" on="0"/>
        <pt x="802" y="1409" on="0"/>
        <pt x="831" y="1367" on="0"/>
        <pt x="838" y="1316" on="0"/>
        <pt x="838" y="1293" on="1"/>
        <pt x="838" y="1175" on="1"/>
        <pt x="1088" y="1418" on="1"/>
        <pt x="1102" y="1432" on="0"/>
        <pt x="1124" y="1447" on="0"/>
        <pt x="1135" y="1447" on="1"/>
        <pt x="1145" y="1447" on="0"/>
        <pt x="1160" y="1437" on="0"/>
        <pt x="1169" y="1428" on="1"/>
        <pt x="1225" y="1369" on="1"/>
        <pt x="1232" y="1361" on="0"/>
        <pt x="1240" y="1348" on="0"/>
        <pt x="1240" y="1340" on="1"/>
        <pt x="1240" y="1320" on="0"/>
        <pt x="1216" y="1301" on="1"/>
        <pt x="910" y="1062" on="1"/>
        <pt x="1052" y="1049" on="0"/>
        <pt x="1182" y="911" on="0"/>
        <pt x="1182" y="782" on="1"/>
        <pt x="1182" y="47" on="1"/>
        <pt x="1182" y="30" on="0"/>
        <pt x="1173" y="11" on="0"/>
        <pt x="1160" y="2" on="0"/>
        <pt x="1142" y="0" on="0"/>
        <pt x="1133" y="0" on="1"/>
        <pt x="1049" y="0" on="1"/>
        <pt x="1023" y="0" on="0"/>
        <pt x="1008" y="30" on="0"/>
        <pt x="1008" y="47" on="1"/>
        <pt x="1008" y="793" on="1"/>
        <pt x="1008" y="839" on="0"/>
        <pt x="991" y="899" on="0"/>
        <pt x="951" y="936" on="0"/>
        <pt x="886" y="953" on="0"/>
        <pt x="838" y="955" on="1"/>
        <pt x="838" y="162" on="1"/>
        <pt x="838" y="139" on="0"/>
        <pt x="830" y="83" on="0"/>
        <pt x="798" y="34" on="0"/>
        <pt x="732" y="0" on="0"/>
        <pt x="674" y="0" on="1"/>
        <pt x="246" y="0" on="1"/>
        <pt x="198" y="0" on="0"/>
        <pt x="138" y="18" on="0"/>
        <pt x="104" y="52" on="0"/>
        <pt x="92" y="104" on="0"/>
        <pt x="92" y="139" on="1"/>
      </contour>
      <contour>
        <pt x="753" y="1288" on="1"/>
        <pt x="753" y="1310" on="0"/>
        <pt x="747" y="1336" on="0"/>
        <pt x="729" y="1349" on="0"/>
        <pt x="699" y="1352" on="0"/>
        <pt x="675" y="1352" on="1"/>
        <pt x="675" y="84" on="1"/>
        <pt x="699" y="84" on="0"/>
        <pt x="729" y="87" on="0"/>
        <pt x="747" y="100" on="0"/>
        <pt x="753" y="125" on="0"/>
        <pt x="753" y="148" on="1"/>
      </contour>
    </TTGlyph>
    <TTGlyph name="Kcommaaccent" xMin="92" yMin="-512" xMax="1240" yMax="1447">
      <component glyphName="K" x="0" y="0" flags="0x4"/>
      <component glyphName="commaaccent" x="264" y="0" flags="0x4"/>
    </TTGlyph>
    <TTGlyph name="L" xMin="92" yMin="0" xMax="1165" yMax="1436">
      <contour>
        <pt x="92" y="1296" on="1"/>
        <pt x="92" y="1331" on="0"/>
        <pt x="104" y="1383" on="0"/>
        <pt x="138" y="1418" on="0"/>
        <pt x="198" y="1436" on="0"/>
        <pt x="246" y="1436" on="1"/>
        <pt x="692" y="1436" on="1"/>
        <pt x="750" y="1436" on="0"/>
        <pt x="811" y="1402" on="0"/>
        <pt x="836" y="1351" on="0"/>
        <pt x="838" y="1294" on="0"/>
        <pt x="838" y="1270" on="1"/>
        <pt x="838" y="137" on="1"/>
        <pt x="907" y="147" on="0"/>
        <pt x="966" y="155" on="1"/>
        <pt x="991" y="158" on="0"/>
        <pt x="1042" y="165" on="0"/>
        <pt x="1085" y="171" on="0"/>
        <pt x="1119" y="174" on="0"/>
        <pt x="1127" y="174" on="1"/>
        <pt x="1144" y="174" on="0"/>
        <pt x="1165" y="161" on="0"/>
        <pt x="1165" y="141" on="1"/>
        <pt x="1165" y="49" on="1"/>
        <pt x="1165" y="31" on="0"/>
        <pt x="1134" y="0" on="0"/>
        <pt x="1100" y="0" on="1"/>
        <pt x="244" y="0" on="1"/>
        <pt x="197" y="0" on="0"/>
        <pt x="138" y="18" on="0"/>
        <pt x="104" y="52" on="0"/>
        <pt x="92" y="104" on="0"/>
        <pt x="92" y="139" on="1"/>
      </contour>
      <contour>
        <pt x="753" y="1288" on="1"/>
        <pt x="753" y="1310" on="0"/>
        <pt x="747" y="1336" on="0"/>
        <pt x="729" y="1349" on="0"/>
        <pt x="699" y="1352" on="0"/>
        <pt x="675" y="1352" on="1"/>
        <pt x="675" y="114" on="1"/>
        <pt x="753" y="126" on="1"/>
      </contour>
    </TTGlyph>
    <TTGlyph name="Lacute" xMin="92" yMin="0" xMax="1165" yMax="1939">
      <component glyphName="L" x="0" y="0" flags="0x204"/>
      <component glyphName="acute" x="59" y="369" flags="0x4"/>
    </TTGlyph>
    <TTGlyph name="Lcaron" xMin="92" yMin="0" xMax="1206" yMax="1483">
      <component glyphName="L" x="0" y="0" flags="0x4"/>
      <component glyphName="uni0315" x="925" y="0" flags="0x4"/>
    </TTGlyph>
    <TTGlyph name="Lcommaaccent" xMin="92" yMin="-512" xMax="1165" yMax="1436">
      <component glyphName="L" x="0" y="0" flags="0x204"/>
      <component glyphName="commaaccent" x="193" y="0" flags="0x4"/>
    </TTGlyph>
    <TTGlyph name="Ldot" xMin="92" yMin="0" xMax="1233" yMax="1436">
      <component glyphName="L" x="0" y="0" flags="0x4"/>
      <component glyphName="dotaccent" x="675" y="-816" flags="0x4"/>
    </TTGlyph>
    <TTGlyph name="Lslash" xMin="-61" yMin="0" xMax="1185" yMax="1436">
      <contour>
        <pt x="112" y="279" on="1"/>
        <pt x="18" y="236" on="1"/>
        <pt x="-2" y="226" on="0"/>
        <pt x="-10" y="247" on="1"/>
        <pt x="-52" y="339" on="1"/>
        <pt x="-61" y="358" on="0"/>
        <pt x="-42" y="367" on="1"/>
        <pt x="112" y="438" on="1"/>
        <pt x="112" y="1296" on="1"/>
        <pt x="112" y="1331" on="0"/>
        <pt x="124" y="1383" on="0"/>
        <pt x="158" y="1418" on="0"/>
        <pt x="218" y="1436" on="0"/>
        <pt x="266" y="1436" on="1"/>
        <pt x="712" y="1436" on="1"/>
        <pt x="770" y="1436" on="0"/>
        <pt x="831" y="1402" on="0"/>
        <pt x="856" y="1351" on="0"/>
        <pt x="858" y="1294" on="0"/>
        <pt x="858" y="1270" on="1"/>
        <pt x="858" y="781" on="1"/>
        <pt x="1013" y="852" on="1"/>
        <pt x="1032" y="861" on="0"/>
        <pt x="1041" y="842" on="1"/>
        <pt x="1084" y="750" on="1"/>
        <pt x="1092" y="731" on="0"/>
        <pt x="1073" y="721" on="1"/>
        <pt x="858" y="622" on="1"/>
        <pt x="858" y="137" on="1"/>
        <pt x="927" y="147" on="0"/>
        <pt x="986" y="155" on="1"/>
        <pt x="1011" y="158" on="0"/>
        <pt x="1062" y="165" on="0"/>
        <pt x="1105" y="171" on="0"/>
        <pt x="1139" y="174" on="0"/>
        <pt x="1147" y="174" on="1"/>
        <pt x="1164" y="174" on="0"/>
        <pt x="1185" y="161" on="0"/>
        <pt x="1185" y="141" on="1"/>
        <pt x="1185" y="49" on="1"/>
        <pt x="1185" y="31" on="0"/>
        <pt x="1154" y="0" on="0"/>
        <pt x="1120" y="0" on="1"/>
        <pt x="264" y="0" on="1"/>
        <pt x="217" y="0" on="0"/>
        <pt x="158" y="18" on="0"/>
        <pt x="124" y="52" on="0"/>
        <pt x="112" y="104" on="0"/>
        <pt x="112" y="139" on="1"/>
      </contour>
      <contour>
        <pt x="773" y="1288" on="1"/>
        <pt x="773" y="1310" on="0"/>
        <pt x="767" y="1336" on="0"/>
        <pt x="749" y="1349" on="0"/>
        <pt x="719" y="1352" on="0"/>
        <pt x="695" y="1352" on="1"/>
        <pt x="695" y="114" on="1"/>
        <pt x="773" y="126" on="1"/>
      </contour>
    </TTGlyph>
    <TTGlyph name="M" xMin="92" yMin="0" xMax="1698" yMax="1436">
      <contour>
        <pt x="952" y="633" on="1"/>
        <pt x="717" y="200" on="1"/>
        <pt x="702" y="172" on="0"/>
        <pt x="660" y="135" on="0"/>
        <pt x="623" y="135" on="1"/>
        <pt x="589" y="135" on="0"/>
        <pt x="544" y="173" on="0"/>
        <pt x="529" y="199" on="1"/>
        <pt x="281" y="625" on="1"/>
        <pt x="287" y="490" on="0"/>
        <pt x="292" y="376" on="1"/>
        <pt x="294" y="327" on="0"/>
        <pt x="298" y="229" on="0"/>
        <pt x="302" y="145" on="0"/>
        <pt x="305" y="80" on="0"/>
        <pt x="306" y="65" on="1"/>
        <pt x="307" y="50" on="0"/>
        <pt x="304" y="26" on="0"/>
        <pt x="292" y="9" on="0"/>
        <pt x="270" y="0" on="0"/>
        <pt x="251" y="0" on="1"/>
        <pt x="141" y="0" on="1"/>
        <pt x="123" y="0" on="0"/>
        <pt x="92" y="23" on="0"/>
        <pt x="92" y="57" on="1"/>
        <pt x="92" y="1329" on="1"/>
        <pt x="92" y="1348" on="0"/>
        <pt x="103" y="1386" on="0"/>
        <pt x="130" y="1417" on="0"/>
        <pt x="174" y="1436" on="0"/>
        <pt x="206" y="1436" on="1"/>
        <pt x="528" y="1436" on="1"/>
        <pt x="567" y="1436" on="0"/>
        <pt x="623" y="1409" on="0"/>
        <pt x="643" y="1378" on="1"/>
        <pt x="912" y="951" on="1"/>
        <pt x="1092" y="1296" on="1"/>
        <pt x="1108" y="1327" on="0"/>
        <pt x="1138" y="1378" on="0"/>
        <pt x="1179" y="1415" on="0"/>
        <pt x="1240" y="1436" on="0"/>
        <pt x="1288" y="1436" on="1"/>
        <pt x="1554" y="1436" on="1"/>
        <pt x="1592" y="1436" on="0"/>
        <pt x="1647" y="1416" on="0"/>
        <pt x="1682" y="1382" on="0"/>
        <pt x="1698" y="1336" on="0"/>
        <pt x="1698" y="1309" on="1"/>
        <pt x="1698" y="139" on="1"/>
        <pt x="1698" y="108" on="0"/>
        <pt x="1688" y="57" on="0"/>
        <pt x="1657" y="20" on="0"/>
        <pt x="1600" y="0" on="0"/>
        <pt x="1554" y="0" on="1"/>
        <pt x="1092" y="0" on="1"/>
        <pt x="1051" y="0" on="0"/>
        <pt x="997" y="18" on="0"/>
        <pt x="965" y="52" on="0"/>
        <pt x="952" y="104" on="0"/>
        <pt x="952" y="139" on="1"/>
      </contour>
      <contour>
        <pt x="569" y="1324" on="1"/>
        <pt x="557" y="1344" on="0"/>
        <pt x="528" y="1352" on="0"/>
        <pt x="512" y="1352" on="1"/>
        <pt x="462" y="1352" on="1"/>
        <pt x="822" y="780" on="1"/>
        <pt x="863" y="857" on="1"/>
      </contour>
      <contour>
        <pt x="1613" y="1288" on="1"/>
        <pt x="1613" y="1310" on="0"/>
        <pt x="1607" y="1336" on="0"/>
        <pt x="1589" y="1349" on="0"/>
        <pt x="1559" y="1352" on="0"/>
        <pt x="1535" y="1352" on="1"/>
        <pt x="1535" y="84" on="1"/>
        <pt x="1559" y="84" on="0"/>
        <pt x="1589" y="87" on="0"/>
        <pt x="1607" y="100" on="0"/>
        <pt x="1613" y="125" on="0"/>
        <pt x="1613" y="148" on="1"/>
      </contour>
    </TTGlyph>
    <TTGlyph name="N" xMin="92" yMin="0" xMax="1288" yMax="1436">
      <contour>
        <pt x="1239" y="1436" on="1"/>
        <pt x="1258" y="1436" on="0"/>
        <pt x="1288" y="1412" on="0"/>
        <pt x="1288" y="1378" on="1"/>
        <pt x="1288" y="74" on="1"/>
        <pt x="1288" y="0" on="0"/>
        <pt x="1218" y="0" on="1"/>
        <pt x="871" y="0" on="1"/>
        <pt x="838" y="0" on="0"/>
        <pt x="795" y="26" on="0"/>
        <pt x="778" y="43" on="1"/>
        <pt x="266" y="578" on="1"/>
        <pt x="275" y="448" on="0"/>
        <pt x="284" y="339" on="1"/>
        <pt x="287" y="292" on="0"/>
        <pt x="295" y="200" on="0"/>
        <pt x="301" y="120" on="0"/>
        <pt x="306" y="60" on="0"/>
        <pt x="307" y="47" on="1"/>
        <pt x="309" y="30" on="0"/>
        <pt x="294" y="0" on="0"/>
        <pt x="267" y="0" on="1"/>
        <pt x="141" y="0" on="1"/>
        <pt x="123" y="0" on="0"/>
        <pt x="92" y="23" on="0"/>
        <pt x="92" y="57" on="1"/>
        <pt x="92" y="1362" on="1"/>
        <pt x="92" y="1436" on="0"/>
        <pt x="174" y="1436" on="1"/>
        <pt x="512" y="1436" on="1"/>
        <pt x="550" y="1436" on="0"/>
        <pt x="601" y="1404" on="0"/>
        <pt x="627" y="1378" on="1"/>
        <pt x="1114" y="895" on="1"/>
        <pt x="1104" y="1014" on="0"/>
        <pt x="1096" y="1115" on="1"/>
        <pt x="1092" y="1158" on="0"/>
        <pt x="1085" y="1244" on="0"/>
        <pt x="1079" y="1319" on="0"/>
        <pt x="1074" y="1375" on="0"/>
        <pt x="1073" y="1389" on="1"/>
        <pt x="1071" y="1405" on="0"/>
        <pt x="1088" y="1436" on="0"/>
        <pt x="1119" y="1436" on="1"/>
      </contour>
      <contour>
        <pt x="558" y="1325" on="1"/>
        <pt x="540" y="1343" on="0"/>
        <pt x="517" y="1352" on="0"/>
        <pt x="497" y="1352" on="1"/>
        <pt x="426" y="1352" on="1"/>
        <pt x="1114" y="668" on="1"/>
        <pt x="1114" y="774" on="1"/>
      </contour>
    </TTGlyph>
    <TTGlyph name="Nacute" xMin="92" yMin="0" xMax="1288" yMax="1939">
      <component glyphName="N" x="0" y="0" flags="0x204"/>
      <component glyphName="acute" x="303" y="369" flags="0x4"/>
    </TTGlyph>
    <TTGlyph name="Ncaron" xMin="92" yMin="0" xMax="1288" yMax="1919">
      <component glyphName="N" x="0" y="0" flags="0x204"/>
      <component glyphName="caron" x="303" y="369" flags="0x4"/>
    </TTGlyph>
    <TTGlyph name="Ncommaaccent" xMin="92" yMin="-512" xMax="1288" yMax="1436">
      <component glyphName="N" x="0" y="0" flags="0x204"/>
      <component glyphName="commaaccent" x="300" y="0" flags="0x4"/>
    </TTGlyph>
    <TTGlyph name="Ntilde" xMin="92" yMin="0" xMax="1288" yMax="1895">
      <component glyphName="N" x="0" y="0" flags="0x204"/>
      <component glyphName="tilde" x="283" y="412" flags="0x4"/>
    </TTGlyph>
    <TTGlyph name="O" xMin="61" yMin="-39" xMax="1393" yMax="1483">
      <contour>
        <pt x="727" y="-39" on="1"/>
        <pt x="647" y="-39" on="0"/>
        <pt x="486" y="-11" on="0"/>
        <pt x="338" y="57" on="0"/>
        <pt x="210" y="170" on="0"/>
        <pt x="115" y="339" on="0"/>
        <pt x="61" y="570" on="0"/>
        <pt x="61" y="723" on="1"/>
        <pt x="61" y="875" on="0"/>
        <pt x="115" y="1107" on="0"/>
        <pt x="210" y="1276" on="0"/>
        <pt x="338" y="1388" on="0"/>
        <pt x="486" y="1455" on="0"/>
        <pt x="647" y="1483" on="0"/>
        <pt x="727" y="1483" on="1"/>
        <pt x="807" y="1483" on="0"/>
        <pt x="969" y="1455" on="0"/>
        <pt x="1117" y="1388" on="0"/>
        <pt x="1245" y="1276" on="0"/>
        <pt x="1339" y="1107" on="0"/>
        <pt x="1393" y="875" on="0"/>
        <pt x="1393" y="723" on="1"/>
        <pt x="1393" y="571" on="0"/>
        <pt x="1339" y="339" on="0"/>
        <pt x="1245" y="170" on="0"/>
        <pt x="1117" y="57" on="0"/>
        <pt x="969" y="-11" on="0"/>
        <pt x="807" y="-39" on="0"/>
      </contour>
      <contour>
        <pt x="817" y="723" on="1"/>
        <pt x="817" y="598" on="0"/>
        <pt x="854" y="430" on="0"/>
        <pt x="916" y="328" on="0"/>
        <pt x="993" y="285" on="0"/>
        <pt x="1034" y="285" on="1"/>
        <pt x="1075" y="285" on="0"/>
        <pt x="1153" y="328" on="0"/>
        <pt x="1214" y="430" on="0"/>
        <pt x="1251" y="598" on="0"/>
        <pt x="1251" y="723" on="1"/>
        <pt x="1251" y="848" on="0"/>
        <pt x="1214" y="1016" on="0"/>
        <pt x="1153" y="1118" on="0"/>
        <pt x="1075" y="1161" on="0"/>
        <pt x="1034" y="1161" on="1"/>
        <pt x="993" y="1161" on="0"/>
        <pt x="916" y="1118" on="0"/>
        <pt x="854" y="1016" on="0"/>
        <pt x="817" y="848" on="0"/>
      </contour>
      <contour>
        <pt x="732" y="723" on="1"/>
        <pt x="732" y="848" on="0"/>
        <pt x="773" y="1030" on="0"/>
        <pt x="837" y="1150" on="0"/>
        <pt x="918" y="1213" on="0"/>
        <pt x="959" y="1221" on="1"/>
        <pt x="900" y="1218" on="0"/>
        <pt x="788" y="1162" on="0"/>
        <pt x="701" y="1044" on="0"/>
        <pt x="649" y="857" on="0"/>
        <pt x="649" y="723" on="1"/>
        <pt x="649" y="589" on="0"/>
        <pt x="701" y="402" on="0"/>
        <pt x="788" y="284" on="0"/>
        <pt x="900" y="228" on="0"/>
        <pt x="959" y="225" on="1"/>
        <pt x="918" y="232" on="0"/>
        <pt x="837" y="296" on="0"/>
        <pt x="773" y="416" on="0"/>
        <pt x="732" y="598" on="0"/>
      </contour>
    </TTGlyph>
    <TTGlyph name="OE" xMin="61" yMin="-39" xMax="2176" yMax="1483">
      <contour>
        <pt x="2118" y="1077" on="1"/>
        <pt x="2139" y="1077" on="0"/>
        <pt x="2139" y="1056" on="1"/>
        <pt x="2139" y="956" on="1"/>
        <pt x="2139" y="934" on="0"/>
        <pt x="2118" y="934" on="1"/>
        <pt x="1746" y="934" on="1"/>
        <pt x="1746" y="123" on="1"/>
        <pt x="1842" y="137" on="0"/>
        <pt x="1921" y="148" on="1"/>
        <pt x="1955" y="153" on="0"/>
        <pt x="2022" y="162" on="0"/>
        <pt x="2080" y="170" on="0"/>
        <pt x="2123" y="174" on="0"/>
        <pt x="2132" y="174" on="1"/>
        <pt x="2152" y="174" on="0"/>
        <pt x="2176" y="161" on="0"/>
        <pt x="2176" y="141" on="1"/>
        <pt x="2176" y="49" on="1"/>
        <pt x="2176" y="31" on="0"/>
        <pt x="2154" y="0" on="0"/>
        <pt x="2120" y="0" on="1"/>
        <pt x="1360" y="0" on="1"/>
        <pt x="1322" y="0" on="0"/>
        <pt x="1279" y="12" on="0"/>
        <pt x="1257" y="39" on="0"/>
        <pt x="1251" y="84" on="0"/>
        <pt x="1251" y="116" on="1"/>
        <pt x="1251" y="191" on="1"/>
        <pt x="1202" y="125" on="0"/>
        <pt x="1081" y="37" on="0"/>
        <pt x="945" y="-16" on="0"/>
        <pt x="799" y="-39" on="0"/>
        <pt x="727" y="-39" on="1"/>
        <pt x="647" y="-39" on="0"/>
        <pt x="486" y="-11" on="0"/>
        <pt x="338" y="57" on="0"/>
        <pt x="210" y="170" on="0"/>
        <pt x="115" y="339" on="0"/>
        <pt x="61" y="570" on="0"/>
        <pt x="61" y="723" on="1"/>
        <pt x="61" y="875" on="0"/>
        <pt x="115" y="1107" on="0"/>
        <pt x="210" y="1276" on="0"/>
        <pt x="338" y="1388" on="0"/>
        <pt x="486" y="1455" on="0"/>
        <pt x="647" y="1483" on="0"/>
        <pt x="727" y="1483" on="1"/>
        <pt x="799" y="1483" on="0"/>
        <pt x="945" y="1461" on="0"/>
        <pt x="1081" y="1408" on="0"/>
        <pt x="1202" y="1320" on="0"/>
        <pt x="1251" y="1254" on="1"/>
        <pt x="1251" y="1312" on="1"/>
        <pt x="1251" y="1351" on="0"/>
        <pt x="1265" y="1399" on="0"/>
        <pt x="1299" y="1426" on="0"/>
        <pt x="1354" y="1436" on="0"/>
        <pt x="1395" y="1436" on="1"/>
        <pt x="2089" y="1436" on="1"/>
        <pt x="2106" y="1436" on="0"/>
        <pt x="2126" y="1427" on="0"/>
        <pt x="2136" y="1413" on="0"/>
        <pt x="2139" y="1395" on="0"/>
        <pt x="2139" y="1386" on="1"/>
        <pt x="2139" y="1315" on="1"/>
        <pt x="2139" y="1295" on="0"/>
        <pt x="2120" y="1282" on="0"/>
        <pt x="2102" y="1282" on="1"/>
        <pt x="2094" y="1282" on="0"/>
        <pt x="2055" y="1286" on="0"/>
        <pt x="2002" y="1293" on="0"/>
        <pt x="1939" y="1301" on="0"/>
        <pt x="1908" y="1306" on="1"/>
        <pt x="1834" y="1317" on="0"/>
        <pt x="1746" y="1331" on="1"/>
        <pt x="1746" y="1077" on="1"/>
      </contour>
      <contour>
        <pt x="817" y="723" on="1"/>
        <pt x="817" y="598" on="0"/>
        <pt x="854" y="430" on="0"/>
        <pt x="916" y="328" on="0"/>
        <pt x="993" y="285" on="0"/>
        <pt x="1034" y="285" on="1"/>
        <pt x="1075" y="285" on="0"/>
        <pt x="1153" y="328" on="0"/>
        <pt x="1214" y="430" on="0"/>
        <pt x="1251" y="598" on="0"/>
        <pt x="1251" y="723" on="1"/>
        <pt x="1251" y="850" on="0"/>
        <pt x="1213" y="1019" on="0"/>
        <pt x="1151" y="1119" on="0"/>
        <pt x="1074" y="1161" on="0"/>
        <pt x="1034" y="1161" on="1"/>
        <pt x="993" y="1161" on="0"/>
        <pt x="916" y="1118" on="0"/>
        <pt x="854" y="1016" on="0"/>
        <pt x="817" y="848" on="0"/>
      </contour>
      <contour>
        <pt x="732" y="723" on="1"/>
        <pt x="732" y="848" on="0"/>
        <pt x="773" y="1030" on="0"/>
        <pt x="837" y="1150" on="0"/>
        <pt x="918" y="1213" on="0"/>
        <pt x="959" y="1221" on="1"/>
        <pt x="900" y="1218" on="0"/>
        <pt x="788" y="1162" on="0"/>
        <pt x="701" y="1044" on="0"/>
        <pt x="649" y="857" on="0"/>
        <pt x="649" y="723" on="1"/>
        <pt x="649" y="589" on="0"/>
        <pt x="701" y="402" on="0"/>
        <pt x="788" y="284" on="0"/>
        <pt x="900" y="228" on="0"/>
        <pt x="959" y="225" on="1"/>
        <pt x="918" y="232" on="0"/>
        <pt x="837" y="296" on="0"/>
        <pt x="773" y="416" on="0"/>
        <pt x="732" y="598" on="0"/>
      </contour>
      <contour>
        <pt x="1660" y="1345" on="1"/>
        <pt x="1582" y="1356" on="1"/>
        <pt x="1582" y="101" on="1"/>
        <pt x="1660" y="111" on="1"/>
      </contour>
    </TTGlyph>
    <TTGlyph name="Oacute" xMin="61" yMin="-39" xMax="1393" yMax="1982">
      <component glyphName="O" x="0" y="0" flags="0x204"/>
      <component glyphName="acute" x="290" y="412" flags="0x4"/>
    </TTGlyph>
    <TTGlyph name="Obreve" xMin="61" yMin="-39" xMax="1393" yMax="1902">
      <component glyphName="O" x="0" y="0" flags="0x204"/>
      <component glyphName="breve" x="319" y="410" flags="0x4"/>
    </TTGlyph>
    <TTGlyph name="Ocircumflex" xMin="61" yMin="-39" xMax="1393" yMax="1962">
      <component glyphName="O" x="0" y="0" flags="0x204"/>
      <component glyphName="circumflex" x="317" y="412" flags="0x4"/>
    </TTGlyph>
    <TTGlyph name="Odieresis" xMin="61" yMin="-39" xMax="1393" yMax="1873">
      <component glyphName="O" x="0" y="0" flags="0x204"/>
      <component glyphName="dieresis" x="317" y="412" flags="0x4"/>
    </TTGlyph>
    <TTGlyph name="Ograve" xMin="61" yMin="-39" xMax="1393" yMax="1982">
      <component glyphName="O" x="0" y="0" flags="0x204"/>
      <component glyphName="grave" x="386" y="412" flags="0x4"/>
    </TTGlyph>
    <TTGlyph name="Ohungarumlaut" xMin="61" yMin="-39" xMax="1393" yMax="1970">
      <component glyphName="O" x="0" y="0" flags="0x204"/>
      <component glyphName="hungarumlaut" x="338" y="410" flags="0x4"/>
    </TTGlyph>
    <TTGlyph name="Omacron" xMin="61" yMin="-39" xMax="1393" yMax="1840">
      <component glyphName="O" x="0" y="0" flags="0x204"/>
      <component glyphName="macron" x="319" y="410" flags="0x4"/>
    </TTGlyph>
    <TTGlyph name="Oslash" xMin="61" yMin="-333" xMax="1518" yMax="1501">
      <contour>
        <pt x="1331" y="1107" on="1"/>
        <pt x="1360" y="1031" on="0"/>
        <pt x="1393" y="841" on="0"/>
        <pt x="1393" y="723" on="1"/>
        <pt x="1393" y="571" on="0"/>
        <pt x="1339" y="339" on="0"/>
        <pt x="1245" y="170" on="0"/>
        <pt x="1117" y="57" on="0"/>
        <pt x="969" y="-11" on="0"/>
        <pt x="807" y="-39" on="0"/>
        <pt x="727" y="-39" on="1"/>
        <pt x="688" y="-39" on="0"/>
        <pt x="651" y="-36" on="1"/>
        <pt x="483" y="-320" on="1"/>
        <pt x="476" y="-333" on="0"/>
        <pt x="462" y="-333" on="1"/>
        <pt x="452" y="-333" on="0"/>
        <pt x="446" y="-328" on="1"/>
        <pt x="378" y="-281" on="1"/>
        <pt x="373" y="-277" on="0"/>
        <pt x="366" y="-268" on="0"/>
        <pt x="366" y="-260" on="1"/>
        <pt x="366" y="-253" on="0"/>
        <pt x="372" y="-242" on="1"/>
        <pt x="508" y="-12" on="1"/>
        <pt x="418" y="12" on="0"/>
        <pt x="255" y="116" on="0"/>
        <pt x="133" y="291" on="0"/>
        <pt x="61" y="546" on="0"/>
        <pt x="61" y="723" on="1"/>
        <pt x="61" y="875" on="0"/>
        <pt x="115" y="1107" on="0"/>
        <pt x="210" y="1276" on="0"/>
        <pt x="338" y="1388" on="0"/>
        <pt x="486" y="1455" on="0"/>
        <pt x="647" y="1483" on="0"/>
        <pt x="727" y="1483" on="1"/>
        <pt x="800" y="1483" on="0"/>
        <pt x="947" y="1460" on="0"/>
        <pt x="1085" y="1405" on="0"/>
        <pt x="1207" y="1314" on="0"/>
        <pt x="1256" y="1247" on="1"/>
        <pt x="1399" y="1488" on="1"/>
        <pt x="1406" y="1501" on="0"/>
        <pt x="1419" y="1501" on="1"/>
        <pt x="1427" y="1501" on="0"/>
        <pt x="1435" y="1496" on="1"/>
        <pt x="1506" y="1450" on="1"/>
        <pt x="1518" y="1442" on="0"/>
        <pt x="1518" y="1431" on="1"/>
        <pt x="1518" y="1422" on="0"/>
        <pt x="1512" y="1412" on="1"/>
      </contour>
      <contour>
        <pt x="1251" y="723" on="1"/>
        <pt x="1251" y="789" on="0"/>
        <pt x="1240" y="895" on="0"/>
        <pt x="1231" y="939" on="1"/>
        <pt x="891" y="368" on="1"/>
        <pt x="921" y="323" on="0"/>
        <pt x="996" y="285" on="0"/>
        <pt x="1034" y="285" on="1"/>
        <pt x="1075" y="285" on="0"/>
        <pt x="1153" y="328" on="0"/>
        <pt x="1214" y="430" on="0"/>
        <pt x="1251" y="598" on="0"/>
      </contour>
      <contour>
        <pt x="817" y="723" on="1"/>
        <pt x="817" y="612" on="0"/>
        <pt x="832" y="533" on="1"/>
        <pt x="1165" y="1094" on="1"/>
        <pt x="1136" y="1130" on="0"/>
        <pt x="1069" y="1161" on="0"/>
        <pt x="1034" y="1161" on="1"/>
        <pt x="993" y="1161" on="0"/>
        <pt x="916" y="1118" on="0"/>
        <pt x="854" y="1016" on="0"/>
        <pt x="817" y="848" on="0"/>
      </contour>
      <contour>
        <pt x="732" y="723" on="1"/>
        <pt x="732" y="848" on="0"/>
        <pt x="773" y="1030" on="0"/>
        <pt x="837" y="1150" on="0"/>
        <pt x="918" y="1213" on="0"/>
        <pt x="959" y="1221" on="1"/>
        <pt x="900" y="1218" on="0"/>
        <pt x="788" y="1162" on="0"/>
        <pt x="701" y="1044" on="0"/>
        <pt x="649" y="857" on="0"/>
        <pt x="649" y="723" on="1"/>
        <pt x="649" y="589" on="0"/>
        <pt x="701" y="402" on="0"/>
        <pt x="788" y="284" on="0"/>
        <pt x="900" y="228" on="0"/>
        <pt x="959" y="225" on="1"/>
        <pt x="918" y="232" on="0"/>
        <pt x="837" y="296" on="0"/>
        <pt x="773" y="416" on="0"/>
        <pt x="732" y="598" on="0"/>
      </contour>
    </TTGlyph>
    <TTGlyph name="Oslashacute" xMin="61" yMin="-333" xMax="1518" yMax="1980">
      <component glyphName="Oslash" x="0" y="0" flags="0x204"/>
      <component glyphName="acute" x="323" y="410" flags="0x4"/>
    </TTGlyph>
    <TTGlyph name="Otilde" xMin="61" yMin="-39" xMax="1393" yMax="1895">
      <component glyphName="O" x="0" y="0" flags="0x204"/>
      <component glyphName="tilde" x="320" y="412" flags="0x4"/>
    </TTGlyph>
    <TTGlyph name="P" xMin="92" yMin="0" xMax="1253" yMax="1436">
      <contour>
        <pt x="92" y="1296" on="1"/>
        <pt x="92" y="1331" on="0"/>
        <pt x="104" y="1383" on="0"/>
        <pt x="138" y="1418" on="0"/>
        <pt x="198" y="1436" on="0"/>
        <pt x="246" y="1436" on="1"/>
        <pt x="692" y="1436" on="1"/>
        <pt x="761" y="1436" on="0"/>
        <pt x="897" y="1419" on="0"/>
        <pt x="1022" y="1379" on="0"/>
        <pt x="1129" y="1315" on="0"/>
        <pt x="1208" y="1220" on="0"/>
        <pt x="1253" y="1093" on="0"/>
        <pt x="1253" y="1010" on="1"/>
        <pt x="1253" y="887" on="0"/>
        <pt x="1186" y="718" on="0"/>
        <pt x="1072" y="608" on="0"/>
        <pt x="921" y="550" on="0"/>
        <pt x="838" y="537" on="1"/>
        <pt x="838" y="162" on="1"/>
        <pt x="838" y="139" on="0"/>
        <pt x="830" y="83" on="0"/>
        <pt x="798" y="34" on="0"/>
        <pt x="732" y="0" on="0"/>
        <pt x="674" y="0" on="1"/>
        <pt x="246" y="0" on="1"/>
        <pt x="198" y="0" on="0"/>
        <pt x="138" y="18" on="0"/>
        <pt x="104" y="52" on="0"/>
        <pt x="92" y="104" on="0"/>
        <pt x="92" y="139" on="1"/>
      </contour>
      <contour>
        <pt x="1112" y="995" on="1"/>
        <pt x="1112" y="1055" on="0"/>
        <pt x="1080" y="1156" on="0"/>
        <pt x="1014" y="1232" on="0"/>
        <pt x="910" y="1282" on="0"/>
        <pt x="838" y="1291" on="1"/>
        <pt x="838" y="670" on="1"/>
        <pt x="910" y="681" on="0"/>
        <pt x="1014" y="739" on="0"/>
        <pt x="1080" y="825" on="0"/>
        <pt x="1112" y="934" on="0"/>
      </contour>
      <contour>
        <pt x="753" y="1303" on="1"/>
        <pt x="733" y="1304" on="0"/>
        <pt x="690" y="1305" on="0"/>
        <pt x="675" y="1305" on="1"/>
        <pt x="675" y="84" on="1"/>
        <pt x="699" y="84" on="0"/>
        <pt x="729" y="87" on="0"/>
        <pt x="747" y="100" on="0"/>
        <pt x="753" y="125" on="0"/>
        <pt x="753" y="148" on="1"/>
      </contour>
    </TTGlyph>
    <TTGlyph name="Q" xMin="61" yMin="-93" xMax="1425" yMax="1483">
      <contour>
        <pt x="727" y="-39" on="1"/>
        <pt x="647" y="-39" on="0"/>
        <pt x="486" y="-11" on="0"/>
        <pt x="338" y="57" on="0"/>
        <pt x="210" y="170" on="0"/>
        <pt x="115" y="339" on="0"/>
        <pt x="61" y="570" on="0"/>
        <pt x="61" y="723" on="1"/>
        <pt x="61" y="875" on="0"/>
        <pt x="115" y="1107" on="0"/>
        <pt x="210" y="1276" on="0"/>
        <pt x="338" y="1388" on="0"/>
        <pt x="486" y="1455" on="0"/>
        <pt x="647" y="1483" on="0"/>
        <pt x="727" y="1483" on="1"/>
        <pt x="807" y="1483" on="0"/>
        <pt x="969" y="1455" on="0"/>
        <pt x="1117" y="1388" on="0"/>
        <pt x="1245" y="1276" on="0"/>
        <pt x="1339" y="1107" on="0"/>
        <pt x="1393" y="875" on="0"/>
        <pt x="1393" y="723" on="1"/>
        <pt x="1393" y="555" on="0"/>
        <pt x="1329" y="310" on="0"/>
        <pt x="1273" y="223" on="1"/>
        <pt x="1414" y="22" on="1"/>
        <pt x="1425" y="5" on="0"/>
        <pt x="1425" y="-7" on="1"/>
        <pt x="1425" y="-21" on="0"/>
        <pt x="1406" y="-42" on="0"/>
        <pt x="1394" y="-49" on="1"/>
        <pt x="1331" y="-84" on="1"/>
        <pt x="1324" y="-88" on="0"/>
        <pt x="1310" y="-93" on="0"/>
        <pt x="1302" y="-93" on="1"/>
        <pt x="1290" y="-93" on="0"/>
        <pt x="1268" y="-79" on="0"/>
        <pt x="1259" y="-62" on="1"/>
        <pt x="1169" y="103" on="1"/>
        <pt x="1122" y="63" on="0"/>
        <pt x="1016" y="9" on="0"/>
        <pt x="903" y="-24" on="0"/>
        <pt x="785" y="-39" on="0"/>
      </contour>
      <contour>
        <pt x="1078" y="449" on="1"/>
        <pt x="1102" y="464" on="0"/>
        <pt x="1122" y="437" on="1"/>
        <pt x="1173" y="364" on="1"/>
        <pt x="1207" y="413" on="0"/>
        <pt x="1251" y="588" on="0"/>
        <pt x="1251" y="723" on="1"/>
        <pt x="1251" y="848" on="0"/>
        <pt x="1214" y="1016" on="0"/>
        <pt x="1153" y="1118" on="0"/>
        <pt x="1075" y="1161" on="0"/>
        <pt x="1034" y="1161" on="1"/>
        <pt x="993" y="1161" on="0"/>
        <pt x="916" y="1118" on="0"/>
        <pt x="854" y="1016" on="0"/>
        <pt x="817" y="848" on="0"/>
        <pt x="817" y="723" on="1"/>
        <pt x="817" y="598" on="0"/>
        <pt x="854" y="430" on="0"/>
        <pt x="916" y="328" on="0"/>
        <pt x="993" y="285" on="0"/>
        <pt x="1034" y="285" on="1"/>
        <pt x="1053" y="285" on="0"/>
        <pt x="1069" y="289" on="1"/>
        <pt x="1020" y="380" on="1"/>
        <pt x="1013" y="393" on="0"/>
        <pt x="1017" y="416" on="0"/>
        <pt x="1031" y="424" on="1"/>
      </contour>
      <contour>
        <pt x="732" y="723" on="1"/>
        <pt x="732" y="848" on="0"/>
        <pt x="773" y="1030" on="0"/>
        <pt x="837" y="1150" on="0"/>
        <pt x="918" y="1213" on="0"/>
        <pt x="959" y="1221" on="1"/>
        <pt x="900" y="1218" on="0"/>
        <pt x="788" y="1162" on="0"/>
        <pt x="701" y="1044" on="0"/>
        <pt x="649" y="857" on="0"/>
        <pt x="649" y="723" on="1"/>
        <pt x="649" y="589" on="0"/>
        <pt x="701" y="402" on="0"/>
        <pt x="788" y="284" on="0"/>
        <pt x="900" y="228" on="0"/>
        <pt x="959" y="225" on="1"/>
        <pt x="918" y="232" on="0"/>
        <pt x="837" y="296" on="0"/>
        <pt x="773" y="416" on="0"/>
        <pt x="732" y="598" on="0"/>
      </contour>
    </TTGlyph>
    <TTGlyph name="R" xMin="92" yMin="-33" xMax="1302" yMax="1436">
      <contour>
        <pt x="997" y="272" on="1"/>
        <pt x="959" y="251" on="0"/>
        <pt x="880" y="223" on="0"/>
        <pt x="838" y="214" on="1"/>
        <pt x="838" y="139" on="1"/>
        <pt x="838" y="107" on="0"/>
        <pt x="824" y="56" on="0"/>
        <pt x="789" y="20" on="0"/>
        <pt x="732" y="0" on="0"/>
        <pt x="689" y="0" on="1"/>
        <pt x="246" y="0" on="1"/>
        <pt x="198" y="0" on="0"/>
        <pt x="138" y="18" on="0"/>
        <pt x="104" y="52" on="0"/>
        <pt x="92" y="104" on="0"/>
        <pt x="92" y="139" on="1"/>
        <pt x="92" y="1296" on="1"/>
        <pt x="92" y="1331" on="0"/>
        <pt x="104" y="1383" on="0"/>
        <pt x="138" y="1418" on="0"/>
        <pt x="198" y="1436" on="0"/>
        <pt x="246" y="1436" on="1"/>
        <pt x="692" y="1436" on="1"/>
        <pt x="764" y="1436" on="0"/>
        <pt x="903" y="1412" on="0"/>
        <pt x="1028" y="1359" on="0"/>
        <pt x="1133" y="1271" on="0"/>
        <pt x="1210" y="1142" on="0"/>
        <pt x="1253" y="970" on="0"/>
        <pt x="1253" y="858" on="1"/>
        <pt x="1253" y="762" on="0"/>
        <pt x="1229" y="606" on="0"/>
        <pt x="1187" y="480" on="0"/>
        <pt x="1128" y="383" on="0"/>
        <pt x="1092" y="346" on="1"/>
        <pt x="1292" y="82" on="1"/>
        <pt x="1302" y="68" on="0"/>
        <pt x="1302" y="55" on="1"/>
        <pt x="1302" y="40" on="0"/>
        <pt x="1281" y="18" on="0"/>
        <pt x="1269" y="11" on="1"/>
        <pt x="1209" y="-24" on="1"/>
        <pt x="1202" y="-28" on="0"/>
        <pt x="1187" y="-33" on="0"/>
        <pt x="1179" y="-33" on="1"/>
        <pt x="1168" y="-33" on="0"/>
        <pt x="1146" y="-19" on="0"/>
        <pt x="1137" y="-2" on="1"/>
      </contour>
      <contour>
        <pt x="1112" y="840" on="1"/>
        <pt x="1112" y="930" on="0"/>
        <pt x="1080" y="1082" on="0"/>
        <pt x="1014" y="1198" on="0"/>
        <pt x="910" y="1274" on="0"/>
        <pt x="838" y="1288" on="1"/>
        <pt x="838" y="345" on="1"/>
        <pt x="910" y="361" on="0"/>
        <pt x="1014" y="446" on="0"/>
        <pt x="1080" y="574" on="0"/>
        <pt x="1112" y="741" on="0"/>
      </contour>
      <contour>
        <pt x="753" y="1303" on="1"/>
        <pt x="733" y="1304" on="0"/>
        <pt x="690" y="1305" on="0"/>
        <pt x="675" y="1305" on="1"/>
        <pt x="675" y="84" on="1"/>
        <pt x="699" y="84" on="0"/>
        <pt x="729" y="87" on="0"/>
        <pt x="747" y="100" on="0"/>
        <pt x="753" y="125" on="0"/>
        <pt x="753" y="148" on="1"/>
      </contour>
    </TTGlyph>
    <TTGlyph name="Racute" xMin="92" yMin="-33" xMax="1302" yMax="1939">
      <component glyphName="R" x="0" y="0" flags="0x204"/>
      <component glyphName="acute" x="191" y="369" flags="0x4"/>
    </TTGlyph>
    <TTGlyph name="Rcaron" xMin="92" yMin="-33" xMax="1302" yMax="1919">
      <component glyphName="R" x="0" y="0" flags="0x204"/>
      <component glyphName="caron" x="191" y="369" flags="0x4"/>
    </TTGlyph>
    <TTGlyph name="Rcommaaccent" xMin="92" yMin="-512" xMax="1302" yMax="1436">
      <component glyphName="R" x="0" y="0" flags="0x204"/>
      <component glyphName="commaaccent" x="251" y="0" flags="0x4"/>
    </TTGlyph>
    <TTGlyph name="S" xMin="6" yMin="-39" xMax="1287" yMax="1470">
      <contour>
        <pt x="326" y="1092" on="1"/>
        <pt x="337" y="1201" on="0"/>
        <pt x="433" y="1347" on="0"/>
        <pt x="575" y="1434" on="0"/>
        <pt x="749" y="1470" on="0"/>
        <pt x="838" y="1470" on="1"/>
        <pt x="911" y="1470" on="0"/>
        <pt x="1051" y="1458" on="0"/>
        <pt x="1169" y="1442" on="0"/>
        <pt x="1255" y="1426" on="0"/>
        <pt x="1275" y="1422" on="1"/>
        <pt x="1287" y="1419" on="0"/>
        <pt x="1287" y="1411" on="1"/>
        <pt x="1287" y="1409" on="0"/>
        <pt x="1285" y="1399" on="1"/>
        <pt x="1270" y="1327" on="1"/>
        <pt x="1268" y="1320" on="0"/>
        <pt x="1261" y="1317" on="0"/>
        <pt x="1258" y="1317" on="1"/>
        <pt x="1214" y="1317" on="0"/>
        <pt x="1150" y="1287" on="0"/>
        <pt x="1108" y="1233" on="0"/>
        <pt x="1086" y="1159" on="0"/>
        <pt x="1082" y="1116" on="1"/>
        <pt x="1022" y="389" on="1"/>
        <pt x="1014" y="301" on="0"/>
        <pt x="940" y="145" on="0"/>
        <pt x="808" y="29" on="0"/>
        <pt x="616" y="-39" on="0"/>
        <pt x="492" y="-39" on="1"/>
        <pt x="409" y="-39" on="0"/>
        <pt x="255" y="-23" on="0"/>
        <pt x="129" y="-1" on="0"/>
        <pt x="38" y="20" on="0"/>
        <pt x="18" y="25" on="1"/>
        <pt x="6" y="28" on="0"/>
        <pt x="6" y="36" on="1"/>
        <pt x="6" y="37" on="0"/>
        <pt x="8" y="47" on="1"/>
        <pt x="25" y="123" on="1"/>
        <pt x="27" y="130" on="0"/>
        <pt x="34" y="133" on="0"/>
        <pt x="37" y="133" on="1"/>
        <pt x="81" y="133" on="0"/>
        <pt x="156" y="159" on="0"/>
        <pt x="212" y="219" on="0"/>
        <pt x="249" y="315" on="0"/>
        <pt x="256" y="385" on="1"/>
      </contour>
      <contour>
        <pt x="635" y="56" on="1"/>
        <pt x="711" y="74" on="0"/>
        <pt x="822" y="145" on="0"/>
        <pt x="895" y="237" on="0"/>
        <pt x="934" y="340" on="0"/>
        <pt x="938" y="389" on="1"/>
        <pt x="998" y="1116" on="1"/>
        <pt x="1001" y="1156" on="0"/>
        <pt x="1020" y="1228" on="0"/>
        <pt x="1053" y="1286" on="0"/>
        <pt x="1104" y="1327" on="0"/>
        <pt x="1139" y="1335" on="1"/>
        <pt x="1068" y="1332" on="0"/>
        <pt x="983" y="1290" on="0"/>
        <pt x="937" y="1227" on="0"/>
        <pt x="920" y="1151" on="0"/>
        <pt x="917" y="1116" on="1"/>
        <pt x="856" y="389" on="1"/>
        <pt x="852" y="343" on="0"/>
        <pt x="819" y="248" on="0"/>
        <pt x="762" y="161" on="0"/>
        <pt x="684" y="84" on="0"/>
      </contour>
    </TTGlyph>
    <TTGlyph name="Sacute" xMin="22" yMin="-39" xMax="1303" yMax="1967">
      <component glyphName="S" x="16" y="0" flags="0x4"/>
      <component glyphName="acute" x="456" y="397" flags="0x4"/>
    </TTGlyph>
    <TTGlyph name="Scaron" xMin="22" yMin="-39" xMax="1303" yMax="1947">
      <component glyphName="S" x="16" y="0" flags="0x4"/>
      <component glyphName="caron" x="456" y="397" flags="0x4"/>
    </TTGlyph>
    <TTGlyph name="Scedilla" xMin="22" yMin="-571" xMax="1303" yMax="1470">
      <contour>
        <pt x="342" y="1092" on="1"/>
        <pt x="353" y="1201" on="0"/>
        <pt x="449" y="1347" on="0"/>
        <pt x="591" y="1434" on="0"/>
        <pt x="765" y="1470" on="0"/>
        <pt x="854" y="1470" on="1"/>
        <pt x="927" y="1470" on="0"/>
        <pt x="1067" y="1458" on="0"/>
        <pt x="1185" y="1442" on="0"/>
        <pt x="1271" y="1426" on="0"/>
        <pt x="1291" y="1422" on="1"/>
        <pt x="1303" y="1419" on="0"/>
        <pt x="1303" y="1411" on="1"/>
        <pt x="1301" y="1399" on="1"/>
        <pt x="1286" y="1327" on="1"/>
        <pt x="1284" y="1320" on="0"/>
        <pt x="1277" y="1317" on="0"/>
        <pt x="1274" y="1317" on="1"/>
        <pt x="1230" y="1317" on="0"/>
        <pt x="1166" y="1287" on="0"/>
        <pt x="1124" y="1233" on="0"/>
        <pt x="1102" y="1159" on="0"/>
        <pt x="1098" y="1116" on="1"/>
        <pt x="1038" y="389" on="1"/>
        <pt x="1031" y="309" on="0"/>
        <pt x="970" y="167" on="0"/>
        <pt x="861" y="55" on="0"/>
        <pt x="705" y="-21" on="0"/>
        <pt x="603" y="-33" on="1"/>
        <pt x="592" y="-87" on="1"/>
        <pt x="663" y="-98" on="0"/>
        <pt x="756" y="-143" on="0"/>
        <pt x="812" y="-205" on="0"/>
        <pt x="834" y="-278" on="0"/>
        <pt x="834" y="-317" on="1"/>
        <pt x="834" y="-388" on="0"/>
        <pt x="775" y="-485" on="0"/>
        <pt x="677" y="-545" on="0"/>
        <pt x="552" y="-571" on="0"/>
        <pt x="486" y="-571" on="1"/>
        <pt x="465" y="-571" on="0"/>
        <pt x="399" y="-566" on="0"/>
        <pt x="336" y="-550" on="0"/>
        <pt x="291" y="-523" on="0"/>
        <pt x="291" y="-500" on="1"/>
        <pt x="291" y="-404" on="1"/>
        <pt x="291" y="-394" on="0"/>
        <pt x="301" y="-387" on="0"/>
        <pt x="306" y="-387" on="1"/>
        <pt x="318" y="-387" on="0"/>
        <pt x="348" y="-397" on="0"/>
        <pt x="392" y="-409" on="0"/>
        <pt x="452" y="-419" on="0"/>
        <pt x="496" y="-419" on="1"/>
        <pt x="539" y="-419" on="0"/>
        <pt x="599" y="-402" on="0"/>
        <pt x="637" y="-372" on="0"/>
        <pt x="653" y="-334" on="0"/>
        <pt x="653" y="-313" on="1"/>
        <pt x="653" y="-288" on="0"/>
        <pt x="632" y="-247" on="0"/>
        <pt x="586" y="-218" on="0"/>
        <pt x="513" y="-202" on="0"/>
        <pt x="461" y="-202" on="1"/>
        <pt x="456" y="-202" on="0"/>
        <pt x="439" y="-199" on="0"/>
        <pt x="439" y="-183" on="1"/>
        <pt x="439" y="-180" on="0"/>
        <pt x="444" y="-152" on="0"/>
        <pt x="452" y="-112" on="0"/>
        <pt x="462" y="-63" on="0"/>
        <pt x="467" y="-38" on="1"/>
        <pt x="390" y="-36" on="0"/>
        <pt x="250" y="-19" on="0"/>
        <pt x="135" y="1" on="0"/>
        <pt x="53" y="20" on="0"/>
        <pt x="34" y="25" on="1"/>
        <pt x="22" y="28" on="0"/>
        <pt x="22" y="36" on="1"/>
        <pt x="24" y="47" on="1"/>
        <pt x="41" y="123" on="1"/>
        <pt x="43" y="130" on="0"/>
        <pt x="50" y="133" on="0"/>
        <pt x="53" y="133" on="1"/>
        <pt x="97" y="133" on="0"/>
        <pt x="172" y="159" on="0"/>
        <pt x="228" y="219" on="0"/>
        <pt x="265" y="315" on="0"/>
        <pt x="272" y="385" on="1"/>
      </contour>
      <contour>
        <pt x="635" y="56" on="1"/>
        <pt x="711" y="74" on="0"/>
        <pt x="822" y="145" on="0"/>
        <pt x="895" y="237" on="0"/>
        <pt x="934" y="340" on="0"/>
        <pt x="938" y="389" on="1"/>
        <pt x="998" y="1116" on="1"/>
        <pt x="1001" y="1156" on="0"/>
        <pt x="1020" y="1228" on="0"/>
        <pt x="1053" y="1286" on="0"/>
        <pt x="1104" y="1327" on="0"/>
        <pt x="1139" y="1335" on="1"/>
        <pt x="1068" y="1332" on="0"/>
        <pt x="983" y="1290" on="0"/>
        <pt x="937" y="1227" on="0"/>
        <pt x="920" y="1151" on="0"/>
        <pt x="917" y="1116" on="1"/>
        <pt x="856" y="389" on="1"/>
        <pt x="852" y="343" on="0"/>
        <pt x="819" y="248" on="0"/>
        <pt x="762" y="161" on="0"/>
        <pt x="684" y="84" on="0"/>
      </contour>
    </TTGlyph>
    <TTGlyph name="Scircumflex" xMin="22" yMin="-39" xMax="1303" yMax="1947">
      <component glyphName="S" x="16" y="0" flags="0x4"/>
      <component glyphName="circumflex" x="456" y="397" flags="0x4"/>
    </TTGlyph>
    <TTGlyph name="T" xMin="20" yMin="0" xMax="1393" yMax="1436">
      <contour>
        <pt x="334" y="1290" on="1"/>
        <pt x="269" y="1276" on="0"/>
        <pt x="214" y="1265" on="1"/>
        <pt x="190" y="1260" on="0"/>
        <pt x="143" y="1252" on="0"/>
        <pt x="101" y="1245" on="0"/>
        <pt x="68" y="1241" on="0"/>
        <pt x="60" y="1241" on="1"/>
        <pt x="43" y="1241" on="0"/>
        <pt x="20" y="1254" on="0"/>
        <pt x="20" y="1274" on="1"/>
        <pt x="20" y="1386" on="1"/>
        <pt x="20" y="1405" on="0"/>
        <pt x="52" y="1436" on="0"/>
        <pt x="86" y="1436" on="1"/>
        <pt x="1327" y="1436" on="1"/>
        <pt x="1361" y="1436" on="0"/>
        <pt x="1393" y="1405" on="0"/>
        <pt x="1393" y="1386" on="1"/>
        <pt x="1393" y="1274" on="1"/>
        <pt x="1393" y="1254" on="0"/>
        <pt x="1370" y="1241" on="0"/>
        <pt x="1353" y="1241" on="1"/>
        <pt x="1344" y="1241" on="0"/>
        <pt x="1312" y="1245" on="0"/>
        <pt x="1270" y="1252" on="0"/>
        <pt x="1223" y="1260" on="0"/>
        <pt x="1199" y="1265" on="1"/>
        <pt x="1144" y="1276" on="0"/>
        <pt x="1079" y="1290" on="1"/>
        <pt x="1079" y="137" on="1"/>
        <pt x="1079" y="103" on="0"/>
        <pt x="1067" y="52" on="0"/>
        <pt x="1034" y="17" on="0"/>
        <pt x="976" y="0" on="0"/>
        <pt x="931" y="0" on="1"/>
        <pt x="485" y="0" on="1"/>
        <pt x="438" y="0" on="0"/>
        <pt x="379" y="18" on="0"/>
        <pt x="346" y="52" on="0"/>
        <pt x="334" y="104" on="0"/>
        <pt x="334" y="139" on="1"/>
      </contour>
      <contour>
        <pt x="994" y="1311" on="1"/>
        <pt x="916" y="1328" on="1"/>
        <pt x="916" y="84" on="1"/>
        <pt x="940" y="84" on="0"/>
        <pt x="970" y="87" on="0"/>
        <pt x="988" y="100" on="0"/>
        <pt x="994" y="125" on="0"/>
        <pt x="994" y="148" on="1"/>
      </contour>
    </TTGlyph>
    <TTGlyph name="Tbar" xMin="20" yMin="0" xMax="1393" yMax="1436">
      <contour>
        <pt x="334" y="1290" on="1"/>
        <pt x="269" y="1276" on="0"/>
        <pt x="214" y="1265" on="1"/>
        <pt x="190" y="1260" on="0"/>
        <pt x="143" y="1252" on="0"/>
        <pt x="101" y="1245" on="0"/>
        <pt x="68" y="1241" on="0"/>
        <pt x="60" y="1241" on="1"/>
        <pt x="43" y="1241" on="0"/>
        <pt x="20" y="1254" on="0"/>
        <pt x="20" y="1274" on="1"/>
        <pt x="20" y="1386" on="1"/>
        <pt x="20" y="1405" on="0"/>
        <pt x="52" y="1436" on="0"/>
        <pt x="86" y="1436" on="1"/>
        <pt x="1327" y="1436" on="1"/>
        <pt x="1361" y="1436" on="0"/>
        <pt x="1393" y="1405" on="0"/>
        <pt x="1393" y="1386" on="1"/>
        <pt x="1393" y="1274" on="1"/>
        <pt x="1393" y="1254" on="0"/>
        <pt x="1370" y="1241" on="0"/>
        <pt x="1353" y="1241" on="1"/>
        <pt x="1344" y="1241" on="0"/>
        <pt x="1312" y="1245" on="0"/>
        <pt x="1270" y="1252" on="0"/>
        <pt x="1223" y="1260" on="0"/>
        <pt x="1199" y="1265" on="1"/>
        <pt x="1144" y="1276" on="0"/>
        <pt x="1079" y="1290" on="1"/>
        <pt x="1079" y="1013" on="1"/>
        <pt x="1303" y="1013" on="1"/>
        <pt x="1324" y="1013" on="0"/>
        <pt x="1324" y="992" on="1"/>
        <pt x="1324" y="891" on="1"/>
        <pt x="1324" y="869" on="0"/>
        <pt x="1303" y="869" on="1"/>
        <pt x="1079" y="869" on="1"/>
        <pt x="1079" y="137" on="1"/>
        <pt x="1079" y="103" on="0"/>
        <pt x="1067" y="52" on="0"/>
        <pt x="1034" y="17" on="0"/>
        <pt x="976" y="0" on="0"/>
        <pt x="931" y="0" on="1"/>
        <pt x="485" y="0" on="1"/>
        <pt x="438" y="0" on="0"/>
        <pt x="379" y="18" on="0"/>
        <pt x="346" y="52" on="0"/>
        <pt x="334" y="104" on="0"/>
        <pt x="334" y="139" on="1"/>
        <pt x="334" y="869" on="1"/>
        <pt x="110" y="869" on="1"/>
        <pt x="89" y="869" on="0"/>
        <pt x="89" y="891" on="1"/>
        <pt x="89" y="992" on="1"/>
        <pt x="89" y="1013" on="0"/>
        <pt x="110" y="1013" on="1"/>
        <pt x="334" y="1013" on="1"/>
      </contour>
      <contour>
        <pt x="994" y="1311" on="1"/>
        <pt x="916" y="1328" on="1"/>
        <pt x="916" y="84" on="1"/>
        <pt x="940" y="84" on="0"/>
        <pt x="970" y="87" on="0"/>
        <pt x="988" y="100" on="0"/>
        <pt x="994" y="125" on="0"/>
        <pt x="994" y="148" on="1"/>
      </contour>
    </TTGlyph>
    <TTGlyph name="Tcaron" xMin="20" yMin="0" xMax="1393" yMax="1919">
      <component glyphName="T" x="0" y="0" flags="0x204"/>
      <component glyphName="caron" x="305" y="369" flags="0x4"/>
    </TTGlyph>
    <TTGlyph name="Tcommaaccent" xMin="20" yMin="-512" xMax="1393" yMax="1436">
      <component glyphName="T" x="0" y="0" flags="0x204"/>
      <component glyphName="commaaccent" x="297" y="0" flags="0x4"/>
    </TTGlyph>
    <TTGlyph name="Thorn" xMin="92" yMin="0" xMax="1253" yMax="1436">
      <contour>
        <pt x="92" y="1296" on="1"/>
        <pt x="92" y="1331" on="0"/>
        <pt x="104" y="1383" on="0"/>
        <pt x="138" y="1418" on="0"/>
        <pt x="198" y="1436" on="0"/>
        <pt x="246" y="1436" on="1"/>
        <pt x="692" y="1436" on="1"/>
        <pt x="738" y="1436" on="0"/>
        <pt x="796" y="1419" on="0"/>
        <pt x="827" y="1385" on="0"/>
        <pt x="838" y="1333" on="0"/>
        <pt x="838" y="1298" on="1"/>
        <pt x="838" y="1157" on="1"/>
        <pt x="923" y="1145" on="0"/>
        <pt x="1074" y="1092" on="0"/>
        <pt x="1187" y="995" on="0"/>
        <pt x="1253" y="848" on="0"/>
        <pt x="1253" y="743" on="1"/>
        <pt x="1253" y="620" on="0"/>
        <pt x="1186" y="451" on="0"/>
        <pt x="1072" y="342" on="0"/>
        <pt x="921" y="283" on="0"/>
        <pt x="838" y="271" on="1"/>
        <pt x="838" y="133" on="1"/>
        <pt x="838" y="99" on="0"/>
        <pt x="828" y="49" on="0"/>
        <pt x="798" y="16" on="0"/>
        <pt x="745" y="0" on="0"/>
        <pt x="703" y="0" on="1"/>
        <pt x="225" y="0" on="1"/>
        <pt x="185" y="0" on="0"/>
        <pt x="134" y="18" on="0"/>
        <pt x="104" y="52" on="0"/>
        <pt x="92" y="104" on="0"/>
        <pt x="92" y="139" on="1"/>
      </contour>
      <contour>
        <pt x="1112" y="729" on="1"/>
        <pt x="1112" y="789" on="0"/>
        <pt x="1080" y="889" on="0"/>
        <pt x="1014" y="966" on="0"/>
        <pt x="910" y="1016" on="0"/>
        <pt x="838" y="1025" on="1"/>
        <pt x="838" y="403" on="1"/>
        <pt x="910" y="414" on="0"/>
        <pt x="1014" y="473" on="0"/>
        <pt x="1080" y="559" on="0"/>
        <pt x="1112" y="668" on="0"/>
      </contour>
      <contour>
        <pt x="753" y="1288" on="1"/>
        <pt x="753" y="1310" on="0"/>
        <pt x="747" y="1336" on="0"/>
        <pt x="729" y="1349" on="0"/>
        <pt x="699" y="1352" on="0"/>
        <pt x="675" y="1352" on="1"/>
        <pt x="675" y="84" on="1"/>
        <pt x="699" y="84" on="0"/>
        <pt x="729" y="87" on="0"/>
        <pt x="747" y="100" on="0"/>
        <pt x="753" y="125" on="0"/>
        <pt x="753" y="148" on="1"/>
      </contour>
    </TTGlyph>
    <TTGlyph name="U" xMin="92" yMin="-39" xMax="1202" yMax="1436">
      <contour>
        <pt x="1202" y="517" on="1"/>
        <pt x="1202" y="403" on="0"/>
        <pt x="1158" y="232" on="0"/>
        <pt x="1080" y="108" on="0"/>
        <pt x="974" y="28" on="0"/>
        <pt x="849" y="-20" on="0"/>
        <pt x="710" y="-39" on="0"/>
        <pt x="639" y="-39" on="1"/>
        <pt x="571" y="-39" on="0"/>
        <pt x="436" y="-22" on="0"/>
        <pt x="315" y="22" on="0"/>
        <pt x="211" y="100" on="0"/>
        <pt x="135" y="224" on="0"/>
        <pt x="92" y="398" on="0"/>
        <pt x="92" y="517" on="1"/>
        <pt x="92" y="1296" on="1"/>
        <pt x="92" y="1331" on="0"/>
        <pt x="104" y="1383" on="0"/>
        <pt x="138" y="1418" on="0"/>
        <pt x="198" y="1436" on="0"/>
        <pt x="246" y="1436" on="1"/>
        <pt x="692" y="1436" on="1"/>
        <pt x="750" y="1436" on="0"/>
        <pt x="811" y="1402" on="0"/>
        <pt x="836" y="1351" on="0"/>
        <pt x="838" y="1294" on="0"/>
        <pt x="838" y="1270" on="1"/>
        <pt x="838" y="149" on="1"/>
        <pt x="928" y="167" on="0"/>
        <pt x="1008" y="297" on="0"/>
        <pt x="1008" y="425" on="1"/>
        <pt x="1008" y="1389" on="1"/>
        <pt x="1008" y="1406" on="0"/>
        <pt x="1023" y="1436" on="0"/>
        <pt x="1049" y="1436" on="1"/>
        <pt x="1153" y="1436" on="1"/>
        <pt x="1162" y="1436" on="0"/>
        <pt x="1180" y="1434" on="0"/>
        <pt x="1194" y="1425" on="0"/>
        <pt x="1202" y="1406" on="0"/>
        <pt x="1202" y="1389" on="1"/>
      </contour>
      <contour>
        <pt x="753" y="1288" on="1"/>
        <pt x="753" y="1310" on="0"/>
        <pt x="747" y="1336" on="0"/>
        <pt x="729" y="1349" on="0"/>
        <pt x="699" y="1352" on="0"/>
        <pt x="675" y="1352" on="1"/>
        <pt x="675" y="138" on="1"/>
        <pt x="753" y="138" on="1"/>
      </contour>
    </TTGlyph>
    <TTGlyph name="Uacute" xMin="92" yMin="-39" xMax="1202" yMax="1939">
      <component glyphName="U" x="0" y="0" flags="0x204"/>
      <component glyphName="acute" x="272" y="369" flags="0x4"/>
    </TTGlyph>
    <TTGlyph name="Ubreve" xMin="92" yMin="-39" xMax="1202" yMax="1861">
      <component glyphName="U" x="0" y="0" flags="0x204"/>
      <component glyphName="breve" x="272" y="369" flags="0x4"/>
    </TTGlyph>
    <TTGlyph name="Ucircumflex" xMin="92" yMin="-39" xMax="1202" yMax="1919">
      <component glyphName="U" x="0" y="0" flags="0x204"/>
      <component glyphName="circumflex" x="272" y="369" flags="0x4"/>
    </TTGlyph>
    <TTGlyph name="Udieresis" xMin="92" yMin="-39" xMax="1202" yMax="1830">
      <component glyphName="U" x="0" y="0" flags="0x204"/>
      <component glyphName="dieresis" x="272" y="369" flags="0x4"/>
    </TTGlyph>
    <TTGlyph name="Ugrave" xMin="92" yMin="-39" xMax="1202" yMax="1939">
      <component glyphName="U" x="0" y="0" flags="0x204"/>
      <component glyphName="grave" x="272" y="369" flags="0x4"/>
    </TTGlyph>
    <TTGlyph name="Uhungarumlaut" xMin="92" yMin="-39" xMax="1202" yMax="1929">
      <component glyphName="U" x="0" y="0" flags="0x204"/>
      <component glyphName="hungarumlaut" x="291" y="369" flags="0x4"/>
    </TTGlyph>
    <TTGlyph name="Umacron" xMin="92" yMin="-39" xMax="1202" yMax="1799">
      <component glyphName="U" x="0" y="0" flags="0x204"/>
      <component glyphName="macron" x="272" y="369" flags="0x4"/>
    </TTGlyph>
    <TTGlyph name="Uogonek" xMin="92" yMin="-511" xMax="1202" yMax="1436">
      <contour>
        <pt x="838" y="149" on="1"/>
        <pt x="928" y="167" on="0"/>
        <pt x="1008" y="297" on="0"/>
        <pt x="1008" y="425" on="1"/>
        <pt x="1008" y="1389" on="1"/>
        <pt x="1008" y="1406" on="0"/>
        <pt x="1023" y="1436" on="0"/>
        <pt x="1049" y="1436" on="1"/>
        <pt x="1153" y="1436" on="1"/>
        <pt x="1162" y="1436" on="0"/>
        <pt x="1180" y="1434" on="0"/>
        <pt x="1194" y="1425" on="0"/>
        <pt x="1202" y="1406" on="0"/>
        <pt x="1202" y="1389" on="1"/>
        <pt x="1202" y="517" on="1"/>
        <pt x="1202" y="392" on="0"/>
        <pt x="1153" y="216" on="0"/>
        <pt x="1064" y="93" on="0"/>
        <pt x="939" y="13" on="0"/>
        <pt x="864" y="-15" on="1"/>
        <pt x="812" y="-35" on="0"/>
        <pt x="711" y="-94" on="0"/>
        <pt x="630" y="-162" on="0"/>
        <pt x="580" y="-233" on="0"/>
        <pt x="580" y="-263" on="1"/>
        <pt x="580" y="-284" on="0"/>
        <pt x="595" y="-319" on="0"/>
        <pt x="630" y="-345" on="0"/>
        <pt x="688" y="-359" on="0"/>
        <pt x="732" y="-359" on="1"/>
        <pt x="780" y="-359" on="0"/>
        <pt x="845" y="-349" on="0"/>
        <pt x="888" y="-337" on="0"/>
        <pt x="916" y="-327" on="0"/>
        <pt x="927" y="-327" on="1"/>
        <pt x="932" y="-327" on="0"/>
        <pt x="942" y="-334" on="0"/>
        <pt x="942" y="-344" on="1"/>
        <pt x="942" y="-440" on="1"/>
        <pt x="942" y="-458" on="0"/>
        <pt x="920" y="-473" on="0"/>
        <pt x="901" y="-481" on="1"/>
        <pt x="881" y="-489" on="0"/>
        <pt x="829" y="-501" on="0"/>
        <pt x="773" y="-508" on="0"/>
        <pt x="719" y="-511" on="0"/>
        <pt x="697" y="-511" on="1"/>
        <pt x="642" y="-511" on="0"/>
        <pt x="535" y="-489" on="0"/>
        <pt x="451" y="-437" on="0"/>
        <pt x="399" y="-351" on="0"/>
        <pt x="399" y="-287" on="1"/>
        <pt x="399" y="-221" on="0"/>
        <pt x="497" y="-90" on="0"/>
        <pt x="582" y="-37" on="1"/>
        <pt x="519" y="-34" on="0"/>
        <pt x="397" y="-11" on="0"/>
        <pt x="288" y="39" on="0"/>
        <pt x="196" y="119" on="0"/>
        <pt x="129" y="241" on="0"/>
        <pt x="92" y="407" on="0"/>
        <pt x="92" y="517" on="1"/>
        <pt x="92" y="1296" on="1"/>
        <pt x="92" y="1331" on="0"/>
        <pt x="104" y="1383" on="0"/>
        <pt x="138" y="1418" on="0"/>
        <pt x="198" y="1436" on="0"/>
        <pt x="246" y="1436" on="1"/>
        <pt x="692" y="1436" on="1"/>
        <pt x="750" y="1436" on="0"/>
        <pt x="811" y="1402" on="0"/>
        <pt x="836" y="1351" on="0"/>
        <pt x="838" y="1294" on="0"/>
        <pt x="838" y="1270" on="1"/>
      </contour>
      <contour>
        <pt x="753" y="1288" on="1"/>
        <pt x="753" y="1310" on="0"/>
        <pt x="747" y="1336" on="0"/>
        <pt x="729" y="1349" on="0"/>
        <pt x="699" y="1352" on="0"/>
        <pt x="675" y="1352" on="1"/>
        <pt x="675" y="138" on="1"/>
        <pt x="753" y="138" on="1"/>
      </contour>
    </TTGlyph>
    <TTGlyph name="Uring" xMin="92" yMin="-39" xMax="1202" yMax="2031">
      <component glyphName="U" x="0" y="0" flags="0x204"/>
      <component glyphName="ring" x="271" y="369" flags="0x4"/>
    </TTGlyph>
    <TTGlyph name="Utilde" xMin="92" yMin="-39" xMax="1202" yMax="1852">
      <component glyphName="U" x="0" y="0" flags="0x204"/>
      <component glyphName="tilde" x="272" y="369" flags="0x4"/>
    </TTGlyph>
    <TTGlyph name="V" xMin="0" yMin="0" xMax="1227" yMax="1436">
      <contour>
        <pt x="891" y="827" on="1"/>
        <pt x="1029" y="1354" on="1"/>
        <pt x="1033" y="1372" on="0"/>
        <pt x="1041" y="1402" on="0"/>
        <pt x="1054" y="1424" on="0"/>
        <pt x="1075" y="1436" on="0"/>
        <pt x="1093" y="1436" on="1"/>
        <pt x="1194" y="1436" on="1"/>
        <pt x="1209" y="1436" on="0"/>
        <pt x="1227" y="1424" on="0"/>
        <pt x="1227" y="1410" on="1"/>
        <pt x="1227" y="1391" on="0"/>
        <pt x="1217" y="1360" on="1"/>
        <pt x="799" y="94" on="1"/>
        <pt x="784" y="48" on="0"/>
        <pt x="743" y="0" on="0"/>
        <pt x="700" y="0" on="1"/>
        <pt x="561" y="0" on="1"/>
        <pt x="538" y="0" on="0"/>
        <pt x="508" y="18" on="0"/>
        <pt x="487" y="45" on="0"/>
        <pt x="474" y="77" on="0"/>
        <pt x="469" y="92" on="1"/>
        <pt x="10" y="1319" on="1"/>
        <pt x="0" y="1345" on="0"/>
        <pt x="0" y="1366" on="1"/>
        <pt x="0" y="1401" on="0"/>
        <pt x="44" y="1436" on="0"/>
        <pt x="68" y="1436" on="1"/>
        <pt x="635" y="1436" on="1"/>
        <pt x="660" y="1436" on="0"/>
        <pt x="695" y="1425" on="0"/>
        <pt x="719" y="1404" on="0"/>
        <pt x="735" y="1375" on="0"/>
        <pt x="740" y="1358" on="1"/>
      </contour>
      <contour>
        <pt x="664" y="1321" on="1"/>
        <pt x="659" y="1338" on="0"/>
        <pt x="637" y="1352" on="0"/>
        <pt x="620" y="1352" on="1"/>
        <pt x="575" y="1352" on="1"/>
        <pt x="811" y="522" on="1"/>
        <pt x="850" y="669" on="1"/>
      </contour>
    </TTGlyph>
    <TTGlyph name="W" xMin="0" yMin="0" xMax="1882" yMax="1436">
      <contour>
        <pt x="1524" y="729" on="1"/>
        <pt x="1686" y="1354" on="1"/>
        <pt x="1690" y="1372" on="0"/>
        <pt x="1698" y="1402" on="0"/>
        <pt x="1710" y="1424" on="0"/>
        <pt x="1730" y="1436" on="0"/>
        <pt x="1747" y="1436" on="1"/>
        <pt x="1846" y="1436" on="1"/>
        <pt x="1882" y="1436" on="0"/>
        <pt x="1882" y="1410" on="1"/>
        <pt x="1882" y="1391" on="0"/>
        <pt x="1872" y="1360" on="1"/>
        <pt x="1475" y="94" on="1"/>
        <pt x="1461" y="47" on="0"/>
        <pt x="1415" y="0" on="0"/>
        <pt x="1379" y="0" on="1"/>
        <pt x="1237" y="0" on="1"/>
        <pt x="1215" y="0" on="0"/>
        <pt x="1184" y="18" on="0"/>
        <pt x="1163" y="45" on="0"/>
        <pt x="1149" y="77" on="0"/>
        <pt x="1145" y="92" on="1"/>
        <pt x="964" y="681" on="1"/>
        <pt x="799" y="94" on="1"/>
        <pt x="786" y="47" on="0"/>
        <pt x="743" y="0" on="0"/>
        <pt x="708" y="0" on="1"/>
        <pt x="541" y="0" on="1"/>
        <pt x="518" y="0" on="0"/>
        <pt x="488" y="18" on="0"/>
        <pt x="467" y="45" on="0"/>
        <pt x="454" y="78" on="0"/>
        <pt x="449" y="92" on="1"/>
        <pt x="10" y="1319" on="1"/>
        <pt x="0" y="1345" on="0"/>
        <pt x="0" y="1368" on="1"/>
        <pt x="0" y="1403" on="0"/>
        <pt x="40" y="1436" on="0"/>
        <pt x="69" y="1436" on="1"/>
        <pt x="492" y="1436" on="1"/>
        <pt x="517" y="1436" on="0"/>
        <pt x="553" y="1423" on="0"/>
        <pt x="577" y="1405" on="0"/>
        <pt x="589" y="1384" on="0"/>
        <pt x="592" y="1376" on="1"/>
        <pt x="805" y="729" on="1"/>
        <pt x="871" y="982" on="1"/>
        <pt x="768" y="1319" on="1"/>
        <pt x="763" y="1333" on="0"/>
        <pt x="758" y="1359" on="0"/>
        <pt x="758" y="1370" on="1"/>
        <pt x="758" y="1405" on="0"/>
        <pt x="796" y="1436" on="0"/>
        <pt x="825" y="1436" on="1"/>
        <pt x="1249" y="1436" on="1"/>
        <pt x="1274" y="1436" on="0"/>
        <pt x="1309" y="1428" on="0"/>
        <pt x="1331" y="1413" on="0"/>
        <pt x="1345" y="1390" on="0"/>
        <pt x="1350" y="1376" on="1"/>
      </contour>
      <contour>
        <pt x="532" y="1319" on="1"/>
        <pt x="524" y="1342" on="0"/>
        <pt x="498" y="1352" on="0"/>
        <pt x="485" y="1352" on="1"/>
        <pt x="440" y="1352" on="1"/>
        <pt x="734" y="455" on="1"/>
        <pt x="769" y="593" on="1"/>
      </contour>
      <contour>
        <pt x="1290" y="1315" on="1"/>
        <pt x="1284" y="1338" on="0"/>
        <pt x="1266" y="1352" on="0"/>
        <pt x="1249" y="1352" on="1"/>
        <pt x="1203" y="1352" on="1"/>
        <pt x="1448" y="433" on="1"/>
        <pt x="1486" y="582" on="1"/>
      </contour>
    </TTGlyph>
    <TTGlyph name="Wacute" xMin="0" yMin="0" xMax="1882" yMax="1939">
      <component glyphName="W" x="0" y="0" flags="0x204"/>
      <component glyphName="acute" x="610" y="369" flags="0x4"/>
    </TTGlyph>
    <TTGlyph name="Wcircumflex" xMin="0" yMin="0" xMax="1882" yMax="1919">
      <component glyphName="W" x="0" y="0" flags="0x204"/>
      <component glyphName="circumflex" x="610" y="369" flags="0x4"/>
    </TTGlyph>
    <TTGlyph name="Wdieresis" xMin="0" yMin="0" xMax="1882" yMax="1830">
      <component glyphName="W" x="0" y="0" flags="0x204"/>
      <component glyphName="dieresis" x="610" y="369" flags="0x4"/>
    </TTGlyph>
    <TTGlyph name="Wgrave" xMin="0" yMin="0" xMax="1882" yMax="1939">
      <component glyphName="W" x="0" y="0" flags="0x204"/>
      <component glyphName="grave" x="610" y="369" flags="0x4"/>
    </TTGlyph>
    <TTGlyph name="X" xMin="21" yMin="0" xMax="1347" yMax="1436">
      <contour>
        <pt x="443" y="427" on="1"/>
        <pt x="264" y="82" on="1"/>
        <pt x="255" y="65" on="0"/>
        <pt x="239" y="36" on="0"/>
        <pt x="218" y="13" on="0"/>
        <pt x="190" y="0" on="0"/>
        <pt x="170" y="0" on="1"/>
        <pt x="55" y="0" on="1"/>
        <pt x="40" y="0" on="0"/>
        <pt x="21" y="15" on="0"/>
        <pt x="21" y="30" on="1"/>
        <pt x="21" y="48" on="0"/>
        <pt x="37" y="76" on="1"/>
        <pt x="349" y="634" on="1"/>
        <pt x="39" y="1319" on="1"/>
        <pt x="27" y="1346" on="0"/>
        <pt x="27" y="1367" on="1"/>
        <pt x="27" y="1402" on="0"/>
        <pt x="72" y="1436" on="0"/>
        <pt x="96" y="1436" on="1"/>
        <pt x="664" y="1436" on="1"/>
        <pt x="689" y="1436" on="0"/>
        <pt x="724" y="1423" on="0"/>
        <pt x="747" y="1405" on="0"/>
        <pt x="760" y="1384" on="0"/>
        <pt x="764" y="1376" on="1"/>
        <pt x="888" y="1102" on="1"/>
        <pt x="1018" y="1354" on="1"/>
        <pt x="1027" y="1370" on="0"/>
        <pt x="1043" y="1400" on="0"/>
        <pt x="1064" y="1423" on="0"/>
        <pt x="1092" y="1436" on="0"/>
        <pt x="1112" y="1436" on="1"/>
        <pt x="1227" y="1436" on="1"/>
        <pt x="1243" y="1436" on="0"/>
        <pt x="1262" y="1421" on="0"/>
        <pt x="1262" y="1406" on="1"/>
        <pt x="1262" y="1389" on="0"/>
        <pt x="1245" y="1360" on="1"/>
        <pt x="983" y="891" on="1"/>
        <pt x="1335" y="117" on="1"/>
        <pt x="1347" y="90" on="0"/>
        <pt x="1347" y="69" on="1"/>
        <pt x="1347" y="52" on="0"/>
        <pt x="1334" y="26" on="0"/>
        <pt x="1314" y="9" on="0"/>
        <pt x="1290" y="0" on="0"/>
        <pt x="1278" y="0" on="1"/>
        <pt x="711" y="0" on="1"/>
        <pt x="685" y="0" on="0"/>
        <pt x="651" y="13" on="0"/>
        <pt x="628" y="31" on="0"/>
        <pt x="614" y="51" on="0"/>
        <pt x="610" y="59" on="1"/>
      </contour>
      <contour>
        <pt x="698" y="1319" on="1"/>
        <pt x="688" y="1342" on="0"/>
        <pt x="664" y="1352" on="0"/>
        <pt x="651" y="1352" on="1"/>
        <pt x="602" y="1352" on="1"/>
        <pt x="1178" y="84" on="1"/>
        <pt x="1214" y="84" on="1"/>
        <pt x="1231" y="84" on="0"/>
        <pt x="1255" y="100" on="0"/>
        <pt x="1244" y="124" on="1"/>
      </contour>
    </TTGlyph>
    <TTGlyph name="Y" xMin="0" yMin="0" xMax="1249" yMax="1436">
      <contour>
        <pt x="264" y="760" on="1"/>
        <pt x="10" y="1319" on="1"/>
        <pt x="4" y="1333" on="0"/>
        <pt x="0" y="1355" on="0"/>
        <pt x="0" y="1366" on="1"/>
        <pt x="0" y="1401" on="0"/>
        <pt x="44" y="1436" on="0"/>
        <pt x="68" y="1436" on="1"/>
        <pt x="614" y="1436" on="1"/>
        <pt x="639" y="1436" on="0"/>
        <pt x="675" y="1423" on="0"/>
        <pt x="699" y="1405" on="0"/>
        <pt x="712" y="1384" on="0"/>
        <pt x="715" y="1376" on="1"/>
        <pt x="891" y="893" on="1"/>
        <pt x="1051" y="1354" on="1"/>
        <pt x="1057" y="1371" on="0"/>
        <pt x="1068" y="1401" on="0"/>
        <pt x="1083" y="1423" on="0"/>
        <pt x="1105" y="1436" on="0"/>
        <pt x="1123" y="1436" on="1"/>
        <pt x="1215" y="1436" on="1"/>
        <pt x="1229" y="1436" on="0"/>
        <pt x="1249" y="1424" on="0"/>
        <pt x="1249" y="1410" on="1"/>
        <pt x="1249" y="1391" on="0"/>
        <pt x="1237" y="1360" on="1"/>
        <pt x="1010" y="782" on="1"/>
        <pt x="1010" y="140" on="1"/>
        <pt x="1010" y="105" on="0"/>
        <pt x="996" y="53" on="0"/>
        <pt x="963" y="18" on="0"/>
        <pt x="908" y="0" on="0"/>
        <pt x="866" y="0" on="1"/>
        <pt x="394" y="0" on="1"/>
        <pt x="355" y="0" on="0"/>
        <pt x="305" y="18" on="0"/>
        <pt x="276" y="52" on="0"/>
        <pt x="264" y="104" on="0"/>
        <pt x="264" y="139" on="1"/>
      </contour>
      <contour>
        <pt x="847" y="84" on="1"/>
        <pt x="871" y="84" on="0"/>
        <pt x="901" y="87" on="0"/>
        <pt x="919" y="100" on="0"/>
        <pt x="925" y="125" on="0"/>
        <pt x="925" y="148" on="1"/>
        <pt x="925" y="560" on="1"/>
        <pt x="646" y="1321" on="1"/>
        <pt x="640" y="1338" on="0"/>
        <pt x="619" y="1352" on="0"/>
        <pt x="602" y="1352" on="1"/>
        <pt x="554" y="1352" on="1"/>
        <pt x="847" y="552" on="1"/>
      </contour>
    </TTGlyph>
    <TTGlyph name="Yacute" xMin="0" yMin="0" xMax="1249" yMax="1939">
      <component glyphName="Y" x="0" y="0" flags="0x204"/>
      <component glyphName="acute" x="306" y="369" flags="0x4"/>
    </TTGlyph>
    <TTGlyph name="Ycircumflex" xMin="0" yMin="0" xMax="1249" yMax="1919">
      <component glyphName="Y" x="0" y="0" flags="0x204"/>
      <component glyphName="circumflex" x="306" y="369" flags="0x4"/>
    </TTGlyph>
    <TTGlyph name="Ydieresis" xMin="0" yMin="0" xMax="1249" yMax="1830">
      <component glyphName="Y" x="0" y="0" flags="0x204"/>
      <component glyphName="dieresis" x="306" y="369" flags="0x4"/>
    </TTGlyph>
    <TTGlyph name="Ygrave" xMin="0" yMin="0" xMax="1249" yMax="1939">
      <component glyphName="Y" x="0" y="0" flags="0x204"/>
      <component glyphName="grave" x="306" y="369" flags="0x4"/>
    </TTGlyph>
    <TTGlyph name="Z" xMin="55" yMin="0" xMax="1266" yMax="1436">
      <contour>
        <pt x="106" y="1386" on="1"/>
        <pt x="106" y="1405" on="0"/>
        <pt x="130" y="1436" on="0"/>
        <pt x="164" y="1436" on="1"/>
        <pt x="1187" y="1436" on="1"/>
        <pt x="1225" y="1436" on="0"/>
        <pt x="1266" y="1412" on="0"/>
        <pt x="1266" y="1378" on="1"/>
        <pt x="1266" y="1358" on="0"/>
        <pt x="1250" y="1307" on="0"/>
        <pt x="1241" y="1284" on="1"/>
        <pt x="807" y="154" on="1"/>
        <pt x="913" y="171" on="0"/>
        <pt x="999" y="184" on="1"/>
        <pt x="1036" y="190" on="0"/>
        <pt x="1108" y="201" on="0"/>
        <pt x="1169" y="210" on="0"/>
        <pt x="1212" y="215" on="0"/>
        <pt x="1219" y="215" on="1"/>
        <pt x="1236" y="215" on="0"/>
        <pt x="1262" y="202" on="0"/>
        <pt x="1262" y="182" on="1"/>
        <pt x="1262" y="49" on="1"/>
        <pt x="1262" y="31" on="0"/>
        <pt x="1238" y="0" on="0"/>
        <pt x="1204" y="0" on="1"/>
        <pt x="137" y="0" on="1"/>
        <pt x="88" y="0" on="0"/>
        <pt x="55" y="37" on="0"/>
        <pt x="55" y="61" on="1"/>
        <pt x="55" y="90" on="0"/>
        <pt x="75" y="149" on="0"/>
        <pt x="92" y="193" on="1"/>
        <pt x="512" y="1282" on="1"/>
        <pt x="422" y="1264" on="0"/>
        <pt x="347" y="1251" on="1"/>
        <pt x="315" y="1245" on="0"/>
        <pt x="251" y="1235" on="0"/>
        <pt x="197" y="1226" on="0"/>
        <pt x="157" y="1221" on="0"/>
        <pt x="149" y="1221" on="1"/>
        <pt x="132" y="1221" on="0"/>
        <pt x="106" y="1233" on="0"/>
        <pt x="106" y="1253" on="1"/>
      </contour>
      <contour>
        <pt x="1154" y="1300" on="1"/>
        <pt x="1161" y="1319" on="0"/>
        <pt x="1161" y="1329" on="1"/>
        <pt x="1161" y="1340" on="0"/>
        <pt x="1148" y="1352" on="0"/>
        <pt x="1131" y="1352" on="1"/>
        <pt x="1089" y="1352" on="1"/>
        <pt x="617" y="124" on="1"/>
        <pt x="706" y="137" on="1"/>
      </contour>
    </TTGlyph>
    <TTGlyph name="Zacute" xMin="55" yMin="0" xMax="1266" yMax="1939">
      <component glyphName="Z" x="0" y="0" flags="0x204"/>
      <component glyphName="acute" x="314" y="369" flags="0x4"/>
    </TTGlyph>
    <TTGlyph name="Zcaron" xMin="55" yMin="0" xMax="1266" yMax="1919">
      <component glyphName="Z" x="0" y="0" flags="0x204"/>
      <component glyphName="caron" x="314" y="369" flags="0x4"/>
    </TTGlyph>
    <TTGlyph name="Zdotaccent" xMin="55" yMin="0" xMax="1266" yMax="1847">
      <component glyphName="Z" x="0" y="0" flags="0x204"/>
      <component glyphName="dotaccent" x="314" y="369" flags="0x4"/>
    </TTGlyph>
    <TTGlyph name="a" xMin="63" yMin="0" xMax="1198" yMax="1033">
      <contour>
        <pt x="510" y="0" on="1"/>
        <pt x="456" y="0" on="0"/>
        <pt x="347" y="14" on="0"/>
        <pt x="248" y="45" on="0"/>
        <pt x="162" y="95" on="0"/>
        <pt x="99" y="169" on="0"/>
        <pt x="63" y="269" on="0"/>
        <pt x="63" y="334" on="1"/>
        <pt x="63" y="421" on="0"/>
        <pt x="129" y="545" on="0"/>
        <pt x="240" y="627" on="0"/>
        <pt x="384" y="671" on="0"/>
        <pt x="461" y="677" on="1"/>
        <pt x="461" y="746" on="1"/>
        <pt x="461" y="785" on="0"/>
        <pt x="441" y="831" on="0"/>
        <pt x="410" y="854" on="0"/>
        <pt x="373" y="861" on="0"/>
        <pt x="356" y="861" on="1"/>
        <pt x="336" y="861" on="0"/>
        <pt x="291" y="849" on="0"/>
        <pt x="249" y="832" on="0"/>
        <pt x="211" y="812" on="0"/>
        <pt x="198" y="804" on="1"/>
        <pt x="192" y="800" on="0"/>
        <pt x="182" y="794" on="0"/>
        <pt x="177" y="794" on="1"/>
        <pt x="168" y="794" on="0"/>
        <pt x="160" y="807" on="1"/>
        <pt x="126" y="861" on="1"/>
        <pt x="121" y="868" on="0"/>
        <pt x="121" y="876" on="1"/>
        <pt x="121" y="884" on="0"/>
        <pt x="134" y="896" on="0"/>
        <pt x="140" y="900" on="1"/>
        <pt x="173" y="923" on="0"/>
        <pt x="275" y="971" on="0"/>
        <pt x="402" y="1009" on="0"/>
        <pt x="550" y="1033" on="0"/>
        <pt x="629" y="1033" on="1"/>
        <pt x="704" y="1033" on="0"/>
        <pt x="847" y="1023" on="0"/>
        <pt x="974" y="990" on="0"/>
        <pt x="1079" y="929" on="0"/>
        <pt x="1156" y="829" on="0"/>
        <pt x="1198" y="683" on="0"/>
        <pt x="1198" y="581" on="1"/>
        <pt x="1198" y="135" on="1"/>
        <pt x="1198" y="102" on="0"/>
        <pt x="1186" y="51" on="0"/>
        <pt x="1152" y="17" on="0"/>
        <pt x="1092" y="0" on="0"/>
        <pt x="1044" y="0" on="1"/>
      </contour>
      <contour>
        <pt x="461" y="550" on="1"/>
        <pt x="389" y="550" on="0"/>
        <pt x="291" y="514" on="0"/>
        <pt x="231" y="454" on="0"/>
        <pt x="205" y="375" on="0"/>
        <pt x="205" y="333" on="1"/>
        <pt x="205" y="291" on="0"/>
        <pt x="231" y="216" on="0"/>
        <pt x="291" y="160" on="0"/>
        <pt x="389" y="128" on="0"/>
        <pt x="461" y="128" on="1"/>
      </contour>
      <contour>
        <pt x="1035" y="84" on="1"/>
        <pt x="1059" y="84" on="0"/>
        <pt x="1089" y="87" on="0"/>
        <pt x="1107" y="100" on="0"/>
        <pt x="1113" y="125" on="0"/>
        <pt x="1113" y="148" on="1"/>
        <pt x="1113" y="603" on="1"/>
        <pt x="1113" y="684" on="0"/>
        <pt x="1079" y="795" on="0"/>
        <pt x="1028" y="866" on="0"/>
        <pt x="968" y="903" on="0"/>
        <pt x="942" y="912" on="1"/>
        <pt x="954" y="899" on="0"/>
        <pt x="987" y="851" on="0"/>
        <pt x="1015" y="777" on="0"/>
        <pt x="1035" y="674" on="0"/>
        <pt x="1035" y="607" on="1"/>
      </contour>
    </TTGlyph>
    <TTGlyph name="aacute" xMin="63" yMin="0" xMax="1198" yMax="1570">
      <component glyphName="a" x="0" y="0" flags="0x204"/>
      <component glyphName="acute" x="258" y="0" flags="0x4"/>
    </TTGlyph>
    <TTGlyph name="abreve" xMin="63" yMin="0" xMax="1198" yMax="1492">
      <component glyphName="a" x="0" y="0" flags="0x204"/>
      <component glyphName="breve" x="258" y="0" flags="0x4"/>
    </TTGlyph>
    <TTGlyph name="acircumflex" xMin="63" yMin="0" xMax="1198" yMax="1550">
      <component glyphName="a" x="0" y="0" flags="0x204"/>
      <component glyphName="circumflex" x="258" y="0" flags="0x4"/>
    </TTGlyph>
    <TTGlyph name="acute" xMin="214" yMin="1159" xMax="705" yMax="1570">
      <contour>
        <pt x="317" y="1165" on="1"/>
        <pt x="313" y="1163" on="0"/>
        <pt x="307" y="1159" on="0"/>
        <pt x="304" y="1159" on="1"/>
        <pt x="293" y="1159" on="0"/>
        <pt x="287" y="1169" on="1"/>
        <pt x="220" y="1267" on="1"/>
        <pt x="214" y="1274" on="0"/>
        <pt x="214" y="1281" on="1"/>
        <pt x="214" y="1288" on="0"/>
        <pt x="223" y="1296" on="1"/>
        <pt x="577" y="1564" on="1"/>
        <pt x="584" y="1570" on="0"/>
        <pt x="591" y="1570" on="1"/>
        <pt x="598" y="1570" on="0"/>
        <pt x="606" y="1561" on="1"/>
        <pt x="698" y="1431" on="1"/>
        <pt x="705" y="1423" on="0"/>
        <pt x="705" y="1416" on="1"/>
        <pt x="705" y="1407" on="0"/>
        <pt x="696" y="1401" on="1"/>
      </contour>
    </TTGlyph>
    <TTGlyph name="adieresis" xMin="63" yMin="0" xMax="1198" yMax="1461">
      <component glyphName="a" x="0" y="0" flags="0x204"/>
      <component glyphName="dieresis" x="258" y="0" flags="0x4"/>
    </TTGlyph>
    <TTGlyph name="ae" xMin="53" yMin="-35" xMax="1639" yMax="1059">
      <contour>
        <pt x="451" y="115" on="1"/>
        <pt x="489" y="115" on="0"/>
        <pt x="560" y="126" on="0"/>
        <pt x="586" y="137" on="1"/>
        <pt x="524" y="200" on="0"/>
        <pt x="453" y="388" on="0"/>
        <pt x="453" y="516" on="1"/>
        <pt x="453" y="567" on="1"/>
        <pt x="381" y="562" on="0"/>
        <pt x="283" y="521" on="0"/>
        <pt x="222" y="460" on="0"/>
        <pt x="195" y="384" on="0"/>
        <pt x="195" y="342" on="1"/>
        <pt x="195" y="297" on="0"/>
        <pt x="222" y="215" on="0"/>
        <pt x="283" y="152" on="0"/>
        <pt x="381" y="115" on="0"/>
      </contour>
      <contour>
        <pt x="1342" y="819" on="1"/>
        <pt x="1319" y="819" on="0"/>
        <pt x="1265" y="801" on="0"/>
        <pt x="1218" y="743" on="0"/>
        <pt x="1185" y="635" on="0"/>
        <pt x="1182" y="545" on="1"/>
        <pt x="1497" y="545" on="1"/>
        <pt x="1497" y="625" on="0"/>
        <pt x="1472" y="730" on="0"/>
        <pt x="1430" y="793" on="0"/>
        <pt x="1373" y="819" on="0"/>
      </contour>
      <contour>
        <pt x="357" y="877" on="1"/>
        <pt x="336" y="877" on="0"/>
        <pt x="289" y="864" on="0"/>
        <pt x="244" y="846" on="0"/>
        <pt x="205" y="825" on="0"/>
        <pt x="191" y="817" on="1"/>
        <pt x="185" y="813" on="0"/>
        <pt x="175" y="807" on="0"/>
        <pt x="170" y="807" on="1"/>
        <pt x="161" y="807" on="0"/>
        <pt x="153" y="820" on="1"/>
        <pt x="119" y="875" on="1"/>
        <pt x="114" y="882" on="0"/>
        <pt x="114" y="890" on="1"/>
        <pt x="114" y="898" on="0"/>
        <pt x="127" y="910" on="0"/>
        <pt x="133" y="914" on="1"/>
        <pt x="166" y="937" on="0"/>
        <pt x="268" y="988" on="0"/>
        <pt x="396" y="1031" on="0"/>
        <pt x="546" y="1059" on="0"/>
        <pt x="627" y="1059" on="1"/>
        <pt x="676" y="1059" on="0"/>
        <pt x="752" y="1049" on="0"/>
        <pt x="813" y="1029" on="0"/>
        <pt x="863" y="1002" on="0"/>
        <pt x="887" y="985" on="1"/>
        <pt x="937" y="1016" on="0"/>
        <pt x="1078" y="1059" on="0"/>
        <pt x="1163" y="1059" on="1"/>
        <pt x="1217" y="1059" on="0"/>
        <pt x="1330" y="1038" on="0"/>
        <pt x="1436" y="988" on="0"/>
        <pt x="1529" y="904" on="0"/>
        <pt x="1599" y="780" on="0"/>
        <pt x="1639" y="610" on="0"/>
        <pt x="1639" y="499" on="1"/>
        <pt x="1639" y="422" on="1"/>
        <pt x="1186" y="422" on="1"/>
        <pt x="1195" y="347" on="0"/>
        <pt x="1235" y="249" on="0"/>
        <pt x="1288" y="190" on="0"/>
        <pt x="1349" y="166" on="0"/>
        <pt x="1378" y="166" on="1"/>
        <pt x="1408" y="166" on="0"/>
        <pt x="1455" y="182" on="0"/>
        <pt x="1490" y="202" on="0"/>
        <pt x="1512" y="218" on="0"/>
        <pt x="1517" y="218" on="1"/>
        <pt x="1525" y="218" on="0"/>
        <pt x="1533" y="206" on="1"/>
        <pt x="1569" y="147" on="1"/>
        <pt x="1571" y="143" on="0"/>
        <pt x="1575" y="136" on="0"/>
        <pt x="1575" y="133" on="1"/>
        <pt x="1575" y="126" on="0"/>
        <pt x="1565" y="117" on="0"/>
        <pt x="1562" y="115" on="1"/>
        <pt x="1529" y="88" on="0"/>
        <pt x="1427" y="34" on="0"/>
        <pt x="1295" y="-9" on="0"/>
        <pt x="1138" y="-35" on="0"/>
        <pt x="1051" y="-35" on="1"/>
        <pt x="960" y="-35" on="0"/>
        <pt x="795" y="1" on="0"/>
        <pt x="717" y="41" on="1"/>
        <pt x="651" y="13" on="0"/>
        <pt x="515" y="-14" on="0"/>
        <pt x="449" y="-14" on="1"/>
        <pt x="362" y="-14" on="0"/>
        <pt x="216" y="32" on="0"/>
        <pt x="111" y="122" on="0"/>
        <pt x="53" y="255" on="0"/>
        <pt x="53" y="342" on="1"/>
        <pt x="53" y="434" on="0"/>
        <pt x="121" y="562" on="0"/>
        <pt x="233" y="644" on="0"/>
        <pt x="377" y="686" on="0"/>
        <pt x="453" y="693" on="1"/>
        <pt x="453" y="758" on="1"/>
        <pt x="453" y="797" on="0"/>
        <pt x="438" y="844" on="0"/>
        <pt x="412" y="869" on="0"/>
        <pt x="377" y="877" on="0"/>
      </contour>
      <contour>
        <pt x="1313" y="109" on="1"/>
        <pt x="1281" y="116" on="0"/>
        <pt x="1205" y="159" on="0"/>
        <pt x="1139" y="249" on="0"/>
        <pt x="1095" y="395" on="0"/>
        <pt x="1095" y="505" on="1"/>
        <pt x="1095" y="606" on="0"/>
        <pt x="1134" y="746" on="0"/>
        <pt x="1196" y="836" on="0"/>
        <pt x="1274" y="881" on="0"/>
        <pt x="1313" y="887" on="1"/>
        <pt x="1253" y="885" on="0"/>
        <pt x="1144" y="842" on="0"/>
        <pt x="1061" y="750" on="0"/>
        <pt x="1013" y="606" on="0"/>
        <pt x="1013" y="505" on="1"/>
        <pt x="1013" y="397" on="0"/>
        <pt x="1069" y="246" on="0"/>
        <pt x="1156" y="151" on="0"/>
        <pt x="1262" y="109" on="0"/>
      </contour>
    </TTGlyph>
    <TTGlyph name="aeacute" xMin="53" yMin="-35" xMax="1639" yMax="1570">
      <component glyphName="ae" x="0" y="0" flags="0x204"/>
      <component glyphName="acute" x="478" y="0" flags="0x4"/>
    </TTGlyph>
    <TTGlyph name="agrave" xMin="63" yMin="0" xMax="1198" yMax="1570">
      <component glyphName="a" x="0" y="0" flags="0x204"/>
      <component glyphName="grave" x="258" y="0" flags="0x4"/>
    </TTGlyph>
    <TTGlyph name="amacron" xMin="63" yMin="0" xMax="1198" yMax="1430">
      <component glyphName="a" x="0" y="0" flags="0x204"/>
      <component glyphName="macron" x="258" y="0" flags="0x4"/>
    </TTGlyph>
    <TTGlyph name="ampersand" xMin="60" yMin="-14" xMax="1420" yMax="1444">
      <contour>
        <pt x="435" y="584" on="1"/>
        <pt x="358" y="599" on="0"/>
        <pt x="222" y="662" on="0"/>
        <pt x="120" y="761" on="0"/>
        <pt x="60" y="899" on="0"/>
        <pt x="60" y="989" on="1"/>
        <pt x="60" y="1081" on="0"/>
        <pt x="144" y="1246" on="0"/>
        <pt x="307" y="1371" on="0"/>
        <pt x="546" y="1444" on="0"/>
        <pt x="701" y="1444" on="1"/>
        <pt x="786" y="1444" on="0"/>
        <pt x="945" y="1422" on="0"/>
        <pt x="1097" y="1372" on="0"/>
        <pt x="1241" y="1290" on="0"/>
        <pt x="1311" y="1230" on="1"/>
        <pt x="1313" y="1228" on="0"/>
        <pt x="1318" y="1223" on="0"/>
        <pt x="1318" y="1218" on="1"/>
        <pt x="1318" y="1215" on="0"/>
        <pt x="1315" y="1209" on="1"/>
        <pt x="1253" y="1108" on="1"/>
        <pt x="1248" y="1102" on="0"/>
        <pt x="1244" y="1102" on="1"/>
        <pt x="1239" y="1102" on="0"/>
        <pt x="1236" y="1105" on="1"/>
        <pt x="1213" y="1126" on="0"/>
        <pt x="1130" y="1188" on="0"/>
        <pt x="1019" y="1246" on="0"/>
        <pt x="886" y="1288" on="0"/>
        <pt x="813" y="1288" on="1"/>
        <pt x="783" y="1288" on="0"/>
        <pt x="765" y="1267" on="0"/>
        <pt x="765" y="1249" on="1"/>
        <pt x="765" y="689" on="1"/>
        <pt x="765" y="673" on="0"/>
        <pt x="785" y="647" on="0"/>
        <pt x="808" y="647" on="1"/>
        <pt x="1397" y="647" on="1"/>
        <pt x="1407" y="647" on="0"/>
        <pt x="1420" y="635" on="0"/>
        <pt x="1420" y="624" on="1"/>
        <pt x="1420" y="531" on="1"/>
        <pt x="1420" y="508" on="0"/>
        <pt x="1397" y="508" on="1"/>
        <pt x="1304" y="508" on="1"/>
        <pt x="1293" y="359" on="0"/>
        <pt x="1205" y="159" on="0"/>
        <pt x="1055" y="37" on="0"/>
        <pt x="846" y="-14" on="0"/>
        <pt x="715" y="-14" on="1"/>
        <pt x="595" y="-14" on="0"/>
        <pt x="390" y="25" on="0"/>
        <pt x="242" y="105" on="0"/>
        <pt x="158" y="227" on="0"/>
        <pt x="158" y="309" on="1"/>
        <pt x="158" y="369" on="0"/>
        <pt x="201" y="464" on="0"/>
        <pt x="276" y="533" on="0"/>
        <pt x="377" y="576" on="0"/>
      </contour>
      <contour>
        <pt x="762" y="180" on="1"/>
        <pt x="762" y="162" on="0"/>
        <pt x="777" y="142" on="0"/>
        <pt x="798" y="134" on="0"/>
        <pt x="822" y="133" on="0"/>
        <pt x="830" y="133" on="1"/>
        <pt x="906" y="133" on="0"/>
        <pt x="1018" y="182" on="0"/>
        <pt x="1094" y="277" on="0"/>
        <pt x="1137" y="417" on="0"/>
        <pt x="1144" y="508" on="1"/>
        <pt x="806" y="508" on="1"/>
        <pt x="777" y="508" on="0"/>
        <pt x="762" y="482" on="0"/>
        <pt x="762" y="463" on="1"/>
      </contour>
      <contour>
        <pt x="680" y="1288" on="1"/>
        <pt x="677" y="1288" on="0"/>
        <pt x="660" y="1286" on="0"/>
        <pt x="638" y="1283" on="0"/>
        <pt x="614" y="1278" on="0"/>
        <pt x="602" y="1273" on="1"/>
        <pt x="602" y="142" on="1"/>
        <pt x="611" y="140" on="0"/>
        <pt x="634" y="137" on="0"/>
        <pt x="656" y="135" on="0"/>
        <pt x="675" y="133" on="0"/>
        <pt x="680" y="133" on="1"/>
      </contour>
    </TTGlyph>
    <TTGlyph name="aogonek" xMin="63" yMin="-471" xMax="1198" yMax="1033">
      <contour>
        <pt x="1198" y="135" on="1"/>
        <pt x="1198" y="103" on="0"/>
        <pt x="1190" y="61" on="0"/>
        <pt x="1166" y="29" on="0"/>
        <pt x="1119" y="5" on="0"/>
        <pt x="1080" y="-7" on="1"/>
        <pt x="1030" y="-23" on="0"/>
        <pt x="941" y="-76" on="0"/>
        <pt x="875" y="-136" on="0"/>
        <pt x="836" y="-198" on="0"/>
        <pt x="836" y="-223" on="1"/>
        <pt x="836" y="-244" on="0"/>
        <pt x="851" y="-279" on="0"/>
        <pt x="886" y="-305" on="0"/>
        <pt x="944" y="-319" on="0"/>
        <pt x="988" y="-319" on="1"/>
        <pt x="1036" y="-319" on="0"/>
        <pt x="1101" y="-309" on="0"/>
        <pt x="1144" y="-297" on="0"/>
        <pt x="1172" y="-287" on="0"/>
        <pt x="1183" y="-287" on="1"/>
        <pt x="1188" y="-287" on="0"/>
        <pt x="1198" y="-294" on="0"/>
        <pt x="1198" y="-304" on="1"/>
        <pt x="1198" y="-400" on="1"/>
        <pt x="1198" y="-418" on="0"/>
        <pt x="1176" y="-433" on="0"/>
        <pt x="1157" y="-441" on="1"/>
        <pt x="1137" y="-449" on="0"/>
        <pt x="1085" y="-461" on="0"/>
        <pt x="1029" y="-468" on="0"/>
        <pt x="975" y="-471" on="0"/>
        <pt x="953" y="-471" on="1"/>
        <pt x="898" y="-471" on="0"/>
        <pt x="791" y="-449" on="0"/>
        <pt x="707" y="-397" on="0"/>
        <pt x="655" y="-311" on="0"/>
        <pt x="655" y="-247" on="1"/>
        <pt x="655" y="-183" on="0"/>
        <pt x="754" y="-50" on="0"/>
        <pt x="844" y="0" on="1"/>
        <pt x="510" y="0" on="1"/>
        <pt x="456" y="0" on="0"/>
        <pt x="347" y="14" on="0"/>
        <pt x="248" y="45" on="0"/>
        <pt x="162" y="95" on="0"/>
        <pt x="99" y="169" on="0"/>
        <pt x="63" y="269" on="0"/>
        <pt x="63" y="334" on="1"/>
        <pt x="63" y="421" on="0"/>
        <pt x="129" y="545" on="0"/>
        <pt x="240" y="627" on="0"/>
        <pt x="384" y="671" on="0"/>
        <pt x="461" y="677" on="1"/>
        <pt x="461" y="746" on="1"/>
        <pt x="461" y="785" on="0"/>
        <pt x="441" y="831" on="0"/>
        <pt x="410" y="854" on="0"/>
        <pt x="373" y="861" on="0"/>
        <pt x="356" y="861" on="1"/>
        <pt x="336" y="861" on="0"/>
        <pt x="291" y="849" on="0"/>
        <pt x="249" y="832" on="0"/>
        <pt x="211" y="812" on="0"/>
        <pt x="198" y="804" on="1"/>
        <pt x="192" y="800" on="0"/>
        <pt x="182" y="794" on="0"/>
        <pt x="177" y="794" on="1"/>
        <pt x="168" y="794" on="0"/>
        <pt x="160" y="807" on="1"/>
        <pt x="126" y="861" on="1"/>
        <pt x="121" y="868" on="0"/>
        <pt x="121" y="876" on="1"/>
        <pt x="121" y="884" on="0"/>
        <pt x="134" y="896" on="0"/>
        <pt x="140" y="900" on="1"/>
        <pt x="173" y="923" on="0"/>
        <pt x="275" y="971" on="0"/>
        <pt x="402" y="1009" on="0"/>
        <pt x="550" y="1033" on="0"/>
        <pt x="629" y="1033" on="1"/>
        <pt x="704" y="1033" on="0"/>
        <pt x="847" y="1023" on="0"/>
        <pt x="974" y="990" on="0"/>
        <pt x="1079" y="929" on="0"/>
        <pt x="1156" y="829" on="0"/>
        <pt x="1198" y="683" on="0"/>
        <pt x="1198" y="581" on="1"/>
      </contour>
      <contour>
        <pt x="461" y="550" on="1"/>
        <pt x="389" y="550" on="0"/>
        <pt x="291" y="514" on="0"/>
        <pt x="231" y="454" on="0"/>
        <pt x="205" y="375" on="0"/>
        <pt x="205" y="333" on="1"/>
        <pt x="205" y="291" on="0"/>
        <pt x="231" y="216" on="0"/>
        <pt x="291" y="160" on="0"/>
        <pt x="389" y="128" on="0"/>
        <pt x="461" y="128" on="1"/>
      </contour>
      <contour>
        <pt x="1035" y="84" on="1"/>
        <pt x="1059" y="84" on="0"/>
        <pt x="1089" y="87" on="0"/>
        <pt x="1107" y="100" on="0"/>
        <pt x="1113" y="125" on="0"/>
        <pt x="1113" y="148" on="1"/>
        <pt x="1113" y="603" on="1"/>
        <pt x="1113" y="684" on="0"/>
        <pt x="1079" y="795" on="0"/>
        <pt x="1028" y="866" on="0"/>
        <pt x="968" y="903" on="0"/>
        <pt x="942" y="912" on="1"/>
        <pt x="954" y="899" on="0"/>
        <pt x="987" y="851" on="0"/>
        <pt x="1015" y="777" on="0"/>
        <pt x="1035" y="674" on="0"/>
        <pt x="1035" y="607" on="1"/>
      </contour>
    </TTGlyph>
    <TTGlyph name="approxequal" xMin="114" yMin="132" xMax="908" yMax="916">
      <contour>
        <pt x="888" y="847" on="1"/>
        <pt x="899" y="842" on="0"/>
        <pt x="908" y="829" on="0"/>
        <pt x="908" y="821" on="1"/>
        <pt x="908" y="816" on="0"/>
        <pt x="906" y="808" on="1"/>
        <pt x="890" y="744" on="0"/>
        <pt x="840" y="654" on="0"/>
        <pt x="777" y="598" on="0"/>
        <pt x="705" y="572" on="0"/>
        <pt x="668" y="572" on="1"/>
        <pt x="627" y="572" on="0"/>
        <pt x="541" y="612" on="0"/>
        <pt x="463" y="660" on="0"/>
        <pt x="398" y="700" on="0"/>
        <pt x="379" y="700" on="1"/>
        <pt x="345" y="700" on="0"/>
        <pt x="305" y="646" on="0"/>
        <pt x="292" y="604" on="1"/>
        <pt x="290" y="599" on="0"/>
        <pt x="282" y="585" on="0"/>
        <pt x="271" y="585" on="1"/>
        <pt x="263" y="585" on="0"/>
        <pt x="251" y="591" on="1"/>
        <pt x="136" y="641" on="1"/>
        <pt x="122" y="647" on="0"/>
        <pt x="114" y="661" on="0"/>
        <pt x="114" y="668" on="1"/>
        <pt x="114" y="672" on="0"/>
        <pt x="116" y="680" on="0"/>
        <pt x="117" y="683" on="1"/>
        <pt x="133" y="746" on="0"/>
        <pt x="184" y="834" on="0"/>
        <pt x="247" y="890" on="0"/>
        <pt x="318" y="916" on="0"/>
        <pt x="356" y="916" on="1"/>
        <pt x="397" y="916" on="0"/>
        <pt x="483" y="876" on="0"/>
        <pt x="561" y="828" on="0"/>
        <pt x="625" y="788" on="0"/>
        <pt x="645" y="788" on="1"/>
        <pt x="680" y="788" on="0"/>
        <pt x="720" y="845" on="0"/>
        <pt x="733" y="887" on="1"/>
        <pt x="735" y="892" on="0"/>
        <pt x="741" y="904" on="0"/>
        <pt x="750" y="904" on="1"/>
        <pt x="755" y="904" on="0"/>
        <pt x="764" y="901" on="1"/>
      </contour>
      <contour>
        <pt x="888" y="407" on="1"/>
        <pt x="899" y="402" on="0"/>
        <pt x="908" y="389" on="0"/>
        <pt x="908" y="381" on="1"/>
        <pt x="908" y="376" on="0"/>
        <pt x="906" y="368" on="1"/>
        <pt x="890" y="304" on="0"/>
        <pt x="840" y="214" on="0"/>
        <pt x="777" y="158" on="0"/>
        <pt x="705" y="132" on="0"/>
        <pt x="668" y="132" on="1"/>
        <pt x="627" y="132" on="0"/>
        <pt x="541" y="172" on="0"/>
        <pt x="463" y="220" on="0"/>
        <pt x="398" y="260" on="0"/>
        <pt x="379" y="260" on="1"/>
        <pt x="345" y="260" on="0"/>
        <pt x="305" y="206" on="0"/>
        <pt x="292" y="164" on="1"/>
        <pt x="290" y="159" on="0"/>
        <pt x="282" y="145" on="0"/>
        <pt x="271" y="145" on="1"/>
        <pt x="263" y="145" on="0"/>
        <pt x="251" y="151" on="1"/>
        <pt x="136" y="201" on="1"/>
        <pt x="122" y="207" on="0"/>
        <pt x="114" y="221" on="0"/>
        <pt x="114" y="228" on="1"/>
        <pt x="114" y="232" on="0"/>
        <pt x="116" y="240" on="0"/>
        <pt x="117" y="243" on="1"/>
        <pt x="133" y="306" on="0"/>
        <pt x="184" y="394" on="0"/>
        <pt x="247" y="450" on="0"/>
        <pt x="318" y="476" on="0"/>
        <pt x="356" y="476" on="1"/>
        <pt x="397" y="476" on="0"/>
        <pt x="483" y="436" on="0"/>
        <pt x="561" y="388" on="0"/>
        <pt x="625" y="348" on="0"/>
        <pt x="645" y="348" on="1"/>
        <pt x="680" y="348" on="0"/>
        <pt x="720" y="405" on="0"/>
        <pt x="733" y="447" on="1"/>
        <pt x="735" y="452" on="0"/>
        <pt x="741" y="464" on="0"/>
        <pt x="750" y="464" on="1"/>
        <pt x="755" y="464" on="0"/>
        <pt x="764" y="461" on="1"/>
      </contour>
    </TTGlyph>
    <TTGlyph name="aring" xMin="63" yMin="0" xMax="1198" yMax="1662">
      <component glyphName="a" x="0" y="0" flags="0x204"/>
      <component glyphName="ring" x="257" y="0" flags="0x4"/>
    </TTGlyph>
    <TTGlyph name="asciicircum" xMin="78" yMin="879" xMax="946" yMax="1436">
      <contour>
        <pt x="512" y="1224" on="1"/>
        <pt x="247" y="887" on="1"/>
        <pt x="241" y="879" on="0"/>
        <pt x="231" y="879" on="1"/>
        <pt x="228" y="879" on="0"/>
        <pt x="221" y="880" on="0"/>
        <pt x="218" y="883" on="1"/>
        <pt x="90" y="989" on="1"/>
        <pt x="85" y="994" on="0"/>
        <pt x="78" y="1000" on="0"/>
        <pt x="78" y="1005" on="1"/>
        <pt x="78" y="1012" on="0"/>
        <pt x="82" y="1017" on="1"/>
        <pt x="407" y="1419" on="1"/>
        <pt x="421" y="1436" on="0"/>
        <pt x="441" y="1436" on="1"/>
        <pt x="583" y="1436" on="1"/>
        <pt x="603" y="1436" on="0"/>
        <pt x="617" y="1419" on="1"/>
        <pt x="942" y="1017" on="1"/>
        <pt x="946" y="1012" on="0"/>
        <pt x="946" y="1005" on="1"/>
        <pt x="946" y="1000" on="0"/>
        <pt x="939" y="994" on="0"/>
        <pt x="934" y="989" on="1"/>
        <pt x="806" y="883" on="1"/>
        <pt x="803" y="880" on="0"/>
        <pt x="795" y="879" on="0"/>
        <pt x="793" y="879" on="1"/>
        <pt x="788" y="879" on="0"/>
        <pt x="781" y="885" on="0"/>
        <pt x="777" y="890" on="1"/>
      </contour>
    </TTGlyph>
    <TTGlyph name="asciitilde" xMin="94" yMin="342" xMax="930" yMax="706">
      <contour>
        <pt x="908" y="627" on="1"/>
        <pt x="924" y="619" on="0"/>
        <pt x="930" y="601" on="0"/>
        <pt x="926" y="588" on="1"/>
        <pt x="906" y="524" on="0"/>
        <pt x="851" y="431" on="0"/>
        <pt x="783" y="371" on="0"/>
        <pt x="705" y="342" on="0"/>
        <pt x="663" y="342" on="1"/>
        <pt x="618" y="342" on="0"/>
        <pt x="534" y="385" on="0"/>
        <pt x="460" y="437" on="0"/>
        <pt x="399" y="480" on="0"/>
        <pt x="378" y="480" on="1"/>
        <pt x="359" y="480" on="0"/>
        <pt x="330" y="462" on="0"/>
        <pt x="307" y="433" on="0"/>
        <pt x="289" y="395" on="0"/>
        <pt x="282" y="374" on="1"/>
        <pt x="281" y="371" on="0"/>
        <pt x="277" y="361" on="0"/>
        <pt x="268" y="355" on="0"/>
        <pt x="253" y="355" on="0"/>
        <pt x="241" y="361" on="1"/>
        <pt x="116" y="421" on="1"/>
        <pt x="94" y="432" on="0"/>
        <pt x="95" y="455" on="0"/>
        <pt x="97" y="463" on="1"/>
        <pt x="115" y="526" on="0"/>
        <pt x="170" y="617" on="0"/>
        <pt x="240" y="677" on="0"/>
        <pt x="319" y="706" on="0"/>
        <pt x="361" y="706" on="1"/>
        <pt x="406" y="706" on="0"/>
        <pt x="490" y="663" on="0"/>
        <pt x="564" y="611" on="0"/>
        <pt x="625" y="568" on="0"/>
        <pt x="646" y="568" on="1"/>
        <pt x="665" y="568" on="0"/>
        <pt x="695" y="586" on="0"/>
        <pt x="718" y="617" on="0"/>
        <pt x="736" y="656" on="0"/>
        <pt x="743" y="677" on="1"/>
        <pt x="745" y="683" on="0"/>
        <pt x="756" y="699" on="0"/>
        <pt x="774" y="691" on="1"/>
      </contour>
    </TTGlyph>
    <TTGlyph name="asterisk" xMin="40" yMin="803" xMax="725" yMax="1436">
      <contour>
        <pt x="506" y="1082" on="1"/>
        <pt x="640" y="916" on="1"/>
        <pt x="648" y="907" on="0"/>
        <pt x="648" y="896" on="1"/>
        <pt x="648" y="881" on="0"/>
        <pt x="631" y="869" on="1"/>
        <pt x="547" y="810" on="1"/>
        <pt x="535" y="803" on="0"/>
        <pt x="528" y="803" on="1"/>
        <pt x="513" y="805" on="0"/>
        <pt x="503" y="820" on="1"/>
        <pt x="383" y="1018" on="1"/>
        <pt x="263" y="820" on="1"/>
        <pt x="253" y="805" on="0"/>
        <pt x="238" y="803" on="1"/>
        <pt x="229" y="803" on="0"/>
        <pt x="219" y="810" on="1"/>
        <pt x="135" y="869" on="1"/>
        <pt x="117" y="882" on="0"/>
        <pt x="118" y="896" on="1"/>
        <pt x="118" y="906" on="0"/>
        <pt x="125" y="916" on="1"/>
        <pt x="259" y="1082" on="1"/>
        <pt x="61" y="1159" on="1"/>
        <pt x="40" y="1168" on="0"/>
        <pt x="40" y="1185" on="1"/>
        <pt x="40" y="1193" on="0"/>
        <pt x="44" y="1200" on="1"/>
        <pt x="87" y="1292" on="1"/>
        <pt x="97" y="1313" on="0"/>
        <pt x="114" y="1313" on="1"/>
        <pt x="123" y="1313" on="0"/>
        <pt x="131" y="1309" on="1"/>
        <pt x="312" y="1209" on="1"/>
        <pt x="300" y="1403" on="1"/>
        <pt x="297" y="1436" on="0"/>
        <pt x="334" y="1436" on="1"/>
        <pt x="436" y="1436" on="1"/>
        <pt x="470" y="1436" on="0"/>
        <pt x="467" y="1403" on="1"/>
        <pt x="454" y="1209" on="1"/>
        <pt x="635" y="1309" on="1"/>
        <pt x="643" y="1313" on="0"/>
        <pt x="652" y="1313" on="1"/>
        <pt x="668" y="1313" on="0"/>
        <pt x="679" y="1292" on="1"/>
        <pt x="722" y="1200" on="1"/>
        <pt x="724" y="1196" on="0"/>
        <pt x="725" y="1188" on="0"/>
        <pt x="725" y="1185" on="1"/>
        <pt x="725" y="1168" on="0"/>
        <pt x="705" y="1159" on="1"/>
      </contour>
    </TTGlyph>
    <TTGlyph name="at" xMin="100" yMin="-55" xMax="1636" yMax="1481">
      <contour>
        <pt x="832" y="285" on="1"/>
        <pt x="763" y="285" on="0"/>
        <pt x="634" y="312" on="0"/>
        <pt x="535" y="376" on="0"/>
        <pt x="476" y="485" on="0"/>
        <pt x="476" y="567" on="1"/>
        <pt x="476" y="643" on="0"/>
        <pt x="542" y="749" on="0"/>
        <pt x="642" y="816" on="0"/>
        <pt x="762" y="849" on="0"/>
        <pt x="816" y="854" on="1"/>
        <pt x="816" y="882" on="1"/>
        <pt x="816" y="915" on="0"/>
        <pt x="796" y="954" on="0"/>
        <pt x="767" y="973" on="0"/>
        <pt x="735" y="979" on="0"/>
        <pt x="723" y="979" on="1"/>
        <pt x="691" y="979" on="0"/>
        <pt x="639" y="961" on="0"/>
        <pt x="599" y="940" on="0"/>
        <pt x="571" y="922" on="0"/>
        <pt x="563" y="922" on="1"/>
        <pt x="555" y="922" on="0"/>
        <pt x="547" y="926" on="0"/>
        <pt x="544" y="934" on="1"/>
        <pt x="521" y="986" on="1"/>
        <pt x="519" y="990" on="0"/>
        <pt x="516" y="1000" on="0"/>
        <pt x="516" y="1002" on="1"/>
        <pt x="516" y="1009" on="0"/>
        <pt x="526" y="1018" on="0"/>
        <pt x="530" y="1021" on="1"/>
        <pt x="554" y="1041" on="0"/>
        <pt x="625" y="1081" on="0"/>
        <pt x="714" y="1114" on="0"/>
        <pt x="817" y="1134" on="0"/>
        <pt x="872" y="1134" on="1"/>
        <pt x="956" y="1134" on="0"/>
        <pt x="1101" y="1108" on="0"/>
        <pt x="1208" y="1031" on="0"/>
        <pt x="1270" y="890" on="0"/>
        <pt x="1270" y="774" on="1"/>
        <pt x="1270" y="440" on="1"/>
        <pt x="1321" y="454" on="0"/>
        <pt x="1402" y="517" on="0"/>
        <pt x="1459" y="607" on="0"/>
        <pt x="1489" y="718" on="0"/>
        <pt x="1489" y="780" on="1"/>
        <pt x="1489" y="907" on="0"/>
        <pt x="1411" y="1112" on="0"/>
        <pt x="1261" y="1256" on="0"/>
        <pt x="1043" y="1333" on="0"/>
        <pt x="904" y="1333" on="1"/>
        <pt x="773" y="1333" on="0"/>
        <pt x="535" y="1239" on="0"/>
        <pt x="355" y="1070" on="0"/>
        <pt x="248" y="837" on="0"/>
        <pt x="248" y="698" on="1"/>
        <pt x="248" y="566" on="0"/>
        <pt x="348" y="344" on="0"/>
        <pt x="520" y="183" on="0"/>
        <pt x="752" y="93" on="0"/>
        <pt x="883" y="93" on="1"/>
        <pt x="943" y="93" on="0"/>
        <pt x="1053" y="107" on="0"/>
        <pt x="1105" y="124" on="1"/>
        <pt x="1110" y="125" on="0"/>
        <pt x="1123" y="131" on="0"/>
        <pt x="1138" y="131" on="0"/>
        <pt x="1152" y="123" on="0"/>
        <pt x="1157" y="112" on="1"/>
        <pt x="1193" y="28" on="1"/>
        <pt x="1201" y="9" on="0"/>
        <pt x="1182" y="-3" on="0"/>
        <pt x="1175" y="-7" on="1"/>
        <pt x="1106" y="-35" on="0"/>
        <pt x="965" y="-55" on="0"/>
        <pt x="883" y="-55" on="1"/>
        <pt x="775" y="-55" on="0"/>
        <pt x="575" y="-4" on="0"/>
        <pt x="401" y="92" on="0"/>
        <pt x="258" y="227" on="0"/>
        <pt x="156" y="394" on="0"/>
        <pt x="100" y="590" on="0"/>
        <pt x="100" y="698" on="1"/>
        <pt x="100" y="811" on="0"/>
        <pt x="159" y="1015" on="0"/>
        <pt x="265" y="1189" on="0"/>
        <pt x="414" y="1329" on="0"/>
        <pt x="592" y="1428" on="0"/>
        <pt x="796" y="1481" on="0"/>
        <pt x="904" y="1481" on="1"/>
        <pt x="1066" y="1481" on="0"/>
        <pt x="1336" y="1384" on="0"/>
        <pt x="1529" y="1202" on="0"/>
        <pt x="1636" y="942" on="0"/>
        <pt x="1636" y="780" on="1"/>
        <pt x="1636" y="672" on="0"/>
        <pt x="1561" y="491" on="0"/>
        <pt x="1432" y="359" on="0"/>
        <pt x="1260" y="285" on="0"/>
        <pt x="1163" y="285" on="1"/>
      </contour>
      <contour>
        <pt x="816" y="727" on="1"/>
        <pt x="765" y="727" on="0"/>
        <pt x="690" y="703" on="0"/>
        <pt x="641" y="660" on="0"/>
        <pt x="616" y="601" on="0"/>
        <pt x="616" y="566" on="1"/>
        <pt x="616" y="494" on="0"/>
        <pt x="715" y="413" on="0"/>
        <pt x="816" y="413" on="1"/>
      </contour>
      <contour>
        <pt x="1000" y="1063" on="1"/>
        <pt x="1050" y="1024" on="0"/>
        <pt x="1107" y="885" on="0"/>
        <pt x="1107" y="774" on="1"/>
        <pt x="1107" y="414" on="1"/>
        <pt x="1185" y="414" on="1"/>
        <pt x="1185" y="774" on="1"/>
        <pt x="1185" y="849" on="0"/>
        <pt x="1159" y="952" on="0"/>
        <pt x="1110" y="1019" on="0"/>
        <pt x="1042" y="1055" on="0"/>
      </contour>
    </TTGlyph>
    <TTGlyph name="atilde" xMin="63" yMin="0" xMax="1198" yMax="1483">
      <component glyphName="a" x="0" y="0" flags="0x204"/>
      <component glyphName="tilde" x="258" y="0" flags="0x4"/>
    </TTGlyph>
    <TTGlyph name="b" xMin="92" yMin="-20" xMax="1266" yMax="1640">
      <contour>
        <pt x="651" y="-20" on="1"/>
        <pt x="520" y="-20" on="0"/>
        <pt x="312" y="50" on="0"/>
        <pt x="168" y="183" on="0"/>
        <pt x="92" y="379" on="0"/>
        <pt x="92" y="505" on="1"/>
        <pt x="92" y="1501" on="1"/>
        <pt x="92" y="1535" on="0"/>
        <pt x="104" y="1588" on="0"/>
        <pt x="138" y="1622" on="0"/>
        <pt x="198" y="1640" on="0"/>
        <pt x="246" y="1640" on="1"/>
        <pt x="684" y="1640" on="1"/>
        <pt x="727" y="1640" on="0"/>
        <pt x="783" y="1622" on="0"/>
        <pt x="816" y="1587" on="0"/>
        <pt x="829" y="1534" on="0"/>
        <pt x="829" y="1498" on="1"/>
        <pt x="829" y="1024" on="1"/>
        <pt x="917" y="1008" on="0"/>
        <pt x="1076" y="937" on="0"/>
        <pt x="1196" y="814" on="0"/>
        <pt x="1266" y="634" on="0"/>
        <pt x="1266" y="508" on="1"/>
        <pt x="1266" y="403" on="0"/>
        <pt x="1217" y="244" on="0"/>
        <pt x="1130" y="126" on="0"/>
        <pt x="1013" y="48" on="0"/>
        <pt x="876" y="0" on="0"/>
        <pt x="726" y="-20" on="0"/>
      </contour>
      <contour>
        <pt x="829" y="122" on="1"/>
        <pt x="907" y="132" on="0"/>
        <pt x="1019" y="197" on="0"/>
        <pt x="1090" y="299" on="0"/>
        <pt x="1124" y="431" on="0"/>
        <pt x="1124" y="508" on="1"/>
        <pt x="1124" y="584" on="0"/>
        <pt x="1090" y="718" on="0"/>
        <pt x="1018" y="820" on="0"/>
        <pt x="907" y="886" on="0"/>
        <pt x="829" y="896" on="1"/>
      </contour>
      <contour>
        <pt x="744" y="1490" on="1"/>
        <pt x="744" y="1512" on="0"/>
        <pt x="738" y="1538" on="0"/>
        <pt x="720" y="1551" on="0"/>
        <pt x="690" y="1554" on="0"/>
        <pt x="666" y="1554" on="1"/>
        <pt x="666" y="102" on="1"/>
        <pt x="671" y="102" on="0"/>
        <pt x="691" y="103" on="0"/>
        <pt x="714" y="104" on="0"/>
        <pt x="736" y="106" on="0"/>
        <pt x="744" y="108" on="1"/>
      </contour>
    </TTGlyph>
    <TTGlyph name="backslash" xMin="50" yMin="-39" xMax="594" yMax="1483">
      <contour>
        <pt x="53" y="1410" on="1"/>
        <pt x="50" y="1420" on="0"/>
        <pt x="50" y="1429" on="1"/>
        <pt x="50" y="1443" on="0"/>
        <pt x="66" y="1457" on="0"/>
        <pt x="83" y="1462" on="1"/>
        <pt x="145" y="1479" on="1"/>
        <pt x="156" y="1483" on="0"/>
        <pt x="167" y="1483" on="1"/>
        <pt x="180" y="1483" on="0"/>
        <pt x="198" y="1470" on="0"/>
        <pt x="205" y="1445" on="1"/>
        <pt x="590" y="35" on="1"/>
        <pt x="592" y="28" on="0"/>
        <pt x="594" y="17" on="0"/>
        <pt x="594" y="12" on="1"/>
        <pt x="594" y="-5" on="0"/>
        <pt x="569" y="-19" on="0"/>
        <pt x="554" y="-23" on="1"/>
        <pt x="490" y="-37" on="1"/>
        <pt x="480" y="-39" on="0"/>
        <pt x="475" y="-39" on="1"/>
        <pt x="459" y="-39" on="0"/>
        <pt x="442" y="-14" on="0"/>
        <pt x="439" y="-3" on="1"/>
      </contour>
    </TTGlyph>
    <TTGlyph name="bar" xMin="173" yMin="-512" xMax="339" yMax="1536">
      <contour>
        <pt x="173" y="1489" on="1"/>
        <pt x="173" y="1506" on="0"/>
        <pt x="181" y="1525" on="0"/>
        <pt x="194" y="1534" on="0"/>
        <pt x="211" y="1536" on="0"/>
        <pt x="220" y="1536" on="1"/>
        <pt x="296" y="1536" on="1"/>
        <pt x="322" y="1536" on="0"/>
        <pt x="339" y="1510" on="0"/>
        <pt x="339" y="1489" on="1"/>
        <pt x="339" y="-465" on="1"/>
        <pt x="339" y="-482" on="0"/>
        <pt x="324" y="-512" on="0"/>
        <pt x="298" y="-512" on="1"/>
        <pt x="222" y="-512" on="1"/>
        <pt x="213" y="-512" on="0"/>
        <pt x="195" y="-510" on="0"/>
        <pt x="182" y="-501" on="0"/>
        <pt x="173" y="-482" on="0"/>
        <pt x="173" y="-465" on="1"/>
      </contour>
    </TTGlyph>
    <TTGlyph name="braceleft" xMin="40" yMin="-371" xMax="914" yMax="1597">
      <contour>
        <pt x="729" y="-99" on="1"/>
        <pt x="729" y="-162" on="0"/>
        <pt x="793" y="-228" on="0"/>
        <pt x="852" y="-228" on="1"/>
        <pt x="893" y="-228" on="1"/>
        <pt x="914" y="-228" on="0"/>
        <pt x="914" y="-250" on="1"/>
        <pt x="914" y="-350" on="1"/>
        <pt x="914" y="-371" on="0"/>
        <pt x="893" y="-371" on="1"/>
        <pt x="607" y="-371" on="1"/>
        <pt x="511" y="-371" on="0"/>
        <pt x="368" y="-317" on="0"/>
        <pt x="272" y="-216" on="0"/>
        <pt x="225" y="-71" on="0"/>
        <pt x="225" y="20" on="1"/>
        <pt x="225" y="377" on="1"/>
        <pt x="225" y="427" on="0"/>
        <pt x="218" y="491" on="0"/>
        <pt x="185" y="527" on="0"/>
        <pt x="119" y="541" on="0"/>
        <pt x="61" y="541" on="1"/>
        <pt x="40" y="541" on="0"/>
        <pt x="40" y="562" on="1"/>
        <pt x="40" y="664" on="1"/>
        <pt x="40" y="686" on="0"/>
        <pt x="61" y="686" on="1"/>
        <pt x="119" y="686" on="0"/>
        <pt x="185" y="700" on="0"/>
        <pt x="218" y="736" on="0"/>
        <pt x="225" y="800" on="0"/>
        <pt x="225" y="850" on="1"/>
        <pt x="225" y="1206" on="1"/>
        <pt x="225" y="1297" on="0"/>
        <pt x="272" y="1442" on="0"/>
        <pt x="368" y="1543" on="0"/>
        <pt x="511" y="1597" on="0"/>
        <pt x="607" y="1597" on="1"/>
        <pt x="893" y="1597" on="1"/>
        <pt x="914" y="1597" on="0"/>
        <pt x="914" y="1576" on="1"/>
        <pt x="914" y="1476" on="1"/>
        <pt x="914" y="1454" on="0"/>
        <pt x="893" y="1454" on="1"/>
        <pt x="852" y="1454" on="1"/>
        <pt x="793" y="1454" on="0"/>
        <pt x="729" y="1388" on="0"/>
        <pt x="729" y="1325" on="1"/>
        <pt x="729" y="880" on="1"/>
        <pt x="729" y="821" on="0"/>
        <pt x="705" y="735" on="0"/>
        <pt x="665" y="673" on="0"/>
        <pt x="612" y="630" on="0"/>
        <pt x="584" y="612" on="1"/>
        <pt x="612" y="595" on="0"/>
        <pt x="665" y="552" on="0"/>
        <pt x="705" y="490" on="0"/>
        <pt x="729" y="405" on="0"/>
        <pt x="729" y="347" on="1"/>
      </contour>
      <contour>
        <pt x="501" y="649" on="1"/>
        <pt x="529" y="665" on="0"/>
        <pt x="581" y="696" on="0"/>
        <pt x="621" y="746" on="0"/>
        <pt x="644" y="821" on="0"/>
        <pt x="644" y="880" on="1"/>
        <pt x="644" y="1325" on="1"/>
        <pt x="644" y="1356" on="0"/>
        <pt x="660" y="1415" on="0"/>
        <pt x="692" y="1461" on="0"/>
        <pt x="738" y="1491" on="0"/>
        <pt x="767" y="1494" on="1"/>
        <pt x="716" y="1494" on="0"/>
        <pt x="640" y="1465" on="0"/>
        <pt x="590" y="1417" on="0"/>
        <pt x="566" y="1356" on="0"/>
        <pt x="566" y="1325" on="1"/>
        <pt x="566" y="880" on="1"/>
        <pt x="566" y="834" on="0"/>
        <pt x="559" y="763" on="0"/>
        <pt x="543" y="708" on="0"/>
        <pt x="518" y="666" on="0"/>
      </contour>
      <contour>
        <pt x="501" y="578" on="1"/>
        <pt x="518" y="561" on="0"/>
        <pt x="543" y="519" on="0"/>
        <pt x="559" y="464" on="0"/>
        <pt x="566" y="393" on="0"/>
        <pt x="566" y="347" on="1"/>
        <pt x="566" y="-98" on="1"/>
        <pt x="566" y="-130" on="0"/>
        <pt x="590" y="-190" on="0"/>
        <pt x="640" y="-238" on="0"/>
        <pt x="716" y="-267" on="0"/>
        <pt x="767" y="-267" on="1"/>
        <pt x="738" y="-264" on="0"/>
        <pt x="692" y="-234" on="0"/>
        <pt x="660" y="-188" on="0"/>
        <pt x="644" y="-130" on="0"/>
        <pt x="644" y="-98" on="1"/>
        <pt x="644" y="347" on="1"/>
        <pt x="644" y="406" on="0"/>
        <pt x="621" y="481" on="0"/>
        <pt x="581" y="531" on="0"/>
        <pt x="529" y="562" on="0"/>
      </contour>
    </TTGlyph>
    <TTGlyph name="braceright" xMin="40" yMin="-371" xMax="914" yMax="1597">
      <contour>
        <pt x="225" y="347" on="1"/>
        <pt x="225" y="405" on="0"/>
        <pt x="249" y="490" on="0"/>
        <pt x="289" y="552" on="0"/>
        <pt x="341" y="595" on="0"/>
        <pt x="370" y="612" on="1"/>
        <pt x="341" y="630" on="0"/>
        <pt x="289" y="673" on="0"/>
        <pt x="249" y="735" on="0"/>
        <pt x="225" y="821" on="0"/>
        <pt x="225" y="880" on="1"/>
        <pt x="225" y="1325" on="1"/>
        <pt x="225" y="1388" on="0"/>
        <pt x="161" y="1454" on="0"/>
        <pt x="102" y="1454" on="1"/>
        <pt x="61" y="1454" on="1"/>
        <pt x="40" y="1454" on="0"/>
        <pt x="40" y="1476" on="1"/>
        <pt x="40" y="1576" on="1"/>
        <pt x="40" y="1597" on="0"/>
        <pt x="61" y="1597" on="1"/>
        <pt x="347" y="1597" on="1"/>
        <pt x="443" y="1597" on="0"/>
        <pt x="586" y="1543" on="0"/>
        <pt x="682" y="1442" on="0"/>
        <pt x="729" y="1297" on="0"/>
        <pt x="729" y="1206" on="1"/>
        <pt x="729" y="850" on="1"/>
        <pt x="729" y="800" on="0"/>
        <pt x="736" y="736" on="0"/>
        <pt x="769" y="700" on="0"/>
        <pt x="834" y="686" on="0"/>
        <pt x="893" y="686" on="1"/>
        <pt x="914" y="686" on="0"/>
        <pt x="914" y="664" on="1"/>
        <pt x="914" y="562" on="1"/>
        <pt x="914" y="541" on="0"/>
        <pt x="893" y="541" on="1"/>
        <pt x="834" y="541" on="0"/>
        <pt x="769" y="527" on="0"/>
        <pt x="736" y="491" on="0"/>
        <pt x="729" y="427" on="0"/>
        <pt x="729" y="377" on="1"/>
        <pt x="729" y="20" on="1"/>
        <pt x="729" y="-71" on="0"/>
        <pt x="682" y="-216" on="0"/>
        <pt x="586" y="-317" on="0"/>
        <pt x="443" y="-371" on="0"/>
        <pt x="347" y="-371" on="1"/>
        <pt x="61" y="-371" on="1"/>
        <pt x="40" y="-371" on="0"/>
        <pt x="40" y="-350" on="1"/>
        <pt x="40" y="-250" on="1"/>
        <pt x="40" y="-228" on="0"/>
        <pt x="61" y="-228" on="1"/>
        <pt x="102" y="-228" on="1"/>
        <pt x="161" y="-228" on="0"/>
        <pt x="225" y="-162" on="0"/>
        <pt x="225" y="-99" on="1"/>
      </contour>
      <contour>
        <pt x="706" y="667" on="1"/>
        <pt x="670" y="692" on="0"/>
        <pt x="644" y="789" on="0"/>
        <pt x="644" y="850" on="1"/>
        <pt x="644" y="1206" on="1"/>
        <pt x="644" y="1343" on="0"/>
        <pt x="538" y="1499" on="0"/>
        <pt x="430" y="1528" on="1"/>
        <pt x="498" y="1478" on="0"/>
        <pt x="566" y="1315" on="0"/>
        <pt x="566" y="1206" on="1"/>
        <pt x="566" y="850" on="1"/>
        <pt x="566" y="805" on="0"/>
        <pt x="575" y="739" on="0"/>
        <pt x="605" y="694" on="0"/>
        <pt x="660" y="670" on="0"/>
      </contour>
      <contour>
        <pt x="706" y="560" on="1"/>
        <pt x="660" y="557" on="0"/>
        <pt x="605" y="533" on="0"/>
        <pt x="575" y="488" on="0"/>
        <pt x="566" y="422" on="0"/>
        <pt x="566" y="377" on="1"/>
        <pt x="566" y="21" on="1"/>
        <pt x="566" y="-88" on="0"/>
        <pt x="498" y="-251" on="0"/>
        <pt x="430" y="-301" on="1"/>
        <pt x="538" y="-272" on="0"/>
        <pt x="644" y="-116" on="0"/>
        <pt x="644" y="21" on="1"/>
        <pt x="644" y="377" on="1"/>
        <pt x="644" y="438" on="0"/>
        <pt x="670" y="535" on="0"/>
      </contour>
    </TTGlyph>
    <TTGlyph name="bracketleft" xMin="143" yMin="-371" xMax="870" yMax="1597">
      <contour>
        <pt x="193" y="-371" on="1"/>
        <pt x="184" y="-371" on="0"/>
        <pt x="166" y="-369" on="0"/>
        <pt x="152" y="-360" on="0"/>
        <pt x="143" y="-341" on="0"/>
        <pt x="143" y="-324" on="1"/>
        <pt x="143" y="1550" on="1"/>
        <pt x="143" y="1567" on="0"/>
        <pt x="152" y="1586" on="0"/>
        <pt x="166" y="1595" on="0"/>
        <pt x="184" y="1597" on="0"/>
        <pt x="193" y="1597" on="1"/>
        <pt x="849" y="1597" on="1"/>
        <pt x="870" y="1597" on="0"/>
        <pt x="870" y="1576" on="1"/>
        <pt x="870" y="1476" on="1"/>
        <pt x="870" y="1454" on="0"/>
        <pt x="849" y="1454" on="1"/>
        <pt x="686" y="1454" on="1"/>
        <pt x="686" y="-228" on="1"/>
        <pt x="849" y="-228" on="1"/>
        <pt x="870" y="-228" on="0"/>
        <pt x="870" y="-249" on="1"/>
        <pt x="870" y="-349" on="1"/>
        <pt x="870" y="-371" on="0"/>
        <pt x="849" y="-371" on="1"/>
      </contour>
      <contour>
        <pt x="601" y="1454" on="1"/>
        <pt x="523" y="1454" on="1"/>
        <pt x="523" y="-228" on="1"/>
        <pt x="601" y="-228" on="1"/>
      </contour>
    </TTGlyph>
    <TTGlyph name="bracketright" xMin="43" yMin="-371" xMax="770" yMax="1597">
      <contour>
        <pt x="64" y="-371" on="1"/>
        <pt x="43" y="-371" on="0"/>
        <pt x="43" y="-349" on="1"/>
        <pt x="43" y="-249" on="1"/>
        <pt x="43" y="-228" on="0"/>
        <pt x="64" y="-228" on="1"/>
        <pt x="227" y="-228" on="1"/>
        <pt x="227" y="1454" on="1"/>
        <pt x="64" y="1454" on="1"/>
        <pt x="43" y="1454" on="0"/>
        <pt x="43" y="1476" on="1"/>
        <pt x="43" y="1576" on="1"/>
        <pt x="43" y="1597" on="0"/>
        <pt x="64" y="1597" on="1"/>
        <pt x="720" y="1597" on="1"/>
        <pt x="729" y="1597" on="0"/>
        <pt x="747" y="1595" on="0"/>
        <pt x="761" y="1586" on="0"/>
        <pt x="770" y="1567" on="0"/>
        <pt x="770" y="1550" on="1"/>
        <pt x="770" y="-324" on="1"/>
        <pt x="770" y="-341" on="0"/>
        <pt x="761" y="-360" on="0"/>
        <pt x="747" y="-369" on="0"/>
        <pt x="729" y="-371" on="0"/>
        <pt x="720" y="-371" on="1"/>
      </contour>
      <contour>
        <pt x="685" y="1454" on="1"/>
        <pt x="607" y="1454" on="1"/>
        <pt x="607" y="-228" on="1"/>
        <pt x="685" y="-228" on="1"/>
      </contour>
    </TTGlyph>
    <TTGlyph name="breve" xMin="103" yMin="1179" xMax="717" yMax="1492">
      <contour>
        <pt x="410" y="1356" on="1"/>
        <pt x="449" y="1356" on="0"/>
        <pt x="500" y="1380" on="0"/>
        <pt x="531" y="1413" on="0"/>
        <pt x="547" y="1449" on="0"/>
        <pt x="551" y="1460" on="1"/>
        <pt x="556" y="1473" on="0"/>
        <pt x="564" y="1492" on="0"/>
        <pt x="578" y="1492" on="1"/>
        <pt x="697" y="1492" on="1"/>
        <pt x="708" y="1492" on="0"/>
        <pt x="717" y="1479" on="0"/>
        <pt x="717" y="1474" on="1"/>
        <pt x="717" y="1387" on="0"/>
        <pt x="658" y="1274" on="0"/>
        <pt x="568" y="1206" on="0"/>
        <pt x="460" y="1179" on="0"/>
        <pt x="410" y="1179" on="1"/>
        <pt x="360" y="1179" on="0"/>
        <pt x="252" y="1206" on="0"/>
        <pt x="162" y="1274" on="0"/>
        <pt x="103" y="1387" on="0"/>
        <pt x="103" y="1474" on="1"/>
        <pt x="103" y="1479" on="0"/>
        <pt x="112" y="1492" on="0"/>
        <pt x="123" y="1492" on="1"/>
        <pt x="242" y="1492" on="1"/>
        <pt x="256" y="1492" on="0"/>
        <pt x="264" y="1473" on="0"/>
        <pt x="269" y="1460" on="1"/>
        <pt x="273" y="1449" on="0"/>
        <pt x="289" y="1413" on="0"/>
        <pt x="320" y="1380" on="0"/>
        <pt x="371" y="1356" on="0"/>
      </contour>
    </TTGlyph>
    <TTGlyph name="brokenbar" xMin="173" yMin="-512" xMax="339" yMax="1536">
      <contour>
        <pt x="173" y="1489" on="1"/>
        <pt x="173" y="1506" on="0"/>
        <pt x="181" y="1525" on="0"/>
        <pt x="194" y="1534" on="0"/>
        <pt x="211" y="1536" on="0"/>
        <pt x="220" y="1536" on="1"/>
        <pt x="296" y="1536" on="1"/>
        <pt x="322" y="1536" on="0"/>
        <pt x="339" y="1510" on="0"/>
        <pt x="339" y="1489" on="1"/>
        <pt x="339" y="806" on="1"/>
        <pt x="339" y="789" on="0"/>
        <pt x="324" y="759" on="0"/>
        <pt x="298" y="759" on="1"/>
        <pt x="222" y="759" on="1"/>
        <pt x="213" y="759" on="0"/>
        <pt x="195" y="761" on="0"/>
        <pt x="182" y="770" on="0"/>
        <pt x="173" y="789" on="0"/>
        <pt x="173" y="806" on="1"/>
      </contour>
      <contour>
        <pt x="173" y="218" on="1"/>
        <pt x="173" y="235" on="0"/>
        <pt x="181" y="254" on="0"/>
        <pt x="194" y="263" on="0"/>
        <pt x="211" y="265" on="0"/>
        <pt x="220" y="265" on="1"/>
        <pt x="296" y="265" on="1"/>
        <pt x="322" y="265" on="0"/>
        <pt x="339" y="239" on="0"/>
        <pt x="339" y="218" on="1"/>
        <pt x="339" y="-465" on="1"/>
        <pt x="339" y="-482" on="0"/>
        <pt x="324" y="-512" on="0"/>
        <pt x="298" y="-512" on="1"/>
        <pt x="222" y="-512" on="1"/>
        <pt x="213" y="-512" on="0"/>
        <pt x="195" y="-510" on="0"/>
        <pt x="182" y="-501" on="0"/>
        <pt x="173" y="-482" on="0"/>
        <pt x="173" y="-465" on="1"/>
      </contour>
    </TTGlyph>
    <TTGlyph name="bullet" xMin="75" yMin="443" xMax="620" yMax="987">
      <contour>
        <pt x="75" y="715" on="1"/>
        <pt x="75" y="771" on="0"/>
        <pt x="118" y="870" on="0"/>
        <pt x="193" y="944" on="0"/>
        <pt x="292" y="987" on="0"/>
        <pt x="348" y="987" on="1"/>
        <pt x="404" y="987" on="0"/>
        <pt x="503" y="944" on="0"/>
        <pt x="577" y="870" on="0"/>
        <pt x="620" y="771" on="0"/>
        <pt x="620" y="715" on="1"/>
        <pt x="620" y="659" on="0"/>
        <pt x="577" y="560" on="0"/>
        <pt x="503" y="486" on="0"/>
        <pt x="404" y="443" on="0"/>
        <pt x="348" y="443" on="1"/>
        <pt x="292" y="443" on="0"/>
        <pt x="193" y="486" on="0"/>
        <pt x="118" y="560" on="0"/>
        <pt x="75" y="659" on="0"/>
      </contour>
      <contour>
        <pt x="383" y="900" on="1"/>
        <pt x="421" y="863" on="0"/>
        <pt x="457" y="769" on="0"/>
        <pt x="457" y="715" on="1"/>
        <pt x="457" y="661" on="0"/>
        <pt x="422" y="568" on="0"/>
        <pt x="385" y="532" on="1"/>
        <pt x="416" y="539" on="0"/>
        <pt x="471" y="573" on="0"/>
        <pt x="512" y="621" on="0"/>
        <pt x="535" y="681" on="0"/>
        <pt x="535" y="715" on="1"/>
        <pt x="535" y="749" on="0"/>
        <pt x="512" y="811" on="0"/>
        <pt x="471" y="860" on="0"/>
        <pt x="416" y="894" on="0"/>
      </contour>
    </TTGlyph>
    <TTGlyph name="c" xMin="53" yMin="-41" xMax="1186" yMax="1053">
      <contour>
        <pt x="780" y="506" on="1"/>
        <pt x="780" y="405" on="0"/>
        <pt x="823" y="271" on="0"/>
        <pt x="889" y="192" on="0"/>
        <pt x="965" y="160" on="0"/>
        <pt x="998" y="160" on="1"/>
        <pt x="1023" y="160" on="0"/>
        <pt x="1065" y="173" on="0"/>
        <pt x="1097" y="190" on="0"/>
        <pt x="1119" y="203" on="0"/>
        <pt x="1125" y="203" on="1"/>
        <pt x="1134" y="203" on="0"/>
        <pt x="1141" y="197" on="0"/>
        <pt x="1146" y="189" on="1"/>
        <pt x="1181" y="135" on="1"/>
        <pt x="1186" y="127" on="0"/>
        <pt x="1186" y="121" on="1"/>
        <pt x="1186" y="114" on="0"/>
        <pt x="1178" y="106" on="0"/>
        <pt x="1174" y="103" on="1"/>
        <pt x="1141" y="80" on="0"/>
        <pt x="1045" y="29" on="0"/>
        <pt x="918" y="-13" on="0"/>
        <pt x="762" y="-41" on="0"/>
        <pt x="670" y="-41" on="1"/>
        <pt x="595" y="-41" on="0"/>
        <pt x="445" y="-17" on="0"/>
        <pt x="308" y="37" on="0"/>
        <pt x="190" y="122" on="0"/>
        <pt x="103" y="243" on="0"/>
        <pt x="53" y="404" on="0"/>
        <pt x="53" y="506" on="1"/>
        <pt x="53" y="608" on="0"/>
        <pt x="103" y="769" on="0"/>
        <pt x="190" y="890" on="0"/>
        <pt x="308" y="975" on="0"/>
        <pt x="445" y="1029" on="0"/>
        <pt x="595" y="1053" on="0"/>
        <pt x="670" y="1053" on="1"/>
        <pt x="752" y="1053" on="0"/>
        <pt x="904" y="1028" on="0"/>
        <pt x="1033" y="987" on="0"/>
        <pt x="1136" y="938" on="0"/>
        <pt x="1168" y="914" on="1"/>
        <pt x="1172" y="911" on="0"/>
        <pt x="1180" y="903" on="0"/>
        <pt x="1180" y="896" on="1"/>
        <pt x="1180" y="889" on="0"/>
        <pt x="1175" y="882" on="1"/>
        <pt x="1140" y="828" on="1"/>
        <pt x="1135" y="820" on="0"/>
        <pt x="1128" y="814" on="0"/>
        <pt x="1119" y="814" on="1"/>
        <pt x="1113" y="814" on="0"/>
        <pt x="1093" y="826" on="0"/>
        <pt x="1063" y="841" on="0"/>
        <pt x="1023" y="854" on="0"/>
        <pt x="998" y="854" on="1"/>
        <pt x="965" y="854" on="0"/>
        <pt x="889" y="821" on="0"/>
        <pt x="823" y="741" on="0"/>
        <pt x="780" y="607" on="0"/>
      </contour>
      <contour>
        <pt x="913" y="120" on="1"/>
        <pt x="881" y="127" on="0"/>
        <pt x="805" y="173" on="0"/>
        <pt x="739" y="264" on="0"/>
        <pt x="695" y="405" on="0"/>
        <pt x="695" y="506" on="1"/>
        <pt x="695" y="607" on="0"/>
        <pt x="739" y="749" on="0"/>
        <pt x="805" y="840" on="0"/>
        <pt x="881" y="887" on="0"/>
        <pt x="913" y="894" on="1"/>
        <pt x="859" y="893" on="0"/>
        <pt x="752" y="850" on="0"/>
        <pt x="666" y="758" on="0"/>
        <pt x="613" y="611" on="0"/>
        <pt x="613" y="506" on="1"/>
        <pt x="613" y="401" on="0"/>
        <pt x="666" y="255" on="0"/>
        <pt x="752" y="163" on="0"/>
        <pt x="859" y="121" on="0"/>
      </contour>
    </TTGlyph>
    <TTGlyph name="cacute" xMin="53" yMin="-41" xMax="1186" yMax="1570">
      <component glyphName="c" x="0" y="0" flags="0x204"/>
      <component glyphName="acute" x="241" y="0" flags="0x4"/>
    </TTGlyph>
    <TTGlyph name="caron" xMin="83" yMin="1159" xMax="737" yMax="1550">
      <contour>
        <pt x="634" y="1544" on="1"/>
        <pt x="638" y="1546" on="0"/>
        <pt x="644" y="1550" on="0"/>
        <pt x="647" y="1550" on="1"/>
        <pt x="656" y="1550" on="0"/>
        <pt x="664" y="1540" on="1"/>
        <pt x="731" y="1452" on="1"/>
        <pt x="737" y="1444" on="0"/>
        <pt x="737" y="1438" on="1"/>
        <pt x="737" y="1430" on="0"/>
        <pt x="728" y="1423" on="1"/>
        <pt x="424" y="1165" on="1"/>
        <pt x="421" y="1163" on="0"/>
        <pt x="415" y="1159" on="0"/>
        <pt x="410" y="1159" on="1"/>
        <pt x="405" y="1159" on="0"/>
        <pt x="399" y="1163" on="0"/>
        <pt x="396" y="1165" on="1"/>
        <pt x="92" y="1423" on="1"/>
        <pt x="83" y="1430" on="0"/>
        <pt x="83" y="1438" on="1"/>
        <pt x="83" y="1444" on="0"/>
        <pt x="89" y="1452" on="1"/>
        <pt x="156" y="1540" on="1"/>
        <pt x="161" y="1546" on="0"/>
        <pt x="168" y="1550" on="0"/>
        <pt x="173" y="1550" on="1"/>
        <pt x="176" y="1550" on="0"/>
        <pt x="182" y="1546" on="0"/>
        <pt x="186" y="1544" on="1"/>
        <pt x="410" y="1386" on="1"/>
      </contour>
    </TTGlyph>
    <TTGlyph name="ccaron" xMin="53" yMin="-41" xMax="1186" yMax="1550">
      <component glyphName="c" x="0" y="0" flags="0x204"/>
      <component glyphName="caron" x="241" y="0" flags="0x4"/>
    </TTGlyph>
</ttFont>
